<?xml version="1.0" encoding="UTF-8" standalone="no"?><svg xmlns="http://www.w3.org/2000/svg" xmlns:xlink="http://www.w3.org/1999/xlink" contentStyleType="text/css" height="382px" preserveAspectRatio="none" style="width:211px;height:382px;background:#FFFFFF;" version="1.1" viewBox="0 0 211 382" width="211px" zoomAndPan="magnify"><defs/><g><!--MD5=[beb8503a4eb8f85ee7f1f95480be94f9]
cluster AMILI--><g id="cluster_AMILI"><path d="M8.5,80 L53.5,80 A3.75,3.75 0 0 1 56,82.5 L63,102.2969 L201.5,102.2969 A2.5,2.5 0 0 1 204,104.7969 L204,372.5 A2.5,2.5 0 0 1 201.5,375 L8.5,375 A2.5,2.5 0 0 1 6,372.5 L6,82.5 A2.5,2.5 0 0 1 8.5,80 " fill="none" style="stroke:#000000;stroke-width:1.5;"/><line style="stroke:#000000;stroke-width:1.5;" x1="6" x2="63" y1="102.2969" y2="102.2969"/><text fill="#000000" font-family="sans-serif" font-size="14" font-weight="bold" lengthAdjust="spacing" textLength="44" x="10" y="94.9951">AMILI</text></g><!--MD5=[72d35dc7efea2f25466860ea697b82ff]
class AMILI_App--><g id="elem_AMILI_App"><rect codeLine="2" fill="#F1F1F1" height="243.5625" id="AMILI_App" rx="2.5" ry="2.5" style="stroke:#181818;stroke-width:0.5;" width="165" x="22.5" y="115"/><ellipse cx="63.6" cy="131" fill="#ADD1B2" rx="11" ry="11" style="stroke:#181818;stroke-width:1.0;"/><path d="M65.9438,126.6719 C65.0063,126.2344 64.4125,126.0938 63.5375,126.0938 C60.9125,126.0938 58.9125,128.1719 58.9125,130.8906 L58.9125,132.0156 C58.9125,134.5938 61.0219,136.4844 63.9125,136.4844 C65.1313,136.4844 66.2875,136.1875 67.0375,135.6406 C67.6156,135.2344 67.9438,134.7813 67.9438,134.3906 C67.9438,133.9375 67.5531,133.5469 67.0844,133.5469 C66.8656,133.5469 66.6625,133.625 66.475,133.8125 C66.0219,134.2969 66.0219,134.2969 65.8344,134.3906 C65.4125,134.6563 64.725,134.7813 63.9594,134.7813 C61.9125,134.7813 60.6156,133.6875 60.6156,131.9844 L60.6156,130.8906 C60.6156,129.1094 61.8656,127.7969 63.6,127.7969 C64.1781,127.7969 64.7875,127.9531 65.2563,128.2031 C65.7406,128.4844 65.9125,128.7031 66.0063,129.1094 C66.0688,129.5156 66.1,129.6406 66.2406,129.7656 C66.3813,129.9063 66.6156,130.0156 66.8344,130.0156 C67.1,130.0156 67.3656,129.875 67.5375,129.6563 C67.6469,129.5 67.6781,129.3125 67.6781,128.8906 L67.6781,127.4688 C67.6781,127.0313 67.6625,126.9063 67.5688,126.75 C67.4125,126.4844 67.1313,126.3438 66.8344,126.3438 C66.5375,126.3438 66.3344,126.4375 66.1156,126.75 L65.9438,126.6719 Z " fill="#000000"/><text fill="#000000" font-family="sans-serif" font-size="14" lengthAdjust="spacing" textLength="75" x="83.4" y="135.8467">AMILI_App</text><line style="stroke:#181818;stroke-width:0.5;" x1="23.5" x2="186.5" y1="147" y2="147"/><ellipse cx="33.5" cy="160.6484" fill="none" rx="3" ry="3" style="stroke:#038048;stroke-width:1.0;"/><text fill="#000000" font-family="sans-serif" font-size="14" lengthAdjust="spacing" textLength="100" x="42.5" y="163.9951">centralwidget</text><ellipse cx="33.5" cy="176.9453" fill="none" rx="3" ry="3" style="stroke:#038048;stroke-width:1.0;"/><text fill="#000000" font-family="sans-serif" font-size="14" lengthAdjust="spacing" textLength="102" x="42.5" y="180.292">verticalLayout</text><ellipse cx="33.5" cy="193.2422" fill="none" rx="3" ry="3" style="stroke:#038048;stroke-width:1.0;"/><text fill="#000000" font-family="sans-serif" font-size="14" lengthAdjust="spacing" textLength="71" x="42.5" y="196.5889">Core_App</text><ellipse cx="33.5" cy="209.5391" fill="none" rx="3" ry="3" style="stroke:#038048;stroke-width:1.0;"/><text fill="#000000" font-family="sans-serif" font-size="14" lengthAdjust="spacing" textLength="108" x="42.5" y="212.8857">Stacked_Pages</text><ellipse cx="33.5" cy="225.8359" fill="none" rx="3" ry="3" style="stroke:#038048;stroke-width:1.0;"/><text fill="#000000" font-family="sans-serif" font-size="14" lengthAdjust="spacing" textLength="38" x="42.5" y="229.1826">Menu</text><ellipse cx="33.5" cy="242.1328" fill="none" rx="3" ry="3" style="stroke:#038048;stroke-width:1.0;"/><text fill="#000000" font-family="sans-serif" font-size="14" lengthAdjust="spacing" textLength="107" x="42.5" y="245.4795">Barra_Principal</text><ellipse cx="33.5" cy="258.4297" fill="none" rx="3" ry="3" style="stroke:#038048;stroke-width:1.0;"/><text fill="#000000" font-family="sans-serif" font-size="14" lengthAdjust="spacing" textLength="129" x="42.5" y="261.7764">Ventana_Principal</text><ellipse cx="33.5" cy="274.7266" fill="none" rx="3" ry="3" style="stroke:#038048;stroke-width:1.0;"/><text fill="#000000" font-family="sans-serif" font-size="14" lengthAdjust="spacing" textLength="136" x="42.5" y="278.0732">horizontalLayout_2</text><ellipse cx="33.5" cy="291.0234" fill="none" rx="3" ry="3" style="stroke:#038048;stroke-width:1.0;"/><text fill="#000000" font-family="sans-serif" font-size="14" lengthAdjust="spacing" textLength="139" x="42.5" y="294.3701">lb_desplegar_menu</text><ellipse cx="33.5" cy="307.3203" fill="none" rx="3" ry="3" style="stroke:#038048;stroke-width:1.0;"/><text fill="#000000" font-family="sans-serif" font-size="14" lengthAdjust="spacing" textLength="68" x="42.5" y="310.667">statusBar</text><line style="stroke:#181818;stroke-width:0.5;" x1="23.5" x2="186.5" y1="317.9688" y2="317.9688"/><ellipse cx="33.5" cy="331.6172" fill="#84BE84" rx="3" ry="3" style="stroke:#038048;stroke-width:1.0;"/><text fill="#000000" font-family="sans-serif" font-size="14" lengthAdjust="spacing" textLength="62" x="42.5" y="334.9639">__init__()</text><ellipse cx="33.5" cy="347.9141" fill="#84BE84" rx="3" ry="3" style="stroke:#038048;stroke-width:1.0;"/><text fill="#000000" font-family="sans-serif" font-size="14" lengthAdjust="spacing" textLength="128" x="42.5" y="351.2607">desplegar_menu()</text></g><!--MD5=[16d025dde850bca9df54fb6533f05466]
class QMainWindow--><g id="elem_QMainWindow"><rect fill="#F1F1F1" height="48" id="QMainWindow" rx="2.5" ry="2.5" style="stroke:#181818;stroke-width:0.5;" width="132" x="39" y="7"/><ellipse cx="54" cy="23" fill="#ADD1B2" rx="11" ry="11" style="stroke:#181818;stroke-width:1.0;"/><path d="M56.3438,18.6719 C55.4063,18.2344 54.8125,18.0938 53.9375,18.0938 C51.3125,18.0938 49.3125,20.1719 49.3125,22.8906 L49.3125,24.0156 C49.3125,26.5938 51.4219,28.4844 54.3125,28.4844 C55.5313,28.4844 56.6875,28.1875 57.4375,27.6406 C58.0156,27.2344 58.3438,26.7813 58.3438,26.3906 C58.3438,25.9375 57.9531,25.5469 57.4844,25.5469 C57.2656,25.5469 57.0625,25.625 56.875,25.8125 C56.4219,26.2969 56.4219,26.2969 56.2344,26.3906 C55.8125,26.6563 55.125,26.7813 54.3594,26.7813 C52.3125,26.7813 51.0156,25.6875 51.0156,23.9844 L51.0156,22.8906 C51.0156,21.1094 52.2656,19.7969 54,19.7969 C54.5781,19.7969 55.1875,19.9531 55.6563,20.2031 C56.1406,20.4844 56.3125,20.7031 56.4063,21.1094 C56.4688,21.5156 56.5,21.6406 56.6406,21.7656 C56.7813,21.9063 57.0156,22.0156 57.2344,22.0156 C57.5,22.0156 57.7656,21.875 57.9375,21.6563 C58.0469,21.5 58.0781,21.3125 58.0781,20.8906 L58.0781,19.4688 C58.0781,19.0313 58.0625,18.9063 57.9688,18.75 C57.8125,18.4844 57.5313,18.3438 57.2344,18.3438 C56.9375,18.3438 56.7344,18.4375 56.5156,18.75 L56.3438,18.6719 Z " fill="#000000"/><text fill="#000000" font-family="sans-serif" font-size="14" lengthAdjust="spacing" textLength="100" x="68" y="27.8467">QMainWindow</text><line style="stroke:#181818;stroke-width:0.5;" x1="40" x2="170" y1="39" y2="39"/><line style="stroke:#181818;stroke-width:0.5;" x1="40" x2="170" y1="47" y2="47"/></g><!--MD5=[61dbb6f082c11a95d3645f38914b1857]
reverse link QMainWindow to AMILI_App--><g id="link_QMainWindow_AMILI_App"><path codeLine="17" d="M105,75.02 C105,86.936 105,100.487 105,114.551 " fill="none" id="QMainWindow-backto-AMILI_App" style="stroke:#181818;stroke-width:1.0;"/><polygon fill="none" points="98,75.005,105,55.005,112,75.005,98,75.005" style="stroke:#181818;stroke-width:1.0;"/></g><!--MD5=[f6cf6a73aeb8a3c7d912d2c4400076ef]
@startuml
package AMILI {
  class AMILI_App
  AMILI_App : +__init__()
  AMILI_App : +desplegar_menu()
  AMILI_App : +centralwidget
  AMILI_App : +verticalLayout
  AMILI_App : +Core_App
  AMILI_App : +Stacked_Pages
  AMILI_App : +Menu
  AMILI_App : +Barra_Principal
  AMILI_App : +Ventana_Principal
  AMILI_App : +horizontalLayout_2
  AMILI_App : +lb_desplegar_menu
  AMILI_App : +statusBar
}

QMainWindow <|- - AMILI_App
@enduml

PlantUML version 1.2022.13beta2(Unknown compile time)
(GPL source distribution)
Java Runtime: Java(TM) SE Runtime Environment
JVM: Java HotSpot(TM) 64-Bit Server VM
Default Encoding: UTF-8
Language: en
Country: US
--></g></svg>