<?xml version="1.0" encoding="UTF-8" standalone="no"?><svg xmlns="http://www.w3.org/2000/svg" xmlns:xlink="http://www.w3.org/1999/xlink" contentStyleType="text/css" height="577px" preserveAspectRatio="none" style="width:273px;height:577px;background:#FFFFFF;" version="1.1" viewBox="0 0 273 577" width="273px" zoomAndPan="magnify"><defs/><g><!--MD5=[92968753f88e08013c40eb443557105a]
cluster Barra_Principal--><g id="cluster_Barra_Principal"><path d="M8.5,80 L132.5,80 A3.75,3.75 0 0 1 135,82.5 L142,102.2969 L263.5,102.2969 A2.5,2.5 0 0 1 266,104.7969 L266,567.5 A2.5,2.5 0 0 1 263.5,570 L8.5,570 A2.5,2.5 0 0 1 6,567.5 L6,82.5 A2.5,2.5 0 0 1 8.5,80 " fill="none" style="stroke:#000000;stroke-width:1.5;"/><line style="stroke:#000000;stroke-width:1.5;" x1="6" x2="142" y1="102.2969" y2="102.2969"/><text fill="#000000" font-family="sans-serif" font-size="14" font-weight="bold" lengthAdjust="spacing" textLength="123" x="10" y="94.9951">Barra_Principal</text></g><!--MD5=[84c4057f43aee2bf9d479488b57b0405]
class Barra_Principal--><g id="elem_Barra_Principal"><rect codeLine="2" fill="#F1F1F1" height="439.125" id="Barra_Principal" rx="2.5" ry="2.5" style="stroke:#181818;stroke-width:0.5;" width="228" x="22" y="115"/><ellipse cx="78.25" cy="131" fill="#ADD1B2" rx="11" ry="11" style="stroke:#181818;stroke-width:1.0;"/><path d="M80.5938,126.6719 C79.6563,126.2344 79.0625,126.0938 78.1875,126.0938 C75.5625,126.0938 73.5625,128.1719 73.5625,130.8906 L73.5625,132.0156 C73.5625,134.5938 75.6719,136.4844 78.5625,136.4844 C79.7813,136.4844 80.9375,136.1875 81.6875,135.6406 C82.2656,135.2344 82.5938,134.7813 82.5938,134.3906 C82.5938,133.9375 82.2031,133.5469 81.7344,133.5469 C81.5156,133.5469 81.3125,133.625 81.125,133.8125 C80.6719,134.2969 80.6719,134.2969 80.4844,134.3906 C80.0625,134.6563 79.375,134.7813 78.6094,134.7813 C76.5625,134.7813 75.2656,133.6875 75.2656,131.9844 L75.2656,130.8906 C75.2656,129.1094 76.5156,127.7969 78.25,127.7969 C78.8281,127.7969 79.4375,127.9531 79.9063,128.2031 C80.3906,128.4844 80.5625,128.7031 80.6563,129.1094 C80.7188,129.5156 80.75,129.6406 80.8906,129.7656 C81.0313,129.9063 81.2656,130.0156 81.4844,130.0156 C81.75,130.0156 82.0156,129.875 82.1875,129.6563 C82.2969,129.5 82.3281,129.3125 82.3281,128.8906 L82.3281,127.4688 C82.3281,127.0313 82.3125,126.9063 82.2188,126.75 C82.0625,126.4844 81.7813,126.3438 81.4844,126.3438 C81.1875,126.3438 80.9844,126.4375 80.7656,126.75 L80.5938,126.6719 Z " fill="#000000"/><text fill="#000000" font-family="sans-serif" font-size="14" lengthAdjust="spacing" textLength="107" x="98.75" y="135.8467">Barra_Principal</text><line style="stroke:#181818;stroke-width:0.5;" x1="23" x2="249" y1="147" y2="147"/><ellipse cx="33" cy="160.6484" fill="none" rx="3" ry="3" style="stroke:#038048;stroke-width:1.0;"/><text fill="#000000" font-family="sans-serif" font-size="14" lengthAdjust="spacing" textLength="30" x="42" y="163.9951">App</text><ellipse cx="33" cy="176.9453" fill="none" rx="3" ry="3" style="stroke:#038048;stroke-width:1.0;"/><text fill="#000000" font-family="sans-serif" font-size="14" lengthAdjust="spacing" textLength="127" x="42" y="180.292">mouseMoveEvent</text><ellipse cx="33" cy="193.2422" fill="none" rx="3" ry="3" style="stroke:#038048;stroke-width:1.0;"/><text fill="#000000" font-family="sans-serif" font-size="14" lengthAdjust="spacing" textLength="128" x="42" y="196.5889">LayoutH_principal</text><ellipse cx="33" cy="209.5391" fill="none" rx="3" ry="3" style="stroke:#038048;stroke-width:1.0;"/><text fill="#000000" font-family="sans-serif" font-size="14" lengthAdjust="spacing" textLength="121" x="42" y="212.8857">lb_name_window</text><ellipse cx="33" cy="225.8359" fill="none" rx="3" ry="3" style="stroke:#038048;stroke-width:1.0;"/><text fill="#000000" font-family="sans-serif" font-size="14" lengthAdjust="spacing" textLength="198" x="42" y="229.1826">pb_error_conection_corona</text><ellipse cx="33" cy="242.1328" fill="none" rx="3" ry="3" style="stroke:#038048;stroke-width:1.0;"/><text fill="#000000" font-family="sans-serif" font-size="14" lengthAdjust="spacing" textLength="192" x="42" y="245.4795">lb_error_conection_corona</text><ellipse cx="33" cy="258.4297" fill="none" rx="3" ry="3" style="stroke:#038048;stroke-width:1.0;"/><text fill="#000000" font-family="sans-serif" font-size="14" lengthAdjust="spacing" textLength="202" x="42" y="261.7764">pb_error_conection_camera</text><ellipse cx="33" cy="274.7266" fill="none" rx="3" ry="3" style="stroke:#038048;stroke-width:1.0;"/><text fill="#000000" font-family="sans-serif" font-size="14" lengthAdjust="spacing" textLength="196" x="42" y="278.0732">lb_error_conection_camera</text><ellipse cx="33" cy="291.0234" fill="none" rx="3" ry="3" style="stroke:#038048;stroke-width:1.0;"/><text fill="#000000" font-family="sans-serif" font-size="14" lengthAdjust="spacing" textLength="79" x="42" y="294.3701">spacer_bar</text><ellipse cx="33" cy="307.3203" fill="none" rx="3" ry="3" style="stroke:#038048;stroke-width:1.0;"/><text fill="#000000" font-family="sans-serif" font-size="14" lengthAdjust="spacing" textLength="94" x="42" y="310.667">pb_minimum</text><ellipse cx="33" cy="323.6172" fill="none" rx="3" ry="3" style="stroke:#038048;stroke-width:1.0;"/><text fill="#000000" font-family="sans-serif" font-size="14" lengthAdjust="spacing" textLength="77" x="42" y="326.9639">pb_normal</text><ellipse cx="33" cy="339.9141" fill="none" rx="3" ry="3" style="stroke:#038048;stroke-width:1.0;"/><text fill="#000000" font-family="sans-serif" font-size="14" lengthAdjust="spacing" textLength="97" x="42" y="343.2607">pb_maximum</text><ellipse cx="33" cy="356.2109" fill="none" rx="3" ry="3" style="stroke:#038048;stroke-width:1.0;"/><text fill="#000000" font-family="sans-serif" font-size="14" lengthAdjust="spacing" textLength="55" x="42" y="359.5576">pb_exit</text><ellipse cx="33" cy="372.5078" fill="none" rx="3" ry="3" style="stroke:#038048;stroke-width:1.0;"/><text fill="#000000" font-family="sans-serif" font-size="14" lengthAdjust="spacing" textLength="91" x="42" y="375.8545">clickPosition</text><line style="stroke:#181818;stroke-width:0.5;" x1="23" x2="249" y1="383.1563" y2="383.1563"/><ellipse cx="33" cy="396.8047" fill="#84BE84" rx="3" ry="3" style="stroke:#038048;stroke-width:1.0;"/><text fill="#000000" font-family="sans-serif" font-size="14" lengthAdjust="spacing" textLength="62" x="42" y="400.1514">__init__()</text><ellipse cx="33" cy="413.1016" fill="#84BE84" rx="3" ry="3" style="stroke:#038048;stroke-width:1.0;"/><text fill="#000000" font-family="sans-serif" font-size="14" lengthAdjust="spacing" textLength="109" x="42" y="416.4482">Structe_Barra()</text><ellipse cx="33" cy="429.3984" fill="#84BE84" rx="3" ry="3" style="stroke:#038048;stroke-width:1.0;"/><text fill="#000000" font-family="sans-serif" font-size="14" lengthAdjust="spacing" textLength="103" x="42" y="432.7451">Names_Barra()</text><ellipse cx="33" cy="445.6953" fill="#84BE84" rx="3" ry="3" style="stroke:#038048;stroke-width:1.0;"/><text fill="#000000" font-family="sans-serif" font-size="14" lengthAdjust="spacing" textLength="128" x="42" y="449.042">Control_Buttons()</text><ellipse cx="33" cy="461.9922" fill="#84BE84" rx="3" ry="3" style="stroke:#038048;stroke-width:1.0;"/><text fill="#000000" font-family="sans-serif" font-size="14" lengthAdjust="spacing" textLength="137" x="42" y="465.3389">mousePressEvent()</text><ellipse cx="33" cy="478.2891" fill="#84BE84" rx="3" ry="3" style="stroke:#038048;stroke-width:1.0;"/><text fill="#000000" font-family="sans-serif" font-size="14" lengthAdjust="spacing" textLength="121" x="42" y="481.6357">mover_ventana()</text><ellipse cx="33" cy="494.5859" fill="#84BE84" rx="3" ry="3" style="stroke:#038048;stroke-width:1.0;"/><text fill="#000000" font-family="sans-serif" font-size="14" lengthAdjust="spacing" textLength="163" x="42" y="497.9326">control_pb_minimum()</text><ellipse cx="33" cy="510.8828" fill="#84BE84" rx="3" ry="3" style="stroke:#038048;stroke-width:1.0;"/><text fill="#000000" font-family="sans-serif" font-size="14" lengthAdjust="spacing" textLength="146" x="42" y="514.2295">control_pb_normal()</text><ellipse cx="33" cy="527.1797" fill="#84BE84" rx="3" ry="3" style="stroke:#038048;stroke-width:1.0;"/><text fill="#000000" font-family="sans-serif" font-size="14" lengthAdjust="spacing" textLength="166" x="42" y="530.5264">control_pb_maximum()</text><ellipse cx="33" cy="543.4766" fill="#84BE84" rx="3" ry="3" style="stroke:#038048;stroke-width:1.0;"/><text fill="#000000" font-family="sans-serif" font-size="14" lengthAdjust="spacing" textLength="73" x="42" y="546.8232">exit_app()</text></g><!--MD5=[0fdcf0f6c1d3e7ce80481602633b00b9]
class QFrame--><g id="elem_QFrame"><rect fill="#F1F1F1" height="48" id="QFrame" rx="2.5" ry="2.5" style="stroke:#181818;stroke-width:0.5;" width="88" x="92" y="7"/><ellipse cx="107" cy="23" fill="#ADD1B2" rx="11" ry="11" style="stroke:#181818;stroke-width:1.0;"/><path d="M109.3438,18.6719 C108.4063,18.2344 107.8125,18.0938 106.9375,18.0938 C104.3125,18.0938 102.3125,20.1719 102.3125,22.8906 L102.3125,24.0156 C102.3125,26.5938 104.4219,28.4844 107.3125,28.4844 C108.5313,28.4844 109.6875,28.1875 110.4375,27.6406 C111.0156,27.2344 111.3438,26.7813 111.3438,26.3906 C111.3438,25.9375 110.9531,25.5469 110.4844,25.5469 C110.2656,25.5469 110.0625,25.625 109.875,25.8125 C109.4219,26.2969 109.4219,26.2969 109.2344,26.3906 C108.8125,26.6563 108.125,26.7813 107.3594,26.7813 C105.3125,26.7813 104.0156,25.6875 104.0156,23.9844 L104.0156,22.8906 C104.0156,21.1094 105.2656,19.7969 107,19.7969 C107.5781,19.7969 108.1875,19.9531 108.6563,20.2031 C109.1406,20.4844 109.3125,20.7031 109.4063,21.1094 C109.4688,21.5156 109.5,21.6406 109.6406,21.7656 C109.7813,21.9063 110.0156,22.0156 110.2344,22.0156 C110.5,22.0156 110.7656,21.875 110.9375,21.6563 C111.0469,21.5 111.0781,21.3125 111.0781,20.8906 L111.0781,19.4688 C111.0781,19.0313 111.0625,18.9063 110.9688,18.75 C110.8125,18.4844 110.5313,18.3438 110.2344,18.3438 C109.9375,18.3438 109.7344,18.4375 109.5156,18.75 L109.3438,18.6719 Z " fill="#000000"/><text fill="#000000" font-family="sans-serif" font-size="14" lengthAdjust="spacing" textLength="56" x="121" y="27.8467">QFrame</text><line style="stroke:#181818;stroke-width:0.5;" x1="93" x2="179" y1="39" y2="39"/><line style="stroke:#181818;stroke-width:0.5;" x1="93" x2="179" y1="47" y2="47"/></g><!--MD5=[fa2616fe2da3993ab258a25768ab4879]
reverse link QFrame to Barra_Principal--><g id="link_QFrame_Barra_Principal"><path codeLine="29" d="M136,75.21 C136,86.889 136,100.364 136,114.903 " fill="none" id="QFrame-backto-Barra_Principal" style="stroke:#181818;stroke-width:1.0;"/><polygon fill="none" points="129,75.158,136,55.158,143,75.158,129,75.158" style="stroke:#181818;stroke-width:1.0;"/></g><!--MD5=[3903e5f34597bbd45000b13155907fd1]
@startuml
package Barra_Principal {
  class Barra_Principal
  Barra_Principal : +__init__()
  Barra_Principal : +Structe_Barra()
  Barra_Principal : +Names_Barra()
  Barra_Principal : +Control_Buttons()
  Barra_Principal : +mousePressEvent()
  Barra_Principal : +mover_ventana()
  Barra_Principal : +control_pb_minimum()
  Barra_Principal : +control_pb_normal()
  Barra_Principal : +control_pb_maximum()
  Barra_Principal : +exit_app()
  Barra_Principal : +App
  Barra_Principal : +mouseMoveEvent
  Barra_Principal : +LayoutH_principal
  Barra_Principal : +lb_name_window
  Barra_Principal : +pb_error_conection_corona
  Barra_Principal : +lb_error_conection_corona
  Barra_Principal : +pb_error_conection_camera
  Barra_Principal : +lb_error_conection_camera
  Barra_Principal : +spacer_bar
  Barra_Principal : +pb_minimum
  Barra_Principal : +pb_normal
  Barra_Principal : +pb_maximum
  Barra_Principal : +pb_exit
  Barra_Principal : +clickPosition
}

QFrame <|- - Barra_Principal
@enduml

PlantUML version 1.2022.13beta2(Unknown compile time)
(GPL source distribution)
Java Runtime: Java(TM) SE Runtime Environment
JVM: Java HotSpot(TM) 64-Bit Server VM
Default Encoding: UTF-8
Language: en
Country: US
--></g></svg>