<?xml version="1.0" encoding="UTF-8" standalone="no"?><svg xmlns="http://www.w3.org/2000/svg" xmlns:xlink="http://www.w3.org/1999/xlink" contentStyleType="text/css" height="324px" preserveAspectRatio="none" style="width:239px;height:324px;background:#FFFFFF;" version="1.1" viewBox="0 0 239 324" width="239px" zoomAndPan="magnify"><defs/><g><!--MD5=[2356deebe891e30e23a7ebc9a75076d6]
cluster ColorReproduction_API--><g id="cluster_ColorReproduction_API"><path d="M8.5,6 L193.5,6 A3.75,3.75 0 0 1 196,8.5 L203,28.2969 L229.5,28.2969 A2.5,2.5 0 0 1 232,30.7969 L232,314.5 A2.5,2.5 0 0 1 229.5,317 L8.5,317 A2.5,2.5 0 0 1 6,314.5 L6,8.5 A2.5,2.5 0 0 1 8.5,6 " fill="none" style="stroke:#000000;stroke-width:1.5;"/><line style="stroke:#000000;stroke-width:1.5;" x1="6" x2="203" y1="28.2969" y2="28.2969"/><text fill="#000000" font-family="sans-serif" font-size="14" font-weight="bold" lengthAdjust="spacing" textLength="184" x="10" y="20.9951">ColorReproduction_API</text></g><!--MD5=[90b751fd13807757ba20f250ad8e3284]
class ColorReproduction--><g id="elem_ColorReproduction"><rect codeLine="2" fill="#F1F1F1" height="259.8594" id="ColorReproduction" rx="2.5" ry="2.5" style="stroke:#181818;stroke-width:0.5;" width="194" x="22" y="41"/><ellipse cx="48.7" cy="57" fill="#ADD1B2" rx="11" ry="11" style="stroke:#181818;stroke-width:1.0;"/><path d="M51.0438,52.6719 C50.1063,52.2344 49.5125,52.0938 48.6375,52.0938 C46.0125,52.0938 44.0125,54.1719 44.0125,56.8906 L44.0125,58.0156 C44.0125,60.5938 46.1219,62.4844 49.0125,62.4844 C50.2313,62.4844 51.3875,62.1875 52.1375,61.6406 C52.7156,61.2344 53.0438,60.7813 53.0438,60.3906 C53.0438,59.9375 52.6531,59.5469 52.1844,59.5469 C51.9656,59.5469 51.7625,59.625 51.575,59.8125 C51.1219,60.2969 51.1219,60.2969 50.9344,60.3906 C50.5125,60.6563 49.825,60.7813 49.0594,60.7813 C47.0125,60.7813 45.7156,59.6875 45.7156,57.9844 L45.7156,56.8906 C45.7156,55.1094 46.9656,53.7969 48.7,53.7969 C49.2781,53.7969 49.8875,53.9531 50.3563,54.2031 C50.8406,54.4844 51.0125,54.7031 51.1063,55.1094 C51.1688,55.5156 51.2,55.6406 51.3406,55.7656 C51.4813,55.9063 51.7156,56.0156 51.9344,56.0156 C52.2,56.0156 52.4656,55.875 52.6375,55.6563 C52.7469,55.5 52.7781,55.3125 52.7781,54.8906 L52.7781,53.4688 C52.7781,53.0313 52.7625,52.9063 52.6688,52.75 C52.5125,52.4844 52.2313,52.3438 51.9344,52.3438 C51.6375,52.3438 51.4344,52.4375 51.2156,52.75 L51.0438,52.6719 Z " fill="#000000"/><text fill="#000000" font-family="sans-serif" font-size="14" lengthAdjust="spacing" textLength="136" x="65.3" y="61.8467">ColorReproduction</text><line style="stroke:#181818;stroke-width:0.5;" x1="23" x2="215" y1="73" y2="73"/><ellipse cx="33" cy="86.6484" fill="none" rx="3" ry="3" style="stroke:#038048;stroke-width:1.0;"/><text fill="#000000" font-family="sans-serif" font-size="14" lengthAdjust="spacing" textLength="51" x="42" y="89.9951">images</text><ellipse cx="33" cy="102.9453" fill="none" rx="3" ry="3" style="stroke:#038048;stroke-width:1.0;"/><text fill="#000000" font-family="sans-serif" font-size="14" lengthAdjust="spacing" textLength="38" x="42" y="106.292">mask</text><ellipse cx="33" cy="119.2422" fill="none" rx="3" ry="3" style="stroke:#038048;stroke-width:1.0;"/><text fill="#000000" font-family="sans-serif" font-size="14" lengthAdjust="spacing" textLength="90" x="42" y="122.5889">wavelengths</text><ellipse cx="33" cy="135.5391" fill="none" rx="3" ry="3" style="stroke:#038048;stroke-width:1.0;"/><text fill="#000000" font-family="sans-serif" font-size="14" lengthAdjust="spacing" textLength="64" x="42" y="138.8857">cie_1931</text><ellipse cx="33" cy="151.8359" fill="none" rx="3" ry="3" style="stroke:#038048;stroke-width:1.0;"/><text fill="#000000" font-family="sans-serif" font-size="14" lengthAdjust="spacing" textLength="105" x="42" y="155.1826">illuminant_d65</text><ellipse cx="33" cy="168.1328" fill="none" rx="3" ry="3" style="stroke:#038048;stroke-width:1.0;"/><text fill="#000000" font-family="sans-serif" font-size="14" lengthAdjust="spacing" textLength="141" x="42" y="171.4795">select_wavelengths</text><ellipse cx="33" cy="184.4297" fill="none" rx="3" ry="3" style="stroke:#038048;stroke-width:1.0;"/><text fill="#000000" font-family="sans-serif" font-size="14" lengthAdjust="spacing" textLength="79" x="42" y="187.7764">size_image</text><ellipse cx="33" cy="200.7266" fill="none" rx="3" ry="3" style="stroke:#038048;stroke-width:1.0;"/><text fill="#000000" font-family="sans-serif" font-size="14" lengthAdjust="spacing" textLength="74" x="42" y="204.0732">pesos_ecu</text><line style="stroke:#181818;stroke-width:0.5;" x1="23" x2="215" y1="211.375" y2="211.375"/><ellipse cx="33" cy="225.0234" fill="#84BE84" rx="3" ry="3" style="stroke:#038048;stroke-width:1.0;"/><text fill="#000000" font-family="sans-serif" font-size="14" lengthAdjust="spacing" textLength="62" x="42" y="228.3701">__init__()</text><rect fill="#F24D5C" height="6" style="stroke:#C82930;stroke-width:1.0;" width="6" x="30" y="238.3203"/><text fill="#000000" font-family="sans-serif" font-size="14" lengthAdjust="spacing" textLength="121" x="42" y="244.667">__Init_Variables()</text><ellipse cx="33" cy="257.6172" fill="#84BE84" rx="3" ry="3" style="stroke:#038048;stroke-width:1.0;"/><text fill="#000000" font-family="sans-serif" font-size="14" lengthAdjust="spacing" textLength="91" x="42" y="260.9639">Charge_CIE()</text><ellipse cx="33" cy="273.9141" fill="#84BE84" rx="3" ry="3" style="stroke:#038048;stroke-width:1.0;"/><text fill="#000000" font-family="sans-serif" font-size="14" lengthAdjust="spacing" textLength="109" x="42" y="277.2607">Load_Capture()</text><ellipse cx="33" cy="290.2109" fill="#84BE84" rx="3" ry="3" style="stroke:#038048;stroke-width:1.0;"/><text fill="#000000" font-family="sans-serif" font-size="14" lengthAdjust="spacing" textLength="168" x="42" y="293.5576">ReproduccionCie1931()</text></g><!--MD5=[b1fc86328419c057028e0c65eba09f94]
@startuml
package ColorReproduction_API {
  class ColorReproduction
  ColorReproduction : +__init__()
  ColorReproduction : -__Init_Variables()
  ColorReproduction : +Charge_CIE()
  ColorReproduction : +Load_Capture()
  ColorReproduction : +ReproduccionCie1931()
  ColorReproduction : +images
  ColorReproduction : +mask
  ColorReproduction : +wavelengths
  ColorReproduction : +cie_1931
  ColorReproduction : +illuminant_d65
  ColorReproduction : +select_wavelengths
  ColorReproduction : +size_image
  ColorReproduction : +pesos_ecu
}
@enduml

PlantUML version 1.2022.13beta2(Unknown compile time)
(GPL source distribution)
Java Runtime: Java(TM) SE Runtime Environment
JVM: Java HotSpot(TM) 64-Bit Server VM
Default Encoding: UTF-8
Language: en
Country: US
--></g></svg>