<?xml version="1.0" encoding="UTF-8" standalone="no"?><svg xmlns="http://www.w3.org/2000/svg" xmlns:xlink="http://www.w3.org/1999/xlink" contentStyleType="text/css" height="447px" preserveAspectRatio="none" style="width:506px;height:447px;background:#FFFFFF;" version="1.1" viewBox="0 0 506 447" width="506px" zoomAndPan="magnify"><defs/><g><!--MD5=[134fe96ec8169b4b174d6d5f6ddf57b5]
cluster Core_App--><g id="cluster_Core_App"><path d="M8.5,80 L83.5,80 A3.75,3.75 0 0 1 86,82.5 L93,102.2969 L496.5,102.2969 A2.5,2.5 0 0 1 499,104.7969 L499,437.5 A2.5,2.5 0 0 1 496.5,440 L8.5,440 A2.5,2.5 0 0 1 6,437.5 L6,82.5 A2.5,2.5 0 0 1 8.5,80 " fill="none" style="stroke:#000000;stroke-width:1.5;"/><line style="stroke:#000000;stroke-width:1.5;" x1="6" x2="93" y1="102.2969" y2="102.2969"/><text fill="#000000" font-family="sans-serif" font-size="14" font-weight="bold" lengthAdjust="spacing" textLength="74" x="10" y="94.9951">Core_App</text></g><!--MD5=[be603e542238943a718cc1a244737c83]
class Check_Connection_proces--><g id="elem_Check_Connection_proces"><rect codeLine="2" fill="#F1F1F1" height="194.6719" id="Check_Connection_proces" rx="2.5" ry="2.5" style="stroke:#181818;stroke-width:0.5;" width="223" x="259.5" y="172"/><ellipse cx="274.5" cy="188" fill="#ADD1B2" rx="11" ry="11" style="stroke:#181818;stroke-width:1.0;"/><path d="M276.8438,183.6719 C275.9063,183.2344 275.3125,183.0938 274.4375,183.0938 C271.8125,183.0938 269.8125,185.1719 269.8125,187.8906 L269.8125,189.0156 C269.8125,191.5938 271.9219,193.4844 274.8125,193.4844 C276.0313,193.4844 277.1875,193.1875 277.9375,192.6406 C278.5156,192.2344 278.8438,191.7813 278.8438,191.3906 C278.8438,190.9375 278.4531,190.5469 277.9844,190.5469 C277.7656,190.5469 277.5625,190.625 277.375,190.8125 C276.9219,191.2969 276.9219,191.2969 276.7344,191.3906 C276.3125,191.6563 275.625,191.7813 274.8594,191.7813 C272.8125,191.7813 271.5156,190.6875 271.5156,188.9844 L271.5156,187.8906 C271.5156,186.1094 272.7656,184.7969 274.5,184.7969 C275.0781,184.7969 275.6875,184.9531 276.1563,185.2031 C276.6406,185.4844 276.8125,185.7031 276.9063,186.1094 C276.9688,186.5156 277,186.6406 277.1406,186.7656 C277.2813,186.9063 277.5156,187.0156 277.7344,187.0156 C278,187.0156 278.2656,186.875 278.4375,186.6563 C278.5469,186.5 278.5781,186.3125 278.5781,185.8906 L278.5781,184.4688 C278.5781,184.0313 278.5625,183.9063 278.4688,183.75 C278.3125,183.4844 278.0313,183.3438 277.7344,183.3438 C277.4375,183.3438 277.2344,183.4375 277.0156,183.75 L276.8438,183.6719 Z " fill="#000000"/><text fill="#000000" font-family="sans-serif" font-size="14" lengthAdjust="spacing" textLength="191" x="288.5" y="192.8467">Check_Connection_proces</text><line style="stroke:#181818;stroke-width:0.5;" x1="260.5" x2="481.5" y1="204" y2="204"/><ellipse cx="270.5" cy="217.6484" fill="none" rx="3" ry="3" style="stroke:#038048;stroke-width:1.0;"/><text fill="#000000" font-family="sans-serif" font-size="14" lengthAdjust="spacing" textLength="30" x="279.5" y="220.9951">App</text><ellipse cx="270.5" cy="233.9453" fill="none" rx="3" ry="3" style="stroke:#038048;stroke-width:1.0;"/><text fill="#000000" font-family="sans-serif" font-size="14" lengthAdjust="spacing" textLength="92" x="279.5" y="237.292">corona_error</text><ellipse cx="270.5" cy="250.2422" fill="none" rx="3" ry="3" style="stroke:#038048;stroke-width:1.0;"/><text fill="#000000" font-family="sans-serif" font-size="14" lengthAdjust="spacing" textLength="96" x="279.5" y="253.5889">camera_error</text><ellipse cx="270.5" cy="266.5391" fill="none" rx="3" ry="3" style="stroke:#038048;stroke-width:1.0;"/><text fill="#000000" font-family="sans-serif" font-size="14" lengthAdjust="spacing" textLength="68" x="279.5" y="269.8857">list_ports</text><ellipse cx="270.5" cy="282.8359" fill="none" rx="3" ry="3" style="stroke:#038048;stroke-width:1.0;"/><text fill="#000000" font-family="sans-serif" font-size="14" lengthAdjust="spacing" textLength="89" x="279.5" y="286.1826">list_cameras</text><line style="stroke:#181818;stroke-width:0.5;" x1="260.5" x2="481.5" y1="293.4844" y2="293.4844"/><ellipse cx="270.5" cy="307.1328" fill="#84BE84" rx="3" ry="3" style="stroke:#038048;stroke-width:1.0;"/><text fill="#000000" font-family="sans-serif" font-size="14" lengthAdjust="spacing" textLength="62" x="279.5" y="310.4795">__init__()</text><ellipse cx="270.5" cy="323.4297" fill="#84BE84" rx="3" ry="3" style="stroke:#038048;stroke-width:1.0;"/><text fill="#000000" font-family="sans-serif" font-size="14" lengthAdjust="spacing" textLength="33" x="279.5" y="326.7764">run()</text><ellipse cx="270.5" cy="339.7266" fill="#84BE84" rx="3" ry="3" style="stroke:#038048;stroke-width:1.0;"/><text fill="#000000" font-family="sans-serif" font-size="14" lengthAdjust="spacing" textLength="137" x="279.5" y="343.0732">Update_list_ports()</text><ellipse cx="270.5" cy="356.0234" fill="#84BE84" rx="3" ry="3" style="stroke:#038048;stroke-width:1.0;"/><text fill="#000000" font-family="sans-serif" font-size="14" lengthAdjust="spacing" textLength="158" x="279.5" y="359.3701">Update_list_cameras()</text></g><!--MD5=[b0305ba5ec6e035ad6c28c5f4d7dce8e]
class Core_App--><g id="elem_Core_App"><rect codeLine="7" fill="#F1F1F1" height="308.75" id="Core_App" rx="2.5" ry="2.5" style="stroke:#181818;stroke-width:0.5;" width="202" x="22" y="115"/><ellipse cx="83.25" cy="131" fill="#ADD1B2" rx="11" ry="11" style="stroke:#181818;stroke-width:1.0;"/><path d="M85.5938,126.6719 C84.6563,126.2344 84.0625,126.0938 83.1875,126.0938 C80.5625,126.0938 78.5625,128.1719 78.5625,130.8906 L78.5625,132.0156 C78.5625,134.5938 80.6719,136.4844 83.5625,136.4844 C84.7813,136.4844 85.9375,136.1875 86.6875,135.6406 C87.2656,135.2344 87.5938,134.7813 87.5938,134.3906 C87.5938,133.9375 87.2031,133.5469 86.7344,133.5469 C86.5156,133.5469 86.3125,133.625 86.125,133.8125 C85.6719,134.2969 85.6719,134.2969 85.4844,134.3906 C85.0625,134.6563 84.375,134.7813 83.6094,134.7813 C81.5625,134.7813 80.2656,133.6875 80.2656,131.9844 L80.2656,130.8906 C80.2656,129.1094 81.5156,127.7969 83.25,127.7969 C83.8281,127.7969 84.4375,127.9531 84.9063,128.2031 C85.3906,128.4844 85.5625,128.7031 85.6563,129.1094 C85.7188,129.5156 85.75,129.6406 85.8906,129.7656 C86.0313,129.9063 86.2656,130.0156 86.4844,130.0156 C86.75,130.0156 87.0156,129.875 87.1875,129.6563 C87.2969,129.5 87.3281,129.3125 87.3281,128.8906 L87.3281,127.4688 C87.3281,127.0313 87.3125,126.9063 87.2188,126.75 C87.0625,126.4844 86.7813,126.3438 86.4844,126.3438 C86.1875,126.3438 85.9844,126.4375 85.7656,126.75 L85.5938,126.6719 Z " fill="#000000"/><text fill="#000000" font-family="sans-serif" font-size="14" lengthAdjust="spacing" textLength="71" x="103.75" y="135.8467">Core_App</text><line style="stroke:#181818;stroke-width:0.5;" x1="23" x2="223" y1="147" y2="147"/><ellipse cx="33" cy="160.6484" fill="none" rx="3" ry="3" style="stroke:#038048;stroke-width:1.0;"/><text fill="#000000" font-family="sans-serif" font-size="14" lengthAdjust="spacing" textLength="30" x="42" y="163.9951">App</text><ellipse cx="33" cy="176.9453" fill="none" rx="3" ry="3" style="stroke:#038048;stroke-width:1.0;"/><text fill="#000000" font-family="sans-serif" font-size="14" lengthAdjust="spacing" textLength="127" x="42" y="180.292">Patch_Acquisition</text><ellipse cx="33" cy="193.2422" fill="none" rx="3" ry="3" style="stroke:#038048;stroke-width:1.0;"/><text fill="#000000" font-family="sans-serif" font-size="14" lengthAdjust="spacing" textLength="43" x="42" y="196.5889">check</text><ellipse cx="33" cy="209.5391" fill="none" rx="3" ry="3" style="stroke:#038048;stroke-width:1.0;"/><text fill="#000000" font-family="sans-serif" font-size="14" lengthAdjust="spacing" textLength="40" x="42" y="212.8857">timer</text><ellipse cx="33" cy="225.8359" fill="none" rx="3" ry="3" style="stroke:#038048;stroke-width:1.0;"/><text fill="#000000" font-family="sans-serif" font-size="14" lengthAdjust="spacing" textLength="104" x="42" y="229.1826">iluminator_init</text><ellipse cx="33" cy="242.1328" fill="none" rx="3" ry="3" style="stroke:#038048;stroke-width:1.0;"/><text fill="#000000" font-family="sans-serif" font-size="14" lengthAdjust="spacing" textLength="84" x="42" y="245.4795">camera_init</text><ellipse cx="33" cy="258.4297" fill="none" rx="3" ry="3" style="stroke:#038048;stroke-width:1.0;"/><text fill="#000000" font-family="sans-serif" font-size="14" lengthAdjust="spacing" textLength="68" x="42" y="261.7764">list_ports</text><ellipse cx="33" cy="274.7266" fill="none" rx="3" ry="3" style="stroke:#038048;stroke-width:1.0;"/><text fill="#000000" font-family="sans-serif" font-size="14" lengthAdjust="spacing" textLength="89" x="42" y="278.0732">list_cameras</text><ellipse cx="33" cy="291.0234" fill="none" rx="3" ry="3" style="stroke:#038048;stroke-width:1.0;"/><text fill="#000000" font-family="sans-serif" font-size="14" lengthAdjust="spacing" textLength="176" x="42" y="294.3701">Iluminator_MultiSpectral</text><ellipse cx="33" cy="307.3203" fill="none" rx="3" ry="3" style="stroke:#038048;stroke-width:1.0;"/><text fill="#000000" font-family="sans-serif" font-size="14" lengthAdjust="spacing" textLength="55" x="42" y="310.667">Camera</text><line style="stroke:#181818;stroke-width:0.5;" x1="23" x2="223" y1="317.9688" y2="317.9688"/><ellipse cx="33" cy="331.6172" fill="#84BE84" rx="3" ry="3" style="stroke:#038048;stroke-width:1.0;"/><text fill="#000000" font-family="sans-serif" font-size="14" lengthAdjust="spacing" textLength="62" x="42" y="334.9639">__init__()</text><ellipse cx="33" cy="347.9141" fill="#84BE84" rx="3" ry="3" style="stroke:#038048;stroke-width:1.0;"/><text fill="#000000" font-family="sans-serif" font-size="14" lengthAdjust="spacing" textLength="98" x="42" y="351.2607">CompCheck()</text><ellipse cx="33" cy="364.2109" fill="#84BE84" rx="3" ry="3" style="stroke:#038048;stroke-width:1.0;"/><text fill="#000000" font-family="sans-serif" font-size="14" lengthAdjust="spacing" textLength="137" x="42" y="367.5576">Update_list_ports()</text><ellipse cx="33" cy="380.5078" fill="#84BE84" rx="3" ry="3" style="stroke:#038048;stroke-width:1.0;"/><text fill="#000000" font-family="sans-serif" font-size="14" lengthAdjust="spacing" textLength="158" x="42" y="383.8545">Update_list_cameras()</text><ellipse cx="33" cy="396.8047" fill="#84BE84" rx="3" ry="3" style="stroke:#038048;stroke-width:1.0;"/><text fill="#000000" font-family="sans-serif" font-size="14" lengthAdjust="spacing" textLength="161" x="42" y="400.1514">Construct_Iluminator()</text><ellipse cx="33" cy="413.1016" fill="#84BE84" rx="3" ry="3" style="stroke:#038048;stroke-width:1.0;"/><text fill="#000000" font-family="sans-serif" font-size="14" lengthAdjust="spacing" textLength="143" x="42" y="416.4482">Construct_Camera()</text></g><!--MD5=[b30b89c9be870d0748b59b5419bf9590]
class QThread--><g id="elem_QThread"><rect fill="#F1F1F1" height="48" id="QThread" rx="2.5" ry="2.5" style="stroke:#181818;stroke-width:0.5;" width="93" x="324.5" y="7"/><ellipse cx="339.5" cy="23" fill="#ADD1B2" rx="11" ry="11" style="stroke:#181818;stroke-width:1.0;"/><path d="M341.8438,18.6719 C340.9063,18.2344 340.3125,18.0938 339.4375,18.0938 C336.8125,18.0938 334.8125,20.1719 334.8125,22.8906 L334.8125,24.0156 C334.8125,26.5938 336.9219,28.4844 339.8125,28.4844 C341.0313,28.4844 342.1875,28.1875 342.9375,27.6406 C343.5156,27.2344 343.8438,26.7813 343.8438,26.3906 C343.8438,25.9375 343.4531,25.5469 342.9844,25.5469 C342.7656,25.5469 342.5625,25.625 342.375,25.8125 C341.9219,26.2969 341.9219,26.2969 341.7344,26.3906 C341.3125,26.6563 340.625,26.7813 339.8594,26.7813 C337.8125,26.7813 336.5156,25.6875 336.5156,23.9844 L336.5156,22.8906 C336.5156,21.1094 337.7656,19.7969 339.5,19.7969 C340.0781,19.7969 340.6875,19.9531 341.1563,20.2031 C341.6406,20.4844 341.8125,20.7031 341.9063,21.1094 C341.9688,21.5156 342,21.6406 342.1406,21.7656 C342.2813,21.9063 342.5156,22.0156 342.7344,22.0156 C343,22.0156 343.2656,21.875 343.4375,21.6563 C343.5469,21.5 343.5781,21.3125 343.5781,20.8906 L343.5781,19.4688 C343.5781,19.0313 343.5625,18.9063 343.4688,18.75 C343.3125,18.4844 343.0313,18.3438 342.7344,18.3438 C342.4375,18.3438 342.2344,18.4375 342.0156,18.75 L341.8438,18.6719 Z " fill="#000000"/><text fill="#000000" font-family="sans-serif" font-size="14" lengthAdjust="spacing" textLength="61" x="353.5" y="27.8467">QThread</text><line style="stroke:#181818;stroke-width:0.5;" x1="325.5" x2="416.5" y1="39" y2="39"/><line style="stroke:#181818;stroke-width:0.5;" x1="325.5" x2="416.5" y1="47" y2="47"/></g><!--MD5=[96735f74439f8bd188c0eb7f006b1e5b]
reverse link QThread to Check_Connection_proces--><g id="link_QThread_Check_Connection_proces"><path codeLine="31" d="M371,75.489 C371,102.52 371,138.388 371,171.863 " fill="none" id="QThread-backto-Check_Connection_proces" style="stroke:#181818;stroke-width:1.0;"/><polygon fill="none" points="364,75.107,371,55.107,378,75.107,364,75.107" style="stroke:#181818;stroke-width:1.0;"/></g><!--MD5=[a4534510d680c192c0a309d39619d3f0]
@startuml
package Core_App {
  class Check_Connection_proces
  Check_Connection_proces : +__init__()
  Check_Connection_proces : +run()
  Check_Connection_proces : +Update_list_ports()
  Check_Connection_proces : +Update_list_cameras()
  class Core_App
  Core_App : +__init__()
  Core_App : +CompCheck()
  Core_App : +Update_list_ports()
  Core_App : +Update_list_cameras()
  Core_App : +Construct_Iluminator()
  Core_App : +Construct_Camera()
  Check_Connection_proces : +App
  Check_Connection_proces : +corona_error
  Check_Connection_proces : +camera_error
  Check_Connection_proces : +list_ports
  Check_Connection_proces : +list_cameras
  Core_App : +App
  Core_App : +Patch_Acquisition
  Core_App : +check
  Core_App : +timer
  Core_App : +iluminator_init
  Core_App : +camera_init
  Core_App : +list_ports
  Core_App : +list_cameras
  Core_App : +Iluminator_MultiSpectral
  Core_App : +Camera
}

QThread <|- - Check_Connection_proces
@enduml

PlantUML version 1.2022.13beta2(Unknown compile time)
(GPL source distribution)
Java Runtime: Java(TM) SE Runtime Environment
JVM: Java HotSpot(TM) 64-Bit Server VM
Default Encoding: UTF-8
Language: en
Country: US
--></g></svg>