<?xml version="1.0" encoding="UTF-8" standalone="no"?><svg xmlns="http://www.w3.org/2000/svg" xmlns:xlink="http://www.w3.org/1999/xlink" contentStyleType="text/css" height="454px" preserveAspectRatio="none" style="width:255px;height:454px;background:#FFFFFF;" version="1.1" viewBox="0 0 255 454" width="255px" zoomAndPan="magnify"><defs/><g><!--MD5=[281f3bb4718094af588e10add5c17ca0]
cluster Iluminator_MultiSpectral--><g id="cluster_Iluminator_MultiSpectral"><path d="M8.5,6 L211.5,6 A3.75,3.75 0 0 1 214,8.5 L221,28.2969 L245.5,28.2969 A2.5,2.5 0 0 1 248,30.7969 L248,444.5 A2.5,2.5 0 0 1 245.5,447 L8.5,447 A2.5,2.5 0 0 1 6,444.5 L6,8.5 A2.5,2.5 0 0 1 8.5,6 " fill="none" style="stroke:#000000;stroke-width:1.5;"/><line style="stroke:#000000;stroke-width:1.5;" x1="6" x2="221" y1="28.2969" y2="28.2969"/><text fill="#000000" font-family="sans-serif" font-size="14" font-weight="bold" lengthAdjust="spacing" textLength="202" x="10" y="20.9951">Iluminator_MultiSpectral</text></g><!--MD5=[341083328da1c5e7aa06f621f214d918]
class Iluminator_MultiSpectral--><g id="elem_Iluminator_MultiSpectral"><rect codeLine="2" fill="#F1F1F1" height="390.2344" id="Iluminator_MultiSpectral" rx="2.5" ry="2.5" style="stroke:#181818;stroke-width:0.5;" width="210" x="22" y="41"/><ellipse cx="37.9" cy="57" fill="#ADD1B2" rx="11" ry="11" style="stroke:#181818;stroke-width:1.0;"/><path d="M40.2438,52.6719 C39.3063,52.2344 38.7125,52.0938 37.8375,52.0938 C35.2125,52.0938 33.2125,54.1719 33.2125,56.8906 L33.2125,58.0156 C33.2125,60.5938 35.3219,62.4844 38.2125,62.4844 C39.4313,62.4844 40.5875,62.1875 41.3375,61.6406 C41.9156,61.2344 42.2438,60.7813 42.2438,60.3906 C42.2438,59.9375 41.8531,59.5469 41.3844,59.5469 C41.1656,59.5469 40.9625,59.625 40.775,59.8125 C40.3219,60.2969 40.3219,60.2969 40.1344,60.3906 C39.7125,60.6563 39.025,60.7813 38.2594,60.7813 C36.2125,60.7813 34.9156,59.6875 34.9156,57.9844 L34.9156,56.8906 C34.9156,55.1094 36.1656,53.7969 37.9,53.7969 C38.4781,53.7969 39.0875,53.9531 39.5563,54.2031 C40.0406,54.4844 40.2125,54.7031 40.3063,55.1094 C40.3688,55.5156 40.4,55.6406 40.5406,55.7656 C40.6813,55.9063 40.9156,56.0156 41.1344,56.0156 C41.4,56.0156 41.6656,55.875 41.8375,55.6563 C41.9469,55.5 41.9781,55.3125 41.9781,54.8906 L41.9781,53.4688 C41.9781,53.0313 41.9625,52.9063 41.8688,52.75 C41.7125,52.4844 41.4313,52.3438 41.1344,52.3438 C40.8375,52.3438 40.6344,52.4375 40.4156,52.75 L40.2438,52.6719 Z " fill="#000000"/><text fill="#000000" font-family="sans-serif" font-size="14" lengthAdjust="spacing" textLength="176" x="52.1" y="61.8467">Iluminator_MultiSpectral</text><line style="stroke:#181818;stroke-width:0.5;" x1="23" x2="231" y1="73" y2="73"/><rect fill="none" height="6" style="stroke:#C82930;stroke-width:1.0;" width="6" x="30" y="83.6484"/><text fill="#000000" font-family="sans-serif" font-size="14" lengthAdjust="spacing" textLength="95" x="42" y="89.9951">__timesleepc</text><rect fill="none" height="6" style="stroke:#C82930;stroke-width:1.0;" width="6" x="30" y="99.9453"/><text fill="#000000" font-family="sans-serif" font-size="14" lengthAdjust="spacing" textLength="80" x="42" y="106.292">__timeshot</text><rect fill="none" height="6" style="stroke:#C82930;stroke-width:1.0;" width="6" x="30" y="116.2422"/><text fill="#000000" font-family="sans-serif" font-size="14" lengthAdjust="spacing" textLength="89" x="42" y="122.5889">__correct_tx</text><rect fill="none" height="6" style="stroke:#C82930;stroke-width:1.0;" width="6" x="30" y="132.5391"/><text fill="#000000" font-family="sans-serif" font-size="14" lengthAdjust="spacing" textLength="111" x="42" y="138.8857">__comunication</text><rect fill="none" height="6" style="stroke:#C82930;stroke-width:1.0;" width="6" x="30" y="148.8359"/><text fill="#000000" font-family="sans-serif" font-size="14" lengthAdjust="spacing" textLength="156" x="42" y="155.1826">__comunication_state</text><rect fill="none" height="6" style="stroke:#C82930;stroke-width:1.0;" width="6" x="30" y="165.1328"/><text fill="#000000" font-family="sans-serif" font-size="14" lengthAdjust="spacing" textLength="43" x="42" y="171.4795">__leds</text><rect fill="none" height="6" style="stroke:#C82930;stroke-width:1.0;" width="6" x="30" y="181.4297"/><text fill="#000000" font-family="sans-serif" font-size="14" lengthAdjust="spacing" textLength="116" x="42" y="187.7764">__shot_message</text><line style="stroke:#181818;stroke-width:0.5;" x1="23" x2="231" y1="195.0781" y2="195.0781"/><ellipse cx="33" cy="208.7266" fill="#84BE84" rx="3" ry="3" style="stroke:#038048;stroke-width:1.0;"/><text fill="#000000" font-family="sans-serif" font-size="14" lengthAdjust="spacing" textLength="62" x="42" y="212.0732">__init__()</text><ellipse cx="33" cy="225.0234" fill="#84BE84" rx="3" ry="3" style="stroke:#038048;stroke-width:1.0;"/><text fill="#000000" font-family="sans-serif" font-size="14" lengthAdjust="spacing" textLength="55" x="42" y="228.3701">config()</text><ellipse cx="33" cy="241.3203" fill="#84BE84" rx="3" ry="3" style="stroke:#038048;stroke-width:1.0;"/><text fill="#000000" font-family="sans-serif" font-size="14" lengthAdjust="spacing" textLength="184" x="42" y="244.667">get_comunication_state()</text><ellipse cx="33" cy="257.6172" fill="#84BE84" rx="3" ry="3" style="stroke:#038048;stroke-width:1.0;"/><text fill="#000000" font-family="sans-serif" font-size="14" lengthAdjust="spacing" textLength="101" x="42" y="260.9639">set_shot_led()</text><ellipse cx="33" cy="273.9141" fill="#84BE84" rx="3" ry="3" style="stroke:#038048;stroke-width:1.0;"/><text fill="#000000" font-family="sans-serif" font-size="14" lengthAdjust="spacing" textLength="128" x="42" y="277.2607">set_time_sleepc()</text><ellipse cx="33" cy="290.2109" fill="#84BE84" rx="3" ry="3" style="stroke:#038048;stroke-width:1.0;"/><text fill="#000000" font-family="sans-serif" font-size="14" lengthAdjust="spacing" textLength="106" x="42" y="293.5576">set_timeshot()</text><ellipse cx="33" cy="306.5078" fill="#84BE84" rx="3" ry="3" style="stroke:#038048;stroke-width:1.0;"/><text fill="#000000" font-family="sans-serif" font-size="14" lengthAdjust="spacing" textLength="115" x="42" y="309.8545">set_PWM_Leds()</text><ellipse cx="33" cy="322.8047" fill="#84BE84" rx="3" ry="3" style="stroke:#038048;stroke-width:1.0;"/><text fill="#000000" font-family="sans-serif" font-size="14" lengthAdjust="spacing" textLength="69" x="42" y="326.1514">set_leds()</text><ellipse cx="33" cy="339.1016" fill="#84BE84" rx="3" ry="3" style="stroke:#038048;stroke-width:1.0;"/><text fill="#000000" font-family="sans-serif" font-size="14" lengthAdjust="spacing" textLength="142" x="42" y="342.4482">set_shot_message()</text><ellipse cx="33" cy="355.3984" fill="#84BE84" rx="3" ry="3" style="stroke:#038048;stroke-width:1.0;"/><text fill="#000000" font-family="sans-serif" font-size="14" lengthAdjust="spacing" textLength="115" x="42" y="358.7451">set_correct_tx()</text><ellipse cx="33" cy="371.6953" fill="#84BE84" rx="3" ry="3" style="stroke:#038048;stroke-width:1.0;"/><text fill="#000000" font-family="sans-serif" font-size="14" lengthAdjust="spacing" textLength="62" x="42" y="375.042">tx_msg()</text><ellipse cx="33" cy="387.9922" fill="#84BE84" rx="3" ry="3" style="stroke:#038048;stroke-width:1.0;"/><text fill="#000000" font-family="sans-serif" font-size="14" lengthAdjust="spacing" textLength="42" x="42" y="391.3389">shot()</text><ellipse cx="33" cy="404.2891" fill="#84BE84" rx="3" ry="3" style="stroke:#038048;stroke-width:1.0;"/><text fill="#000000" font-family="sans-serif" font-size="14" lengthAdjust="spacing" textLength="145" x="42" y="407.6357">shot_multispectral()</text><ellipse cx="33" cy="420.5859" fill="#84BE84" rx="3" ry="3" style="stroke:#038048;stroke-width:1.0;"/><text fill="#000000" font-family="sans-serif" font-size="14" lengthAdjust="spacing" textLength="60" x="42" y="423.9326">__del__()</text></g><!--MD5=[dca4ce6d4155acf3ffc8747433ff3621]
@startuml
package Iluminator_MultiSpectral {
  class Iluminator_MultiSpectral
  Iluminator_MultiSpectral : +__init__()
  Iluminator_MultiSpectral : +config()
  Iluminator_MultiSpectral : +get_comunication_state()
  Iluminator_MultiSpectral : +set_shot_led()
  Iluminator_MultiSpectral : +set_time_sleepc()
  Iluminator_MultiSpectral : +set_timeshot()
  Iluminator_MultiSpectral : +set_PWM_Leds()
  Iluminator_MultiSpectral : +set_leds()
  Iluminator_MultiSpectral : +set_shot_message()
  Iluminator_MultiSpectral : +set_correct_tx()
  Iluminator_MultiSpectral : +tx_msg()
  Iluminator_MultiSpectral : +shot()
  Iluminator_MultiSpectral : +shot_multispectral()
  Iluminator_MultiSpectral : +__del__()
  Iluminator_MultiSpectral : -__timesleepc
  Iluminator_MultiSpectral : -__timeshot
  Iluminator_MultiSpectral : -__correct_tx
  Iluminator_MultiSpectral : -__comunication
  Iluminator_MultiSpectral : -__comunication_state
  Iluminator_MultiSpectral : -__leds
  Iluminator_MultiSpectral : -__shot_message
}
@enduml

PlantUML version 1.2022.13beta2(Unknown compile time)
(GPL source distribution)
Java Runtime: Java(TM) SE Runtime Environment
JVM: Java HotSpot(TM) 64-Bit Server VM
Default Encoding: UTF-8
Language: en
Country: US
--></g></svg>