<?xml version="1.0" encoding="UTF-8" standalone="no"?><svg xmlns="http://www.w3.org/2000/svg" xmlns:xlink="http://www.w3.org/1999/xlink" contentStyleType="text/css" height="414px" preserveAspectRatio="none" style="width:289px;height:414px;background:#FFFFFF;" version="1.1" viewBox="0 0 289 414" width="289px" zoomAndPan="magnify"><defs/><g><!--MD5=[5319da33ceac95ddf1d5fced7ca1a2a0]
cluster Menu--><g id="cluster_Menu"><path d="M8.5,80 L52.5,80 A3.75,3.75 0 0 1 55,82.5 L62,102.2969 L279.5,102.2969 A2.5,2.5 0 0 1 282,104.7969 L282,404.5 A2.5,2.5 0 0 1 279.5,407 L8.5,407 A2.5,2.5 0 0 1 6,404.5 L6,82.5 A2.5,2.5 0 0 1 8.5,80 " fill="none" style="stroke:#000000;stroke-width:1.5;"/><line style="stroke:#000000;stroke-width:1.5;" x1="6" x2="62" y1="102.2969" y2="102.2969"/><text fill="#000000" font-family="sans-serif" font-size="14" font-weight="bold" lengthAdjust="spacing" textLength="43" x="10" y="94.9951">Menu</text></g><!--MD5=[f0268dd29ee89052933f031546cb1cab]
class Menu--><g id="elem_Menu"><rect codeLine="2" fill="#F1F1F1" height="276.1563" id="Menu" rx="2.5" ry="2.5" style="stroke:#181818;stroke-width:0.5;" width="244" x="22" y="115"/><ellipse cx="120.75" cy="131" fill="#ADD1B2" rx="11" ry="11" style="stroke:#181818;stroke-width:1.0;"/><path d="M123.0938,126.6719 C122.1563,126.2344 121.5625,126.0938 120.6875,126.0938 C118.0625,126.0938 116.0625,128.1719 116.0625,130.8906 L116.0625,132.0156 C116.0625,134.5938 118.1719,136.4844 121.0625,136.4844 C122.2813,136.4844 123.4375,136.1875 124.1875,135.6406 C124.7656,135.2344 125.0938,134.7813 125.0938,134.3906 C125.0938,133.9375 124.7031,133.5469 124.2344,133.5469 C124.0156,133.5469 123.8125,133.625 123.625,133.8125 C123.1719,134.2969 123.1719,134.2969 122.9844,134.3906 C122.5625,134.6563 121.875,134.7813 121.1094,134.7813 C119.0625,134.7813 117.7656,133.6875 117.7656,131.9844 L117.7656,130.8906 C117.7656,129.1094 119.0156,127.7969 120.75,127.7969 C121.3281,127.7969 121.9375,127.9531 122.4063,128.2031 C122.8906,128.4844 123.0625,128.7031 123.1563,129.1094 C123.2188,129.5156 123.25,129.6406 123.3906,129.7656 C123.5313,129.9063 123.7656,130.0156 123.9844,130.0156 C124.25,130.0156 124.5156,129.875 124.6875,129.6563 C124.7969,129.5 124.8281,129.3125 124.8281,128.8906 L124.8281,127.4688 C124.8281,127.0313 124.8125,126.9063 124.7188,126.75 C124.5625,126.4844 124.2813,126.3438 123.9844,126.3438 C123.6875,126.3438 123.4844,126.4375 123.2656,126.75 L123.0938,126.6719 Z " fill="#000000"/><text fill="#000000" font-family="sans-serif" font-size="14" lengthAdjust="spacing" textLength="38" x="141.25" y="135.8467">Menu</text><line style="stroke:#181818;stroke-width:0.5;" x1="23" x2="265" y1="147" y2="147"/><ellipse cx="33" cy="160.6484" fill="none" rx="3" ry="3" style="stroke:#038048;stroke-width:1.0;"/><text fill="#000000" font-family="sans-serif" font-size="14" lengthAdjust="spacing" textLength="30" x="42" y="163.9951">App</text><ellipse cx="33" cy="176.9453" fill="none" rx="3" ry="3" style="stroke:#038048;stroke-width:1.0;"/><text fill="#000000" font-family="sans-serif" font-size="14" lengthAdjust="spacing" textLength="128" x="42" y="180.292">LayoutV_principal</text><ellipse cx="33" cy="193.2422" fill="none" rx="3" ry="3" style="stroke:#038048;stroke-width:1.0;"/><text fill="#000000" font-family="sans-serif" font-size="14" lengthAdjust="spacing" textLength="130" x="42" y="196.5889">pb_menu_capture</text><ellipse cx="33" cy="209.5391" fill="none" rx="3" ry="3" style="stroke:#038048;stroke-width:1.0;"/><text fill="#000000" font-family="sans-serif" font-size="14" lengthAdjust="spacing" textLength="127" x="42" y="212.8857">pb_menu_camera</text><ellipse cx="33" cy="225.8359" fill="none" rx="3" ry="3" style="stroke:#038048;stroke-width:1.0;"/><text fill="#000000" font-family="sans-serif" font-size="14" lengthAdjust="spacing" textLength="147" x="42" y="229.1826">pb_menu_iluminator</text><ellipse cx="33" cy="242.1328" fill="none" rx="3" ry="3" style="stroke:#038048;stroke-width:1.0;"/><text fill="#000000" font-family="sans-serif" font-size="14" lengthAdjust="spacing" textLength="208" x="42" y="245.4795">pb_menu_colorReproduction</text><ellipse cx="33" cy="258.4297" fill="none" rx="3" ry="3" style="stroke:#038048;stroke-width:1.0;"/><text fill="#000000" font-family="sans-serif" font-size="14" lengthAdjust="spacing" textLength="133" x="42" y="261.7764">pb_menu_settings</text><ellipse cx="33" cy="274.7266" fill="none" rx="3" ry="3" style="stroke:#038048;stroke-width:1.0;"/><text fill="#000000" font-family="sans-serif" font-size="14" lengthAdjust="spacing" textLength="95" x="42" y="278.0732">spacer_menu</text><line style="stroke:#181818;stroke-width:0.5;" x1="23" x2="265" y1="285.375" y2="285.375"/><ellipse cx="33" cy="299.0234" fill="#84BE84" rx="3" ry="3" style="stroke:#038048;stroke-width:1.0;"/><text fill="#000000" font-family="sans-serif" font-size="14" lengthAdjust="spacing" textLength="62" x="42" y="302.3701">__init__()</text><ellipse cx="33" cy="315.3203" fill="#84BE84" rx="3" ry="3" style="stroke:#038048;stroke-width:1.0;"/><text fill="#000000" font-family="sans-serif" font-size="14" lengthAdjust="spacing" textLength="123" x="42" y="318.667">Structure_Menu()</text><ellipse cx="33" cy="331.6172" fill="#84BE84" rx="3" ry="3" style="stroke:#038048;stroke-width:1.0;"/><text fill="#000000" font-family="sans-serif" font-size="14" lengthAdjust="spacing" textLength="103" x="42" y="334.9639">Names_Menu()</text><ellipse cx="33" cy="347.9141" fill="#84BE84" rx="3" ry="3" style="stroke:#038048;stroke-width:1.0;"/><text fill="#000000" font-family="sans-serif" font-size="14" lengthAdjust="spacing" textLength="128" x="42" y="351.2607">Control_Buttons()</text><ellipse cx="33" cy="364.2109" fill="#84BE84" rx="3" ry="3" style="stroke:#038048;stroke-width:1.0;"/><text fill="#000000" font-family="sans-serif" font-size="14" lengthAdjust="spacing" textLength="218" x="42" y="367.5576">Control_pb_menu_iluminator()</text><ellipse cx="33" cy="380.5078" fill="#84BE84" rx="3" ry="3" style="stroke:#038048;stroke-width:1.0;"/><text fill="#000000" font-family="sans-serif" font-size="14" lengthAdjust="spacing" textLength="198" x="42" y="383.8545">Control_pb_menu_camera()</text></g><!--MD5=[0fdcf0f6c1d3e7ce80481602633b00b9]
class QFrame--><g id="elem_QFrame"><rect fill="#F1F1F1" height="48" id="QFrame" rx="2.5" ry="2.5" style="stroke:#181818;stroke-width:0.5;" width="88" x="100" y="7"/><ellipse cx="115" cy="23" fill="#ADD1B2" rx="11" ry="11" style="stroke:#181818;stroke-width:1.0;"/><path d="M117.3438,18.6719 C116.4063,18.2344 115.8125,18.0938 114.9375,18.0938 C112.3125,18.0938 110.3125,20.1719 110.3125,22.8906 L110.3125,24.0156 C110.3125,26.5938 112.4219,28.4844 115.3125,28.4844 C116.5313,28.4844 117.6875,28.1875 118.4375,27.6406 C119.0156,27.2344 119.3438,26.7813 119.3438,26.3906 C119.3438,25.9375 118.9531,25.5469 118.4844,25.5469 C118.2656,25.5469 118.0625,25.625 117.875,25.8125 C117.4219,26.2969 117.4219,26.2969 117.2344,26.3906 C116.8125,26.6563 116.125,26.7813 115.3594,26.7813 C113.3125,26.7813 112.0156,25.6875 112.0156,23.9844 L112.0156,22.8906 C112.0156,21.1094 113.2656,19.7969 115,19.7969 C115.5781,19.7969 116.1875,19.9531 116.6563,20.2031 C117.1406,20.4844 117.3125,20.7031 117.4063,21.1094 C117.4688,21.5156 117.5,21.6406 117.6406,21.7656 C117.7813,21.9063 118.0156,22.0156 118.2344,22.0156 C118.5,22.0156 118.7656,21.875 118.9375,21.6563 C119.0469,21.5 119.0781,21.3125 119.0781,20.8906 L119.0781,19.4688 C119.0781,19.0313 119.0625,18.9063 118.9688,18.75 C118.8125,18.4844 118.5313,18.3438 118.2344,18.3438 C117.9375,18.3438 117.7344,18.4375 117.5156,18.75 L117.3438,18.6719 Z " fill="#000000"/><text fill="#000000" font-family="sans-serif" font-size="14" lengthAdjust="spacing" textLength="56" x="129" y="27.8467">QFrame</text><line style="stroke:#181818;stroke-width:0.5;" x1="101" x2="187" y1="39" y2="39"/><line style="stroke:#181818;stroke-width:0.5;" x1="101" x2="187" y1="47" y2="47"/></g><!--MD5=[f87c53cafa8718a3fc67e98f8a412153]
reverse link QFrame to Menu--><g id="link_QFrame_Menu"><path codeLine="19" d="M144,75.579 C144,87.4 144,100.857 144,114.945 " fill="none" id="QFrame-backto-Menu" style="stroke:#181818;stroke-width:1.0;"/><polygon fill="none" points="137,75.128,144,55.128,151,75.128,137,75.128" style="stroke:#181818;stroke-width:1.0;"/></g><!--MD5=[465c1b0c92143d87b3fc83098a7616ab]
@startuml
package Menu {
  class Menu
  Menu : +__init__()
  Menu : +Structure_Menu()
  Menu : +Names_Menu()
  Menu : +Control_Buttons()
  Menu : +Control_pb_menu_iluminator()
  Menu : +Control_pb_menu_camera()
  Menu : +App
  Menu : +LayoutV_principal
  Menu : +pb_menu_capture
  Menu : +pb_menu_camera
  Menu : +pb_menu_iluminator
  Menu : +pb_menu_colorReproduction
  Menu : +pb_menu_settings
  Menu : +spacer_menu
}

QFrame <|- - Menu
@enduml

PlantUML version 1.2022.13beta2(Unknown compile time)
(GPL source distribution)
Java Runtime: Java(TM) SE Runtime Environment
JVM: Java HotSpot(TM) 64-Bit Server VM
Default Encoding: UTF-8
Language: en
Country: US
--></g></svg>