<?xml version="1.0" encoding="UTF-8" standalone="no"?><svg xmlns="http://www.w3.org/2000/svg" xmlns:xlink="http://www.w3.org/1999/xlink" contentStyleType="text/css" height="316px" preserveAspectRatio="none" style="width:347px;height:316px;background:#FFFFFF;" version="1.1" viewBox="0 0 347 316" width="347px" zoomAndPan="magnify"><defs/><g><!--MD5=[87216f9a1bed869d358b71dfa2ead15b]
cluster MultiespectralCrown--><g id="cluster_MultiespectralCrown"><path d="M8.5,80 L177.5,80 A3.75,3.75 0 0 1 180,82.5 L187,102.2969 L337.5,102.2969 A2.5,2.5 0 0 1 340,104.7969 L340,306.5 A2.5,2.5 0 0 1 337.5,309 L8.5,309 A2.5,2.5 0 0 1 6,306.5 L6,82.5 A2.5,2.5 0 0 1 8.5,80 " fill="none" style="stroke:#000000;stroke-width:1.5;"/><line style="stroke:#000000;stroke-width:1.5;" x1="6" x2="187" y1="102.2969" y2="102.2969"/><text fill="#000000" font-family="sans-serif" font-size="14" font-weight="bold" lengthAdjust="spacing" textLength="168" x="10" y="94.9951">MultiespectralCrown</text></g><!--MD5=[4c8370ac059749db88dcdb385094a784]
class MultiSpectral_Crown--><g id="elem_MultiSpectral_Crown"><rect codeLine="2" fill="#F1F1F1" height="178.375" id="MultiSpectral_Crown" rx="2.5" ry="2.5" style="stroke:#181818;stroke-width:0.5;" width="302" x="22" y="115"/><ellipse cx="94.75" cy="131" fill="#ADD1B2" rx="11" ry="11" style="stroke:#181818;stroke-width:1.0;"/><path d="M97.0938,126.6719 C96.1563,126.2344 95.5625,126.0938 94.6875,126.0938 C92.0625,126.0938 90.0625,128.1719 90.0625,130.8906 L90.0625,132.0156 C90.0625,134.5938 92.1719,136.4844 95.0625,136.4844 C96.2813,136.4844 97.4375,136.1875 98.1875,135.6406 C98.7656,135.2344 99.0938,134.7813 99.0938,134.3906 C99.0938,133.9375 98.7031,133.5469 98.2344,133.5469 C98.0156,133.5469 97.8125,133.625 97.625,133.8125 C97.1719,134.2969 97.1719,134.2969 96.9844,134.3906 C96.5625,134.6563 95.875,134.7813 95.1094,134.7813 C93.0625,134.7813 91.7656,133.6875 91.7656,131.9844 L91.7656,130.8906 C91.7656,129.1094 93.0156,127.7969 94.75,127.7969 C95.3281,127.7969 95.9375,127.9531 96.4063,128.2031 C96.8906,128.4844 97.0625,128.7031 97.1563,129.1094 C97.2188,129.5156 97.25,129.6406 97.3906,129.7656 C97.5313,129.9063 97.7656,130.0156 97.9844,130.0156 C98.25,130.0156 98.5156,129.875 98.6875,129.6563 C98.7969,129.5 98.8281,129.3125 98.8281,128.8906 L98.8281,127.4688 C98.8281,127.0313 98.8125,126.9063 98.7188,126.75 C98.5625,126.4844 98.2813,126.3438 97.9844,126.3438 C97.6875,126.3438 97.4844,126.4375 97.2656,126.75 L97.0938,126.6719 Z " fill="#000000"/><text fill="#000000" font-family="sans-serif" font-size="14" lengthAdjust="spacing" textLength="148" x="115.25" y="135.8467">MultiSpectral_Crown</text><line style="stroke:#181818;stroke-width:0.5;" x1="23" x2="323" y1="147" y2="147"/><rect fill="none" height="6" style="stroke:#C82930;stroke-width:1.0;" width="6" x="30" y="157.6484"/><text fill="#000000" font-family="sans-serif" font-size="14" lengthAdjust="spacing" textLength="80" x="42" y="163.9951">__timeshot</text><ellipse cx="33" cy="176.9453" fill="none" rx="3" ry="3" style="stroke:#038048;stroke-width:1.0;"/><text fill="#000000" font-family="sans-serif" font-size="14" lengthAdjust="spacing" textLength="93" x="42" y="180.292">Wavelengths</text><rect fill="none" height="6" style="stroke:#C82930;stroke-width:1.0;" width="6" x="30" y="190.2422"/><text fill="#000000" font-family="sans-serif" font-size="14" lengthAdjust="spacing" textLength="94" x="42" y="196.5889">__shot_mode</text><rect fill="none" height="6" style="stroke:#C82930;stroke-width:1.0;" width="6" x="30" y="206.5391"/><text fill="#000000" font-family="sans-serif" font-size="14" lengthAdjust="spacing" textLength="144" x="42" y="212.8857">__shot_time_trigger</text><rect fill="none" height="6" style="stroke:#C82930;stroke-width:1.0;" width="6" x="30" y="222.8359"/><text fill="#000000" font-family="sans-serif" font-size="14" lengthAdjust="spacing" textLength="128" x="42" y="229.1826">__shot_time_flash</text><rect fill="none" height="6" style="stroke:#C82930;stroke-width:1.0;" width="6" x="30" y="239.1328"/><text fill="#000000" font-family="sans-serif" font-size="14" lengthAdjust="spacing" textLength="152" x="42" y="245.4795">__shot_time_timeout</text><line style="stroke:#181818;stroke-width:0.5;" x1="23" x2="323" y1="252.7813" y2="252.7813"/><ellipse cx="33" cy="266.4297" fill="#84BE84" rx="3" ry="3" style="stroke:#038048;stroke-width:1.0;"/><text fill="#000000" font-family="sans-serif" font-size="14" lengthAdjust="spacing" textLength="62" x="42" y="269.7764">__init__()</text><ellipse cx="33" cy="282.7266" fill="#84BE84" rx="3" ry="3" style="stroke:#038048;stroke-width:1.0;"/><text fill="#000000" font-family="sans-serif" font-size="14" lengthAdjust="spacing" textLength="276" x="42" y="286.0732">set_shot_time_trigger_flash_timeout()</text></g><!--MD5=[341083328da1c5e7aa06f621f214d918]
class Iluminator_MultiSpectral--><g id="elem_Iluminator_MultiSpectral"><rect fill="#F1F1F1" height="48" id="Iluminator_MultiSpectral" rx="2.5" ry="2.5" style="stroke:#181818;stroke-width:0.5;" width="208" x="69" y="7"/><ellipse cx="84" cy="23" fill="#ADD1B2" rx="11" ry="11" style="stroke:#181818;stroke-width:1.0;"/><path d="M86.3438,18.6719 C85.4063,18.2344 84.8125,18.0938 83.9375,18.0938 C81.3125,18.0938 79.3125,20.1719 79.3125,22.8906 L79.3125,24.0156 C79.3125,26.5938 81.4219,28.4844 84.3125,28.4844 C85.5313,28.4844 86.6875,28.1875 87.4375,27.6406 C88.0156,27.2344 88.3438,26.7813 88.3438,26.3906 C88.3438,25.9375 87.9531,25.5469 87.4844,25.5469 C87.2656,25.5469 87.0625,25.625 86.875,25.8125 C86.4219,26.2969 86.4219,26.2969 86.2344,26.3906 C85.8125,26.6563 85.125,26.7813 84.3594,26.7813 C82.3125,26.7813 81.0156,25.6875 81.0156,23.9844 L81.0156,22.8906 C81.0156,21.1094 82.2656,19.7969 84,19.7969 C84.5781,19.7969 85.1875,19.9531 85.6563,20.2031 C86.1406,20.4844 86.3125,20.7031 86.4063,21.1094 C86.4688,21.5156 86.5,21.6406 86.6406,21.7656 C86.7813,21.9063 87.0156,22.0156 87.2344,22.0156 C87.5,22.0156 87.7656,21.875 87.9375,21.6563 C88.0469,21.5 88.0781,21.3125 88.0781,20.8906 L88.0781,19.4688 C88.0781,19.0313 88.0625,18.9063 87.9688,18.75 C87.8125,18.4844 87.5313,18.3438 87.2344,18.3438 C86.9375,18.3438 86.7344,18.4375 86.5156,18.75 L86.3438,18.6719 Z " fill="#000000"/><text fill="#000000" font-family="sans-serif" font-size="14" lengthAdjust="spacing" textLength="176" x="98" y="27.8467">Iluminator_MultiSpectral</text><line style="stroke:#181818;stroke-width:0.5;" x1="70" x2="276" y1="39" y2="39"/><line style="stroke:#181818;stroke-width:0.5;" x1="70" x2="276" y1="47" y2="47"/></g><!--MD5=[d530b71e93493bbb543d7a275af1a076]
reverse link Iluminator_MultiSpectral to MultiSpectral_Crown--><g id="link_Iluminator_MultiSpectral_MultiSpectral_Crown"><path codeLine="13" d="M173,75.446 C173,87.5 173,101.04 173,114.675 " fill="none" id="Iluminator_MultiSpectral-backto-MultiSpectral_Crown" style="stroke:#181818;stroke-width:1.0;"/><polygon fill="none" points="166,75.062,173,55.062,180,75.062,166,75.062" style="stroke:#181818;stroke-width:1.0;"/></g><!--MD5=[54763b1ffd376bfd485c88ee5c0a467a]
@startuml
package MultiespectralCrown {
  class MultiSpectral_Crown
  MultiSpectral_Crown : +__init__()
  MultiSpectral_Crown : +set_shot_time_trigger_flash_timeout()
  MultiSpectral_Crown : -__timeshot
  MultiSpectral_Crown : +Wavelengths
  MultiSpectral_Crown : -__shot_mode
  MultiSpectral_Crown : -__shot_time_trigger
  MultiSpectral_Crown : -__shot_time_flash
  MultiSpectral_Crown : -__shot_time_timeout
}

Iluminator_MultiSpectral <|- - MultiSpectral_Crown
@enduml

PlantUML version 1.2022.13beta2(Unknown compile time)
(GPL source distribution)
Java Runtime: Java(TM) SE Runtime Environment
JVM: Java HotSpot(TM) 64-Bit Server VM
Default Encoding: UTF-8
Language: en
Country: US
--></g></svg>