<?xml version="1.0" encoding="UTF-8" standalone="no"?><svg xmlns="http://www.w3.org/2000/svg" xmlns:xlink="http://www.w3.org/1999/xlink" contentStyleType="text/css" height="1001px" preserveAspectRatio="none" style="width:283px;height:1001px;background:#FFFFFF;" version="1.1" viewBox="0 0 283 1001" width="283px" zoomAndPan="magnify"><defs/><g><!--MD5=[689967b43a47b17f87f24ddf5028ec90]
cluster Page_Camera--><g id="cluster_Page_Camera"><path d="M8.5,80 L116.5,80 A3.75,3.75 0 0 1 119,82.5 L126,102.2969 L273.5,102.2969 A2.5,2.5 0 0 1 276,104.7969 L276,991.5 A2.5,2.5 0 0 1 273.5,994 L8.5,994 A2.5,2.5 0 0 1 6,991.5 L6,82.5 A2.5,2.5 0 0 1 8.5,80 " fill="none" style="stroke:#000000;stroke-width:1.5;"/><line style="stroke:#000000;stroke-width:1.5;" x1="6" x2="126" y1="102.2969" y2="102.2969"/><text fill="#000000" font-family="sans-serif" font-size="14" font-weight="bold" lengthAdjust="spacing" textLength="107" x="10" y="94.9951">Page_Camera</text></g><!--MD5=[0552d97462c0d8f91ab6466fab073222]
class Page_Camera--><g id="elem_Page_Camera"><rect codeLine="2" fill="#F1F1F1" height="862.8438" id="Page_Camera" rx="2.5" ry="2.5" style="stroke:#181818;stroke-width:0.5;" width="237" x="22.5" y="115"/><ellipse cx="88.25" cy="131" fill="#ADD1B2" rx="11" ry="11" style="stroke:#181818;stroke-width:1.0;"/><path d="M90.5938,126.6719 C89.6563,126.2344 89.0625,126.0938 88.1875,126.0938 C85.5625,126.0938 83.5625,128.1719 83.5625,130.8906 L83.5625,132.0156 C83.5625,134.5938 85.6719,136.4844 88.5625,136.4844 C89.7813,136.4844 90.9375,136.1875 91.6875,135.6406 C92.2656,135.2344 92.5938,134.7813 92.5938,134.3906 C92.5938,133.9375 92.2031,133.5469 91.7344,133.5469 C91.5156,133.5469 91.3125,133.625 91.125,133.8125 C90.6719,134.2969 90.6719,134.2969 90.4844,134.3906 C90.0625,134.6563 89.375,134.7813 88.6094,134.7813 C86.5625,134.7813 85.2656,133.6875 85.2656,131.9844 L85.2656,130.8906 C85.2656,129.1094 86.5156,127.7969 88.25,127.7969 C88.8281,127.7969 89.4375,127.9531 89.9063,128.2031 C90.3906,128.4844 90.5625,128.7031 90.6563,129.1094 C90.7188,129.5156 90.75,129.6406 90.8906,129.7656 C91.0313,129.9063 91.2656,130.0156 91.4844,130.0156 C91.75,130.0156 92.0156,129.875 92.1875,129.6563 C92.2969,129.5 92.3281,129.3125 92.3281,128.8906 L92.3281,127.4688 C92.3281,127.0313 92.3125,126.9063 92.2188,126.75 C92.0625,126.4844 91.7813,126.3438 91.4844,126.3438 C91.1875,126.3438 90.9844,126.4375 90.7656,126.75 L90.5938,126.6719 Z " fill="#000000"/><text fill="#000000" font-family="sans-serif" font-size="14" lengthAdjust="spacing" textLength="97" x="108.75" y="135.8467">Page_Camera</text><line style="stroke:#181818;stroke-width:0.5;" x1="23.5" x2="258.5" y1="147" y2="147"/><ellipse cx="33.5" cy="160.6484" fill="none" rx="3" ry="3" style="stroke:#038048;stroke-width:1.0;"/><text fill="#000000" font-family="sans-serif" font-size="14" lengthAdjust="spacing" textLength="30" x="42.5" y="163.9951">App</text><ellipse cx="33.5" cy="176.9453" fill="none" rx="3" ry="3" style="stroke:#038048;stroke-width:1.0;"/><text fill="#000000" font-family="sans-serif" font-size="14" lengthAdjust="spacing" textLength="127" x="42.5" y="180.292">LayoutV_Principal</text><ellipse cx="33.5" cy="193.2422" fill="none" rx="3" ry="3" style="stroke:#038048;stroke-width:1.0;"/><text fill="#000000" font-family="sans-serif" font-size="14" lengthAdjust="spacing" textLength="125" x="42.5" y="196.5889">lb_title_page_sca</text><ellipse cx="33.5" cy="209.5391" fill="none" rx="3" ry="3" style="stroke:#038048;stroke-width:1.0;"/><text fill="#000000" font-family="sans-serif" font-size="14" lengthAdjust="spacing" textLength="146" x="42.5" y="212.8857">fm_settings_camera</text><ellipse cx="33.5" cy="225.8359" fill="none" rx="3" ry="3" style="stroke:#038048;stroke-width:1.0;"/><text fill="#000000" font-family="sans-serif" font-size="14" lengthAdjust="spacing" textLength="211" x="42.5" y="229.1826">LayoutH_fm_settings_camera</text><ellipse cx="33.5" cy="242.1328" fill="none" rx="3" ry="3" style="stroke:#038048;stroke-width:1.0;"/><text fill="#000000" font-family="sans-serif" font-size="14" lengthAdjust="spacing" textLength="114" x="42.5" y="245.4795">fm_buttons_sca</text><ellipse cx="33.5" cy="258.4297" fill="none" rx="3" ry="3" style="stroke:#038048;stroke-width:1.0;"/><text fill="#000000" font-family="sans-serif" font-size="14" lengthAdjust="spacing" textLength="179" x="42.5" y="261.7764">LayoutV_fm_buttons_sca</text><ellipse cx="33.5" cy="274.7266" fill="none" rx="3" ry="3" style="stroke:#038048;stroke-width:1.0;"/><text fill="#000000" font-family="sans-serif" font-size="14" lengthAdjust="spacing" textLength="180" x="42.5" y="278.0732">LayoutG_fm_buttons_sca</text><ellipse cx="33.5" cy="291.0234" fill="none" rx="3" ry="3" style="stroke:#038048;stroke-width:1.0;"/><text fill="#000000" font-family="sans-serif" font-size="14" lengthAdjust="spacing" textLength="59" x="42.5" y="294.3701">label_21</text><ellipse cx="33.5" cy="307.3203" fill="none" rx="3" ry="3" style="stroke:#038048;stroke-width:1.0;"/><text fill="#000000" font-family="sans-serif" font-size="14" lengthAdjust="spacing" textLength="60" x="42.5" y="310.667">label_19</text><ellipse cx="33.5" cy="323.6172" fill="none" rx="3" ry="3" style="stroke:#038048;stroke-width:1.0;"/><text fill="#000000" font-family="sans-serif" font-size="14" lengthAdjust="spacing" textLength="58" x="42.5" y="326.9639">label_22</text><ellipse cx="33.5" cy="339.9141" fill="none" rx="3" ry="3" style="stroke:#038048;stroke-width:1.0;"/><text fill="#000000" font-family="sans-serif" font-size="14" lengthAdjust="spacing" textLength="60" x="42.5" y="343.2607">label_13</text><ellipse cx="33.5" cy="356.2109" fill="none" rx="3" ry="3" style="stroke:#038048;stroke-width:1.0;"/><text fill="#000000" font-family="sans-serif" font-size="14" lengthAdjust="spacing" textLength="51" x="42.5" y="359.5576">label_6</text><ellipse cx="33.5" cy="372.5078" fill="none" rx="3" ry="3" style="stroke:#038048;stroke-width:1.0;"/><text fill="#000000" font-family="sans-serif" font-size="14" lengthAdjust="spacing" textLength="51" x="42.5" y="375.8545">label_3</text><ellipse cx="33.5" cy="388.8047" fill="none" rx="3" ry="3" style="stroke:#038048;stroke-width:1.0;"/><text fill="#000000" font-family="sans-serif" font-size="14" lengthAdjust="spacing" textLength="73" x="42.5" y="392.1514">le_gamma</text><ellipse cx="33.5" cy="405.1016" fill="none" rx="3" ry="3" style="stroke:#038048;stroke-width:1.0;"/><text fill="#000000" font-family="sans-serif" font-size="14" lengthAdjust="spacing" textLength="97" x="42.5" y="408.4482">le_blackLevel</text><ellipse cx="33.5" cy="421.3984" fill="none" rx="3" ry="3" style="stroke:#038048;stroke-width:1.0;"/><text fill="#000000" font-family="sans-serif" font-size="14" lengthAdjust="spacing" textLength="59" x="42.5" y="424.7451">label_14</text><ellipse cx="33.5" cy="437.6953" fill="none" rx="3" ry="3" style="stroke:#038048;stroke-width:1.0;"/><text fill="#000000" font-family="sans-serif" font-size="14" lengthAdjust="spacing" textLength="60" x="42.5" y="441.042">label_16</text><ellipse cx="33.5" cy="453.9922" fill="none" rx="3" ry="3" style="stroke:#038048;stroke-width:1.0;"/><text fill="#000000" font-family="sans-serif" font-size="14" lengthAdjust="spacing" textLength="50" x="42.5" y="457.3389">le_gain</text><ellipse cx="33.5" cy="470.2891" fill="none" rx="3" ry="3" style="stroke:#038048;stroke-width:1.0;"/><text fill="#000000" font-family="sans-serif" font-size="14" lengthAdjust="spacing" textLength="60" x="42.5" y="473.6357">label_15</text><ellipse cx="33.5" cy="486.5859" fill="none" rx="3" ry="3" style="stroke:#038048;stroke-width:1.0;"/><text fill="#000000" font-family="sans-serif" font-size="14" lengthAdjust="spacing" textLength="92" x="42.5" y="489.9326">le_sharpness</text><ellipse cx="33.5" cy="502.8828" fill="none" rx="3" ry="3" style="stroke:#038048;stroke-width:1.0;"/><text fill="#000000" font-family="sans-serif" font-size="14" lengthAdjust="spacing" textLength="60" x="42.5" y="506.2295">label_17</text><ellipse cx="33.5" cy="519.1797" fill="none" rx="3" ry="3" style="stroke:#038048;stroke-width:1.0;"/><text fill="#000000" font-family="sans-serif" font-size="14" lengthAdjust="spacing" textLength="104" x="42.5" y="522.5264">lb_sca_camera</text><ellipse cx="33.5" cy="535.4766" fill="none" rx="3" ry="3" style="stroke:#038048;stroke-width:1.0;"/><text fill="#000000" font-family="sans-serif" font-size="14" lengthAdjust="spacing" textLength="59" x="42.5" y="538.8232">label_18</text><ellipse cx="33.5" cy="551.7734" fill="none" rx="3" ry="3" style="stroke:#038048;stroke-width:1.0;"/><text fill="#000000" font-family="sans-serif" font-size="14" lengthAdjust="spacing" textLength="59" x="42.5" y="555.1201">label_20</text><ellipse cx="33.5" cy="568.0703" fill="none" rx="3" ry="3" style="stroke:#038048;stroke-width:1.0;"/><text fill="#000000" font-family="sans-serif" font-size="14" lengthAdjust="spacing" textLength="59" x="42.5" y="571.417">label_23</text><ellipse cx="33.5" cy="584.3672" fill="none" rx="3" ry="3" style="stroke:#038048;stroke-width:1.0;"/><text fill="#000000" font-family="sans-serif" font-size="14" lengthAdjust="spacing" textLength="86" x="42.5" y="587.7139">le_exposure</text><ellipse cx="33.5" cy="600.6641" fill="none" rx="3" ry="3" style="stroke:#038048;stroke-width:1.0;"/><text fill="#000000" font-family="sans-serif" font-size="14" lengthAdjust="spacing" textLength="104" x="42.5" y="604.0107">le_bufferMode</text><ellipse cx="33.5" cy="616.9609" fill="none" rx="3" ry="3" style="stroke:#038048;stroke-width:1.0;"/><text fill="#000000" font-family="sans-serif" font-size="14" lengthAdjust="spacing" textLength="108" x="42.5" y="620.3076">le_bufferCount</text><ellipse cx="33.5" cy="633.2578" fill="none" rx="3" ry="3" style="stroke:#038048;stroke-width:1.0;"/><text fill="#000000" font-family="sans-serif" font-size="14" lengthAdjust="spacing" textLength="166" x="42.5" y="636.6045">le_bufferHandlingMode</text><ellipse cx="33.5" cy="649.5547" fill="none" rx="3" ry="3" style="stroke:#038048;stroke-width:1.0;"/><text fill="#000000" font-family="sans-serif" font-size="14" lengthAdjust="spacing" textLength="89" x="42.5" y="652.9014">cb_gainAuto</text><ellipse cx="33.5" cy="665.8516" fill="none" rx="3" ry="3" style="stroke:#038048;stroke-width:1.0;"/><text fill="#000000" font-family="sans-serif" font-size="14" lengthAdjust="spacing" textLength="131" x="42.5" y="669.1982">cb_sharpnessAuto</text><ellipse cx="33.5" cy="682.1484" fill="none" rx="3" ry="3" style="stroke:#038048;stroke-width:1.0;"/><text fill="#000000" font-family="sans-serif" font-size="14" lengthAdjust="spacing" textLength="125" x="42.5" y="685.4951">cb_exposureAuto</text><ellipse cx="33.5" cy="698.4453" fill="none" rx="3" ry="3" style="stroke:#038048;stroke-width:1.0;"/><text fill="#000000" font-family="sans-serif" font-size="14" lengthAdjust="spacing" textLength="114" x="42.5" y="701.792">cb_triggerMode</text><ellipse cx="33.5" cy="714.7422" fill="none" rx="3" ry="3" style="stroke:#038048;stroke-width:1.0;"/><text fill="#000000" font-family="sans-serif" font-size="14" lengthAdjust="spacing" textLength="119" x="42.5" y="718.0889">verticalSpacer_2</text><ellipse cx="33.5" cy="731.0391" fill="none" rx="3" ry="3" style="stroke:#038048;stroke-width:1.0;"/><text fill="#000000" font-family="sans-serif" font-size="14" lengthAdjust="spacing" textLength="153" x="42.5" y="734.3857">pb_sca_configuration</text><ellipse cx="33.5" cy="747.3359" fill="none" rx="3" ry="3" style="stroke:#038048;stroke-width:1.0;"/><text fill="#000000" font-family="sans-serif" font-size="14" lengthAdjust="spacing" textLength="111" x="42.5" y="750.6826">fm_init_camera</text><ellipse cx="33.5" cy="763.6328" fill="none" rx="3" ry="3" style="stroke:#038048;stroke-width:1.0;"/><text fill="#000000" font-family="sans-serif" font-size="14" lengthAdjust="spacing" textLength="144" x="42.5" y="766.9795">gridLayoutWidget_3</text><ellipse cx="33.5" cy="779.9297" fill="none" rx="3" ry="3" style="stroke:#038048;stroke-width:1.0;"/><text fill="#000000" font-family="sans-serif" font-size="14" lengthAdjust="spacing" textLength="91" x="42.5" y="783.2764">gridLayout_4</text><ellipse cx="33.5" cy="796.2266" fill="none" rx="3" ry="3" style="stroke:#038048;stroke-width:1.0;"/><text fill="#000000" font-family="sans-serif" font-size="14" lengthAdjust="spacing" textLength="105" x="42.5" y="799.5732">lb_init_camera</text><ellipse cx="33.5" cy="812.5234" fill="none" rx="3" ry="3" style="stroke:#038048;stroke-width:1.0;"/><text fill="#000000" font-family="sans-serif" font-size="14" lengthAdjust="spacing" textLength="109" x="42.5" y="815.8701">cb_listCameras</text><ellipse cx="33.5" cy="828.8203" fill="none" rx="3" ry="3" style="stroke:#038048;stroke-width:1.0;"/><text fill="#000000" font-family="sans-serif" font-size="14" lengthAdjust="spacing" textLength="120" x="42.5" y="832.167">lb_init_camera_2</text><ellipse cx="33.5" cy="845.1172" fill="none" rx="3" ry="3" style="stroke:#038048;stroke-width:1.0;"/><text fill="#000000" font-family="sans-serif" font-size="14" lengthAdjust="spacing" textLength="111" x="42.5" y="848.4639">pb_init_camera</text><ellipse cx="33.5" cy="861.4141" fill="none" rx="3" ry="3" style="stroke:#038048;stroke-width:1.0;"/><text fill="#000000" font-family="sans-serif" font-size="14" lengthAdjust="spacing" textLength="148" x="42.5" y="864.7607">lb_init_camera_error</text><ellipse cx="33.5" cy="877.7109" fill="none" rx="3" ry="3" style="stroke:#038048;stroke-width:1.0;"/><text fill="#000000" font-family="sans-serif" font-size="14" lengthAdjust="spacing" textLength="84" x="42.5" y="881.0576">camera_init</text><line style="stroke:#181818;stroke-width:0.5;" x1="23.5" x2="258.5" y1="888.3594" y2="888.3594"/><ellipse cx="33.5" cy="902.0078" fill="#84BE84" rx="3" ry="3" style="stroke:#038048;stroke-width:1.0;"/><text fill="#000000" font-family="sans-serif" font-size="14" lengthAdjust="spacing" textLength="62" x="42.5" y="905.3545">__init__()</text><ellipse cx="33.5" cy="918.3047" fill="#84BE84" rx="3" ry="3" style="stroke:#038048;stroke-width:1.0;"/><text fill="#000000" font-family="sans-serif" font-size="14" lengthAdjust="spacing" textLength="120" x="42.5" y="921.6514">Structure_Page()</text><ellipse cx="33.5" cy="934.6016" fill="#84BE84" rx="3" ry="3" style="stroke:#038048;stroke-width:1.0;"/><text fill="#000000" font-family="sans-serif" font-size="14" lengthAdjust="spacing" textLength="100" x="42.5" y="937.9482">Names_Page()</text><ellipse cx="33.5" cy="950.8984" fill="#84BE84" rx="3" ry="3" style="stroke:#038048;stroke-width:1.0;"/><text fill="#000000" font-family="sans-serif" font-size="14" lengthAdjust="spacing" textLength="128" x="42.5" y="954.2451">Control_Buttons()</text><ellipse cx="33.5" cy="967.1953" fill="#84BE84" rx="3" ry="3" style="stroke:#038048;stroke-width:1.0;"/><text fill="#000000" font-family="sans-serif" font-size="14" lengthAdjust="spacing" textLength="182" x="42.5" y="970.542">Control_pb_init_camera()</text></g><!--MD5=[3e3f16721f1fb369e45a968cb01568b2]
class QWidget--><g id="elem_QWidget"><rect fill="#F1F1F1" height="48" id="QWidget" rx="2.5" ry="2.5" style="stroke:#181818;stroke-width:0.5;" width="95" x="93.5" y="7"/><ellipse cx="108.5" cy="23" fill="#ADD1B2" rx="11" ry="11" style="stroke:#181818;stroke-width:1.0;"/><path d="M110.8438,18.6719 C109.9063,18.2344 109.3125,18.0938 108.4375,18.0938 C105.8125,18.0938 103.8125,20.1719 103.8125,22.8906 L103.8125,24.0156 C103.8125,26.5938 105.9219,28.4844 108.8125,28.4844 C110.0313,28.4844 111.1875,28.1875 111.9375,27.6406 C112.5156,27.2344 112.8438,26.7813 112.8438,26.3906 C112.8438,25.9375 112.4531,25.5469 111.9844,25.5469 C111.7656,25.5469 111.5625,25.625 111.375,25.8125 C110.9219,26.2969 110.9219,26.2969 110.7344,26.3906 C110.3125,26.6563 109.625,26.7813 108.8594,26.7813 C106.8125,26.7813 105.5156,25.6875 105.5156,23.9844 L105.5156,22.8906 C105.5156,21.1094 106.7656,19.7969 108.5,19.7969 C109.0781,19.7969 109.6875,19.9531 110.1563,20.2031 C110.6406,20.4844 110.8125,20.7031 110.9063,21.1094 C110.9688,21.5156 111,21.6406 111.1406,21.7656 C111.2813,21.9063 111.5156,22.0156 111.7344,22.0156 C112,22.0156 112.2656,21.875 112.4375,21.6563 C112.5469,21.5 112.5781,21.3125 112.5781,20.8906 L112.5781,19.4688 C112.5781,19.0313 112.5625,18.9063 112.4688,18.75 C112.3125,18.4844 112.0313,18.3438 111.7344,18.3438 C111.4375,18.3438 111.2344,18.4375 111.0156,18.75 L110.8438,18.6719 Z " fill="#000000"/><text fill="#000000" font-family="sans-serif" font-size="14" lengthAdjust="spacing" textLength="63" x="122.5" y="27.8467">QWidget</text><line style="stroke:#181818;stroke-width:0.5;" x1="94.5" x2="187.5" y1="39" y2="39"/><line style="stroke:#181818;stroke-width:0.5;" x1="94.5" x2="187.5" y1="47" y2="47"/></g><!--MD5=[d00d9df10eacd06e5ed88ca7f14730e1]
reverse link QWidget to Page_Camera--><g id="link_QWidget_Page_Camera"><path codeLine="55" d="M141,75.085 C141,86.485 141,99.787 141,114.541 " fill="none" id="QWidget-backto-Page_Camera" style="stroke:#181818;stroke-width:1.0;"/><polygon fill="none" points="134,75.062,141,55.062,148,75.062,134,75.062" style="stroke:#181818;stroke-width:1.0;"/></g><!--MD5=[f891af3c3af7320c1cf9fc38236ad5a3]
@startuml
package Page_Camera {
  class Page_Camera
  Page_Camera : +__init__()
  Page_Camera : +Structure_Page()
  Page_Camera : +Names_Page()
  Page_Camera : +Control_Buttons()
  Page_Camera : +Control_pb_init_camera()
  Page_Camera : +App
  Page_Camera : +LayoutV_Principal
  Page_Camera : +lb_title_page_sca
  Page_Camera : +fm_settings_camera
  Page_Camera : +LayoutH_fm_settings_camera
  Page_Camera : +fm_buttons_sca
  Page_Camera : +LayoutV_fm_buttons_sca
  Page_Camera : +LayoutG_fm_buttons_sca
  Page_Camera : +label_21
  Page_Camera : +label_19
  Page_Camera : +label_22
  Page_Camera : +label_13
  Page_Camera : +label_6
  Page_Camera : +label_3
  Page_Camera : +le_gamma
  Page_Camera : +le_blackLevel
  Page_Camera : +label_14
  Page_Camera : +label_16
  Page_Camera : +le_gain
  Page_Camera : +label_15
  Page_Camera : +le_sharpness
  Page_Camera : +label_17
  Page_Camera : +lb_sca_camera
  Page_Camera : +label_18
  Page_Camera : +label_20
  Page_Camera : +label_23
  Page_Camera : +le_exposure
  Page_Camera : +le_bufferMode
  Page_Camera : +le_bufferCount
  Page_Camera : +le_bufferHandlingMode
  Page_Camera : +cb_gainAuto
  Page_Camera : +cb_sharpnessAuto
  Page_Camera : +cb_exposureAuto
  Page_Camera : +cb_triggerMode
  Page_Camera : +verticalSpacer_2
  Page_Camera : +pb_sca_configuration
  Page_Camera : +fm_init_camera
  Page_Camera : +gridLayoutWidget_3
  Page_Camera : +gridLayout_4
  Page_Camera : +lb_init_camera
  Page_Camera : +cb_listCameras
  Page_Camera : +lb_init_camera_2
  Page_Camera : +pb_init_camera
  Page_Camera : +lb_init_camera_error
  Page_Camera : +camera_init
}

QWidget <|- - Page_Camera
@enduml

PlantUML version 1.2022.13beta2(Unknown compile time)
(GPL source distribution)
Java Runtime: Java(TM) SE Runtime Environment
JVM: Java HotSpot(TM) 64-Bit Server VM
Default Encoding: UTF-8
Language: en
Country: US
--></g></svg>