<?xml version="1.0" encoding="UTF-8" standalone="no"?><svg xmlns="http://www.w3.org/2000/svg" xmlns:xlink="http://www.w3.org/1999/xlink" contentStyleType="text/css" height="610px" preserveAspectRatio="none" style="width:279px;height:610px;background:#FFFFFF;" version="1.1" viewBox="0 0 279 610" width="279px" zoomAndPan="magnify"><defs/><g><!--MD5=[ea8cb183238f4b4d380015d8f1c8391d]
cluster Page_Capture--><g id="cluster_Page_Capture"><path d="M8.5,80 L119.5,80 A3.75,3.75 0 0 1 122,82.5 L129,102.2969 L269.5,102.2969 A2.5,2.5 0 0 1 272,104.7969 L272,600.5 A2.5,2.5 0 0 1 269.5,603 L8.5,603 A2.5,2.5 0 0 1 6,600.5 L6,82.5 A2.5,2.5 0 0 1 8.5,80 " fill="none" style="stroke:#000000;stroke-width:1.5;"/><line style="stroke:#000000;stroke-width:1.5;" x1="6" x2="129" y1="102.2969" y2="102.2969"/><text fill="#000000" font-family="sans-serif" font-size="14" font-weight="bold" lengthAdjust="spacing" textLength="110" x="10" y="94.9951">Page_Capture</text></g><!--MD5=[f3f4648fb6660f9a21a10ef53b9bee6d]
class Page_Capture--><g id="elem_Page_Capture"><rect codeLine="2" fill="#F1F1F1" height="471.7188" id="Page_Capture" rx="2.5" ry="2.5" style="stroke:#181818;stroke-width:0.5;" width="233" x="22.5" y="115"/><ellipse cx="84.75" cy="131" fill="#ADD1B2" rx="11" ry="11" style="stroke:#181818;stroke-width:1.0;"/><path d="M87.0938,126.6719 C86.1563,126.2344 85.5625,126.0938 84.6875,126.0938 C82.0625,126.0938 80.0625,128.1719 80.0625,130.8906 L80.0625,132.0156 C80.0625,134.5938 82.1719,136.4844 85.0625,136.4844 C86.2813,136.4844 87.4375,136.1875 88.1875,135.6406 C88.7656,135.2344 89.0938,134.7813 89.0938,134.3906 C89.0938,133.9375 88.7031,133.5469 88.2344,133.5469 C88.0156,133.5469 87.8125,133.625 87.625,133.8125 C87.1719,134.2969 87.1719,134.2969 86.9844,134.3906 C86.5625,134.6563 85.875,134.7813 85.1094,134.7813 C83.0625,134.7813 81.7656,133.6875 81.7656,131.9844 L81.7656,130.8906 C81.7656,129.1094 83.0156,127.7969 84.75,127.7969 C85.3281,127.7969 85.9375,127.9531 86.4063,128.2031 C86.8906,128.4844 87.0625,128.7031 87.1563,129.1094 C87.2188,129.5156 87.25,129.6406 87.3906,129.7656 C87.5313,129.9063 87.7656,130.0156 87.9844,130.0156 C88.25,130.0156 88.5156,129.875 88.6875,129.6563 C88.7969,129.5 88.8281,129.3125 88.8281,128.8906 L88.8281,127.4688 C88.8281,127.0313 88.8125,126.9063 88.7188,126.75 C88.5625,126.4844 88.2813,126.3438 87.9844,126.3438 C87.6875,126.3438 87.4844,126.4375 87.2656,126.75 L87.0938,126.6719 Z " fill="#000000"/><text fill="#000000" font-family="sans-serif" font-size="14" lengthAdjust="spacing" textLength="100" x="105.25" y="135.8467">Page_Capture</text><line style="stroke:#181818;stroke-width:0.5;" x1="23.5" x2="254.5" y1="147" y2="147"/><ellipse cx="33.5" cy="160.6484" fill="none" rx="3" ry="3" style="stroke:#038048;stroke-width:1.0;"/><text fill="#000000" font-family="sans-serif" font-size="14" lengthAdjust="spacing" textLength="30" x="42.5" y="163.9951">App</text><ellipse cx="33.5" cy="176.9453" fill="none" rx="3" ry="3" style="stroke:#038048;stroke-width:1.0;"/><text fill="#000000" font-family="sans-serif" font-size="14" lengthAdjust="spacing" textLength="93" x="42.5" y="180.292">LayoutV_Prin</text><ellipse cx="33.5" cy="193.2422" fill="none" rx="3" ry="3" style="stroke:#038048;stroke-width:1.0;"/><text fill="#000000" font-family="sans-serif" font-size="14" lengthAdjust="spacing" textLength="142" x="42.5" y="196.5889">fm_control_capture</text><ellipse cx="33.5" cy="209.5391" fill="none" rx="3" ry="3" style="stroke:#038048;stroke-width:1.0;"/><text fill="#000000" font-family="sans-serif" font-size="14" lengthAdjust="spacing" textLength="207" x="42.5" y="212.8857">LayoutH_fm_control_capture</text><ellipse cx="33.5" cy="225.8359" fill="none" rx="3" ry="3" style="stroke:#038048;stroke-width:1.0;"/><text fill="#000000" font-family="sans-serif" font-size="14" lengthAdjust="spacing" textLength="83" x="42.5" y="229.1826">pb_capture</text><ellipse cx="33.5" cy="242.1328" fill="none" rx="3" ry="3" style="stroke:#038048;stroke-width:1.0;"/><text fill="#000000" font-family="sans-serif" font-size="14" lengthAdjust="spacing" textLength="126" x="42.5" y="245.4795">pb_after_capture</text><ellipse cx="33.5" cy="258.4297" fill="none" rx="3" ry="3" style="stroke:#038048;stroke-width:1.0;"/><text fill="#000000" font-family="sans-serif" font-size="14" lengthAdjust="spacing" textLength="123" x="42.5" y="261.7764">pb_next_capture</text><ellipse cx="33.5" cy="274.7266" fill="none" rx="3" ry="3" style="stroke:#038048;stroke-width:1.0;"/><text fill="#000000" font-family="sans-serif" font-size="14" lengthAdjust="spacing" textLength="122" x="42.5" y="278.0732">pb_save_capture</text><ellipse cx="33.5" cy="291.0234" fill="none" rx="3" ry="3" style="stroke:#038048;stroke-width:1.0;"/><text fill="#000000" font-family="sans-serif" font-size="14" lengthAdjust="spacing" textLength="128" x="42.5" y="294.3701">pb_clean_capture</text><ellipse cx="33.5" cy="307.3203" fill="none" rx="3" ry="3" style="stroke:#038048;stroke-width:1.0;"/><text fill="#000000" font-family="sans-serif" font-size="14" lengthAdjust="spacing" textLength="158" x="42.5" y="310.667">lb_wavelenth_capture</text><ellipse cx="33.5" cy="323.6172" fill="none" rx="3" ry="3" style="stroke:#038048;stroke-width:1.0;"/><text fill="#000000" font-family="sans-serif" font-size="14" lengthAdjust="spacing" textLength="128" x="42.5" y="326.9639">gv_Principal_imag</text><ellipse cx="33.5" cy="339.9141" fill="none" rx="3" ry="3" style="stroke:#038048;stroke-width:1.0;"/><text fill="#000000" font-family="sans-serif" font-size="14" lengthAdjust="spacing" textLength="91" x="42.5" y="343.2607">fm_list_imag</text><ellipse cx="33.5" cy="356.2109" fill="none" rx="3" ry="3" style="stroke:#038048;stroke-width:1.0;"/><text fill="#000000" font-family="sans-serif" font-size="14" lengthAdjust="spacing" textLength="156" x="42.5" y="359.5576">LayoutH_fm_list_imag</text><ellipse cx="33.5" cy="372.5078" fill="none" rx="3" ry="3" style="stroke:#038048;stroke-width:1.0;"/><text fill="#000000" font-family="sans-serif" font-size="14" lengthAdjust="spacing" textLength="85" x="42.5" y="375.8545">lb_list_imag</text><ellipse cx="33.5" cy="388.8047" fill="none" rx="3" ry="3" style="stroke:#038048;stroke-width:1.0;"/><text fill="#000000" font-family="sans-serif" font-size="14" lengthAdjust="spacing" textLength="127" x="42.5" y="392.1514">imagenesCarpeta</text><ellipse cx="33.5" cy="405.1016" fill="none" rx="3" ry="3" style="stroke:#038048;stroke-width:1.0;"/><text fill="#000000" font-family="sans-serif" font-size="14" lengthAdjust="spacing" textLength="90" x="42.5" y="408.4482">index_PImag</text><line style="stroke:#181818;stroke-width:0.5;" x1="23.5" x2="254.5" y1="415.75" y2="415.75"/><ellipse cx="33.5" cy="429.3984" fill="#84BE84" rx="3" ry="3" style="stroke:#038048;stroke-width:1.0;"/><text fill="#000000" font-family="sans-serif" font-size="14" lengthAdjust="spacing" textLength="62" x="42.5" y="432.7451">__init__()</text><ellipse cx="33.5" cy="445.6953" fill="#84BE84" rx="3" ry="3" style="stroke:#038048;stroke-width:1.0;"/><text fill="#000000" font-family="sans-serif" font-size="14" lengthAdjust="spacing" textLength="120" x="42.5" y="449.042">Structure_Page()</text><ellipse cx="33.5" cy="461.9922" fill="#84BE84" rx="3" ry="3" style="stroke:#038048;stroke-width:1.0;"/><text fill="#000000" font-family="sans-serif" font-size="14" lengthAdjust="spacing" textLength="90" x="42.5" y="465.3389">eventFilter()</text><ellipse cx="33.5" cy="478.2891" fill="#84BE84" rx="3" ry="3" style="stroke:#038048;stroke-width:1.0;"/><text fill="#000000" font-family="sans-serif" font-size="14" lengthAdjust="spacing" textLength="100" x="42.5" y="481.6357">Names_Page()</text><ellipse cx="33.5" cy="494.5859" fill="#84BE84" rx="3" ry="3" style="stroke:#038048;stroke-width:1.0;"/><text fill="#000000" font-family="sans-serif" font-size="14" lengthAdjust="spacing" textLength="128" x="42.5" y="497.9326">Control_Buttons()</text><ellipse cx="33.5" cy="510.8828" fill="#84BE84" rx="3" ry="3" style="stroke:#038048;stroke-width:1.0;"/><text fill="#000000" font-family="sans-serif" font-size="14" lengthAdjust="spacing" textLength="154" x="42.5" y="514.2295">Control_pb_capture()</text><ellipse cx="33.5" cy="527.1797" fill="#84BE84" rx="3" ry="3" style="stroke:#038048;stroke-width:1.0;"/><text fill="#000000" font-family="sans-serif" font-size="14" lengthAdjust="spacing" textLength="119" x="42.5" y="530.5264">Charge_Images()</text><ellipse cx="33.5" cy="543.4766" fill="#84BE84" rx="3" ry="3" style="stroke:#038048;stroke-width:1.0;"/><text fill="#000000" font-family="sans-serif" font-size="14" lengthAdjust="spacing" textLength="153" x="42.5" y="546.8232">Charge_lb_list_imag()</text><ellipse cx="33.5" cy="559.7734" fill="#84BE84" rx="3" ry="3" style="stroke:#038048;stroke-width:1.0;"/><text fill="#000000" font-family="sans-serif" font-size="14" lengthAdjust="spacing" textLength="194" x="42.5" y="563.1201">Control_pb_next_capture()</text><ellipse cx="33.5" cy="576.0703" fill="#84BE84" rx="3" ry="3" style="stroke:#038048;stroke-width:1.0;"/><text fill="#000000" font-family="sans-serif" font-size="14" lengthAdjust="spacing" textLength="197" x="42.5" y="579.417">Control_pb_after_capture()</text></g><!--MD5=[3e3f16721f1fb369e45a968cb01568b2]
class QWidget--><g id="elem_QWidget"><rect fill="#F1F1F1" height="48" id="QWidget" rx="2.5" ry="2.5" style="stroke:#181818;stroke-width:0.5;" width="95" x="91.5" y="7"/><ellipse cx="106.5" cy="23" fill="#ADD1B2" rx="11" ry="11" style="stroke:#181818;stroke-width:1.0;"/><path d="M108.8438,18.6719 C107.9063,18.2344 107.3125,18.0938 106.4375,18.0938 C103.8125,18.0938 101.8125,20.1719 101.8125,22.8906 L101.8125,24.0156 C101.8125,26.5938 103.9219,28.4844 106.8125,28.4844 C108.0313,28.4844 109.1875,28.1875 109.9375,27.6406 C110.5156,27.2344 110.8438,26.7813 110.8438,26.3906 C110.8438,25.9375 110.4531,25.5469 109.9844,25.5469 C109.7656,25.5469 109.5625,25.625 109.375,25.8125 C108.9219,26.2969 108.9219,26.2969 108.7344,26.3906 C108.3125,26.6563 107.625,26.7813 106.8594,26.7813 C104.8125,26.7813 103.5156,25.6875 103.5156,23.9844 L103.5156,22.8906 C103.5156,21.1094 104.7656,19.7969 106.5,19.7969 C107.0781,19.7969 107.6875,19.9531 108.1563,20.2031 C108.6406,20.4844 108.8125,20.7031 108.9063,21.1094 C108.9688,21.5156 109,21.6406 109.1406,21.7656 C109.2813,21.9063 109.5156,22.0156 109.7344,22.0156 C110,22.0156 110.2656,21.875 110.4375,21.6563 C110.5469,21.5 110.5781,21.3125 110.5781,20.8906 L110.5781,19.4688 C110.5781,19.0313 110.5625,18.9063 110.4688,18.75 C110.3125,18.4844 110.0313,18.3438 109.7344,18.3438 C109.4375,18.3438 109.2344,18.4375 109.0156,18.75 L108.8438,18.6719 Z " fill="#000000"/><text fill="#000000" font-family="sans-serif" font-size="14" lengthAdjust="spacing" textLength="63" x="120.5" y="27.8467">QWidget</text><line style="stroke:#181818;stroke-width:0.5;" x1="92.5" x2="185.5" y1="39" y2="39"/><line style="stroke:#181818;stroke-width:0.5;" x1="92.5" x2="185.5" y1="47" y2="47"/></g><!--MD5=[a50e5eb15b2bc4bcaa4f03658a788480]
reverse link QWidget to Page_Capture--><g id="link_QWidget_Page_Capture"><path codeLine="31" d="M139,75.165 C139,86.852 139,100.364 139,114.999 " fill="none" id="QWidget-backto-Page_Capture" style="stroke:#181818;stroke-width:1.0;"/><polygon fill="none" points="132,75.126,139,55.126,146,75.126,132,75.126" style="stroke:#181818;stroke-width:1.0;"/></g><!--MD5=[c6d86db060bb204b57e89736dc6d8042]
@startuml
package Page_Capture {
  class Page_Capture
  Page_Capture : +__init__()
  Page_Capture : +Structure_Page()
  Page_Capture : +eventFilter()
  Page_Capture : +Names_Page()
  Page_Capture : +Control_Buttons()
  Page_Capture : +Control_pb_capture()
  Page_Capture : +Charge_Images()
  Page_Capture : +Charge_lb_list_imag()
  Page_Capture : +Control_pb_next_capture()
  Page_Capture : +Control_pb_after_capture()
  Page_Capture : +App
  Page_Capture : +LayoutV_Prin
  Page_Capture : +fm_control_capture
  Page_Capture : +LayoutH_fm_control_capture
  Page_Capture : +pb_capture
  Page_Capture : +pb_after_capture
  Page_Capture : +pb_next_capture
  Page_Capture : +pb_save_capture
  Page_Capture : +pb_clean_capture
  Page_Capture : +lb_wavelenth_capture
  Page_Capture : +gv_Principal_imag
  Page_Capture : +fm_list_imag
  Page_Capture : +LayoutH_fm_list_imag
  Page_Capture : +lb_list_imag
  Page_Capture : +imagenesCarpeta
  Page_Capture : +index_PImag
}

QWidget <|- - Page_Capture
@enduml

PlantUML version 1.2022.13beta2(Unknown compile time)
(GPL source distribution)
Java Runtime: Java(TM) SE Runtime Environment
JVM: Java HotSpot(TM) 64-Bit Server VM
Default Encoding: UTF-8
Language: en
Country: US
--></g></svg>