<?xml version="1.0" encoding="UTF-8" standalone="no"?><svg xmlns="http://www.w3.org/2000/svg" xmlns:xlink="http://www.w3.org/1999/xlink" contentStyleType="text/css" height="1180px" preserveAspectRatio="none" style="width:265px;height:1180px;background:#FFFFFF;" version="1.1" viewBox="0 0 265 1180" width="265px" zoomAndPan="magnify"><defs/><g><!--MD5=[295886d0daec8f6cb28fba37bd19e294]
cluster Page_Iluminator--><g id="cluster_Page_Iluminator"><path d="M8.5,80 L140.5,80 A3.75,3.75 0 0 1 143,82.5 L150,102.2969 L255.5,102.2969 A2.5,2.5 0 0 1 258,104.7969 L258,1170.5 A2.5,2.5 0 0 1 255.5,1173 L8.5,1173 A2.5,2.5 0 0 1 6,1170.5 L6,82.5 A2.5,2.5 0 0 1 8.5,80 " fill="none" style="stroke:#000000;stroke-width:1.5;"/><line style="stroke:#000000;stroke-width:1.5;" x1="6" x2="150" y1="102.2969" y2="102.2969"/><text fill="#000000" font-family="sans-serif" font-size="14" font-weight="bold" lengthAdjust="spacing" textLength="131" x="10" y="94.9951">Page_Iluminator</text></g><!--MD5=[d1bcb9c4b9b9dbc28157b9cfd82f5de3]
class Page_Iluminator--><g id="elem_Page_Iluminator"><rect codeLine="2" fill="#F1F1F1" height="1042.1094" id="Page_Iluminator" rx="2.5" ry="2.5" style="stroke:#181818;stroke-width:0.5;" width="220" x="22" y="115"/><ellipse cx="70.25" cy="131" fill="#ADD1B2" rx="11" ry="11" style="stroke:#181818;stroke-width:1.0;"/><path d="M72.5938,126.6719 C71.6563,126.2344 71.0625,126.0938 70.1875,126.0938 C67.5625,126.0938 65.5625,128.1719 65.5625,130.8906 L65.5625,132.0156 C65.5625,134.5938 67.6719,136.4844 70.5625,136.4844 C71.7813,136.4844 72.9375,136.1875 73.6875,135.6406 C74.2656,135.2344 74.5938,134.7813 74.5938,134.3906 C74.5938,133.9375 74.2031,133.5469 73.7344,133.5469 C73.5156,133.5469 73.3125,133.625 73.125,133.8125 C72.6719,134.2969 72.6719,134.2969 72.4844,134.3906 C72.0625,134.6563 71.375,134.7813 70.6094,134.7813 C68.5625,134.7813 67.2656,133.6875 67.2656,131.9844 L67.2656,130.8906 C67.2656,129.1094 68.5156,127.7969 70.25,127.7969 C70.8281,127.7969 71.4375,127.9531 71.9063,128.2031 C72.3906,128.4844 72.5625,128.7031 72.6563,129.1094 C72.7188,129.5156 72.75,129.6406 72.8906,129.7656 C73.0313,129.9063 73.2656,130.0156 73.4844,130.0156 C73.75,130.0156 74.0156,129.875 74.1875,129.6563 C74.2969,129.5 74.3281,129.3125 74.3281,128.8906 L74.3281,127.4688 C74.3281,127.0313 74.3125,126.9063 74.2188,126.75 C74.0625,126.4844 73.7813,126.3438 73.4844,126.3438 C73.1875,126.3438 72.9844,126.4375 72.7656,126.75 L72.5938,126.6719 Z " fill="#000000"/><text fill="#000000" font-family="sans-serif" font-size="14" lengthAdjust="spacing" textLength="115" x="90.75" y="135.8467">Page_Iluminator</text><line style="stroke:#181818;stroke-width:0.5;" x1="23" x2="241" y1="147" y2="147"/><ellipse cx="33" cy="160.6484" fill="none" rx="3" ry="3" style="stroke:#038048;stroke-width:1.0;"/><text fill="#000000" font-family="sans-serif" font-size="14" lengthAdjust="spacing" textLength="30" x="42" y="163.9951">App</text><ellipse cx="33" cy="176.9453" fill="none" rx="3" ry="3" style="stroke:#038048;stroke-width:1.0;"/><text fill="#000000" font-family="sans-serif" font-size="14" lengthAdjust="spacing" textLength="38" x="42" y="180.292">Veriq</text><ellipse cx="33" cy="193.2422" fill="none" rx="3" ry="3" style="stroke:#038048;stroke-width:1.0;"/><text fill="#000000" font-family="sans-serif" font-size="14" lengthAdjust="spacing" textLength="118" x="42" y="196.5889">verticalLayout_7</text><ellipse cx="33" cy="209.5391" fill="none" rx="3" ry="3" style="stroke:#038048;stroke-width:1.0;"/><text fill="#000000" font-family="sans-serif" font-size="14" lengthAdjust="spacing" textLength="126" x="42" y="212.8857">lb_title_page_sco</text><ellipse cx="33" cy="225.8359" fill="none" rx="3" ry="3" style="stroke:#038048;stroke-width:1.0;"/><text fill="#000000" font-family="sans-serif" font-size="14" lengthAdjust="spacing" textLength="166" x="42" y="229.1826">fm_settings_iluminator</text><ellipse cx="33" cy="242.1328" fill="none" rx="3" ry="3" style="stroke:#038048;stroke-width:1.0;"/><text fill="#000000" font-family="sans-serif" font-size="14" lengthAdjust="spacing" textLength="144" x="42" y="245.4795">horizontalLayout_24</text><ellipse cx="33" cy="258.4297" fill="none" rx="3" ry="3" style="stroke:#038048;stroke-width:1.0;"/><text fill="#000000" font-family="sans-serif" font-size="14" lengthAdjust="spacing" textLength="106" x="42" y="261.7764">fm_buttons_sc</text><ellipse cx="33" cy="274.7266" fill="none" rx="3" ry="3" style="stroke:#038048;stroke-width:1.0;"/><text fill="#000000" font-family="sans-serif" font-size="14" lengthAdjust="spacing" textLength="118" x="42" y="278.0732">verticalLayout_5</text><ellipse cx="33" cy="291.0234" fill="none" rx="3" ry="3" style="stroke:#038048;stroke-width:1.0;"/><text fill="#000000" font-family="sans-serif" font-size="14" lengthAdjust="spacing" textLength="76" x="42" y="294.3701">gridLayout</text><ellipse cx="33" cy="307.3203" fill="none" rx="3" ry="3" style="stroke:#038048;stroke-width:1.0;"/><text fill="#000000" font-family="sans-serif" font-size="14" lengthAdjust="spacing" textLength="86" x="42" y="310.667">lb_time_out</text><ellipse cx="33" cy="323.6172" fill="none" rx="3" ry="3" style="stroke:#038048;stroke-width:1.0;"/><text fill="#000000" font-family="sans-serif" font-size="14" lengthAdjust="spacing" textLength="101" x="42" y="326.9639">lb_time_sleep</text><ellipse cx="33" cy="339.9141" fill="none" rx="3" ry="3" style="stroke:#038048;stroke-width:1.0;"/><text fill="#000000" font-family="sans-serif" font-size="14" lengthAdjust="spacing" textLength="98" x="42" y="343.2607">lb_serial_port</text><ellipse cx="33" cy="356.2109" fill="none" rx="3" ry="3" style="stroke:#038048;stroke-width:1.0;"/><text fill="#000000" font-family="sans-serif" font-size="14" lengthAdjust="spacing" textLength="113" x="42" y="359.5576">le_shotMessage</text><ellipse cx="33" cy="372.5078" fill="none" rx="3" ry="3" style="stroke:#038048;stroke-width:1.0;"/><text fill="#000000" font-family="sans-serif" font-size="14" lengthAdjust="spacing" textLength="107" x="42" y="375.8545">sb_timeSleepc</text><ellipse cx="33" cy="388.8047" fill="none" rx="3" ry="3" style="stroke:#038048;stroke-width:1.0;"/><text fill="#000000" font-family="sans-serif" font-size="14" lengthAdjust="spacing" textLength="123" x="42" y="392.1514">lb_shot_message</text><ellipse cx="33" cy="405.1016" fill="none" rx="3" ry="3" style="stroke:#038048;stroke-width:1.0;"/><text fill="#000000" font-family="sans-serif" font-size="14" lengthAdjust="spacing" textLength="112" x="42" y="408.4482">lb_time_trigger</text><ellipse cx="33" cy="421.3984" fill="none" rx="3" ry="3" style="stroke:#038048;stroke-width:1.0;"/><text fill="#000000" font-family="sans-serif" font-size="14" lengthAdjust="spacing" textLength="101" x="42" y="424.7451">lb_shot_mode</text><ellipse cx="33" cy="437.6953" fill="none" rx="3" ry="3" style="stroke:#038048;stroke-width:1.0;"/><text fill="#000000" font-family="sans-serif" font-size="14" lengthAdjust="spacing" textLength="95" x="42" y="441.042">sb_shotMode</text><ellipse cx="33" cy="453.9922" fill="none" rx="3" ry="3" style="stroke:#038048;stroke-width:1.0;"/><text fill="#000000" font-family="sans-serif" font-size="14" lengthAdjust="spacing" textLength="110" x="42" y="457.3389">sb_timeTrigger</text><ellipse cx="33" cy="470.2891" fill="none" rx="3" ry="3" style="stroke:#038048;stroke-width:1.0;"/><text fill="#000000" font-family="sans-serif" font-size="14" lengthAdjust="spacing" textLength="94" x="42" y="473.6357">sb_timeFlash</text><ellipse cx="33" cy="486.5859" fill="none" rx="3" ry="3" style="stroke:#038048;stroke-width:1.0;"/><text fill="#000000" font-family="sans-serif" font-size="14" lengthAdjust="spacing" textLength="84" x="42" y="489.9326">sb_timeOut</text><ellipse cx="33" cy="502.8828" fill="none" rx="3" ry="3" style="stroke:#038048;stroke-width:1.0;"/><text fill="#000000" font-family="sans-serif" font-size="14" lengthAdjust="spacing" textLength="96" x="42" y="506.2295">lb_time_flash</text><ellipse cx="33" cy="519.1797" fill="none" rx="3" ry="3" style="stroke:#038048;stroke-width:1.0;"/><text fill="#000000" font-family="sans-serif" font-size="14" lengthAdjust="spacing" textLength="53" x="42" y="522.5264">lb_port</text><ellipse cx="33" cy="535.4766" fill="none" rx="3" ry="3" style="stroke:#038048;stroke-width:1.0;"/><text fill="#000000" font-family="sans-serif" font-size="14" lengthAdjust="spacing" textLength="56" x="42" y="538.8232">pb_leds</text><ellipse cx="33" cy="551.7734" fill="none" rx="3" ry="3" style="stroke:#038048;stroke-width:1.0;"/><text fill="#000000" font-family="sans-serif" font-size="14" lengthAdjust="spacing" textLength="91" x="42" y="555.1201">pb_PWMleds</text><ellipse cx="33" cy="568.0703" fill="none" rx="3" ry="3" style="stroke:#038048;stroke-width:1.0;"/><text fill="#000000" font-family="sans-serif" font-size="14" lengthAdjust="spacing" textLength="104" x="42" y="571.417">verticalSpacer</text><ellipse cx="33" cy="584.3672" fill="none" rx="3" ry="3" style="stroke:#038048;stroke-width:1.0;"/><text fill="#000000" font-family="sans-serif" font-size="14" lengthAdjust="spacing" textLength="123" x="42" y="587.7139">pb_configuration</text><ellipse cx="33" cy="600.6641" fill="none" rx="3" ry="3" style="stroke:#038048;stroke-width:1.0;"/><text fill="#000000" font-family="sans-serif" font-size="14" lengthAdjust="spacing" textLength="165" x="42" y="604.0107">pb_eliminar_iluminator</text><ellipse cx="33" cy="616.9609" fill="none" rx="3" ry="3" style="stroke:#038048;stroke-width:1.0;"/><text fill="#000000" font-family="sans-serif" font-size="14" lengthAdjust="spacing" textLength="56" x="42" y="620.3076">fm_leds</text><ellipse cx="33" cy="633.2578" fill="none" rx="3" ry="3" style="stroke:#038048;stroke-width:1.0;"/><text fill="#000000" font-family="sans-serif" font-size="14" lengthAdjust="spacing" textLength="121" x="42" y="636.6045">LayoutV_fm_leds</text><ellipse cx="33" cy="649.5547" fill="none" rx="3" ry="3" style="stroke:#038048;stroke-width:1.0;"/><text fill="#000000" font-family="sans-serif" font-size="14" lengthAdjust="spacing" textLength="47" x="42" y="652.9014">cb_led</text><ellipse cx="33" cy="665.8516" fill="none" rx="3" ry="3" style="stroke:#038048;stroke-width:1.0;"/><text fill="#000000" font-family="sans-serif" font-size="14" lengthAdjust="spacing" textLength="78" x="42" y="669.1982">space_leds</text><ellipse cx="33" cy="682.1484" fill="none" rx="3" ry="3" style="stroke:#038048;stroke-width:1.0;"/><text fill="#000000" font-family="sans-serif" font-size="14" lengthAdjust="spacing" textLength="62" x="42" y="685.4951">fm_PWM</text><ellipse cx="33" cy="698.4453" fill="none" rx="3" ry="3" style="stroke:#038048;stroke-width:1.0;"/><text fill="#000000" font-family="sans-serif" font-size="14" lengthAdjust="spacing" textLength="127" x="42" y="701.792">LayoutV_fm_PWM</text><ellipse cx="33" cy="714.7422" fill="none" rx="3" ry="3" style="stroke:#038048;stroke-width:1.0;"/><text fill="#000000" font-family="sans-serif" font-size="14" lengthAdjust="spacing" textLength="91" x="42" y="718.0889">fm_PWM_led</text><ellipse cx="33" cy="731.0391" fill="none" rx="3" ry="3" style="stroke:#038048;stroke-width:1.0;"/><text fill="#000000" font-family="sans-serif" font-size="14" lengthAdjust="spacing" textLength="156" x="42" y="734.3857">fm_PWM_LayoutH_led</text><ellipse cx="33" cy="747.3359" fill="none" rx="3" ry="3" style="stroke:#038048;stroke-width:1.0;"/><text fill="#000000" font-family="sans-serif" font-size="14" lengthAdjust="spacing" textLength="85" x="42" y="750.6826">lb_PWM_led</text><ellipse cx="33" cy="763.6328" fill="none" rx="3" ry="3" style="stroke:#038048;stroke-width:1.0;"/><text fill="#000000" font-family="sans-serif" font-size="14" lengthAdjust="spacing" textLength="88" x="42" y="766.9795">sb_PWM_led</text><ellipse cx="33" cy="779.9297" fill="none" rx="3" ry="3" style="stroke:#038048;stroke-width:1.0;"/><text fill="#000000" font-family="sans-serif" font-size="14" lengthAdjust="spacing" textLength="90" x="42" y="783.2764">PWM_spacer</text><ellipse cx="33" cy="796.2266" fill="none" rx="3" ry="3" style="stroke:#038048;stroke-width:1.0;"/><text fill="#000000" font-family="sans-serif" font-size="14" lengthAdjust="spacing" textLength="107" x="42" y="799.5732">fm_init_corona</text><ellipse cx="33" cy="812.5234" fill="none" rx="3" ry="3" style="stroke:#038048;stroke-width:1.0;"/><text fill="#000000" font-family="sans-serif" font-size="14" lengthAdjust="spacing" textLength="143" x="42" y="815.8701">gridLayoutWidget_2</text><ellipse cx="33" cy="828.8203" fill="none" rx="3" ry="3" style="stroke:#038048;stroke-width:1.0;"/><text fill="#000000" font-family="sans-serif" font-size="14" lengthAdjust="spacing" textLength="91" x="42" y="832.167">gridLayout_2</text><ellipse cx="33" cy="845.1172" fill="none" rx="3" ry="3" style="stroke:#038048;stroke-width:1.0;"/><text fill="#000000" font-family="sans-serif" font-size="14" lengthAdjust="spacing" textLength="142" x="42" y="848.4639">lb_init_iluminador_2</text><ellipse cx="33" cy="861.4141" fill="none" rx="3" ry="3" style="stroke:#038048;stroke-width:1.0;"/><text fill="#000000" font-family="sans-serif" font-size="14" lengthAdjust="spacing" textLength="78" x="42" y="864.7607">cb_listPort</text><ellipse cx="33" cy="877.7109" fill="none" rx="3" ry="3" style="stroke:#038048;stroke-width:1.0;"/><text fill="#000000" font-family="sans-serif" font-size="14" lengthAdjust="spacing" textLength="143" x="42" y="881.0576">lb_init_iluminador_1</text><ellipse cx="33" cy="894.0078" fill="none" rx="3" ry="3" style="stroke:#038048;stroke-width:1.0;"/><text fill="#000000" font-family="sans-serif" font-size="14" lengthAdjust="spacing" textLength="107" x="42" y="897.3545">pb_init_corona</text><ellipse cx="33" cy="910.3047" fill="none" rx="3" ry="3" style="stroke:#038048;stroke-width:1.0;"/><text fill="#000000" font-family="sans-serif" font-size="14" lengthAdjust="spacing" textLength="103" x="42" y="913.6514">lb_init_c_error</text><line style="stroke:#181818;stroke-width:0.5;" x1="23" x2="241" y1="920.9531" y2="920.9531"/><ellipse cx="33" cy="934.6016" fill="#84BE84" rx="3" ry="3" style="stroke:#038048;stroke-width:1.0;"/><text fill="#000000" font-family="sans-serif" font-size="14" lengthAdjust="spacing" textLength="62" x="42" y="937.9482">__init__()</text><ellipse cx="33" cy="950.8984" fill="#84BE84" rx="3" ry="3" style="stroke:#038048;stroke-width:1.0;"/><text fill="#000000" font-family="sans-serif" font-size="14" lengthAdjust="spacing" textLength="120" x="42" y="954.2451">Structure_Page()</text><ellipse cx="33" cy="967.1953" fill="#84BE84" rx="3" ry="3" style="stroke:#038048;stroke-width:1.0;"/><text fill="#000000" font-family="sans-serif" font-size="14" lengthAdjust="spacing" textLength="100" x="42" y="970.542">Names_Page()</text><ellipse cx="33" cy="983.4922" fill="#84BE84" rx="3" ry="3" style="stroke:#038048;stroke-width:1.0;"/><text fill="#000000" font-family="sans-serif" font-size="14" lengthAdjust="spacing" textLength="128" x="42" y="986.8389">Control_Buttons()</text><ellipse cx="33" cy="999.7891" fill="#84BE84" rx="3" ry="3" style="stroke:#038048;stroke-width:1.0;"/><text fill="#000000" font-family="sans-serif" font-size="14" lengthAdjust="spacing" textLength="194" x="42" y="1003.1357">Control_pb_configuration()</text><ellipse cx="33" cy="1016.0859" fill="#84BE84" rx="3" ry="3" style="stroke:#038048;stroke-width:1.0;"/><text fill="#000000" font-family="sans-serif" font-size="14" lengthAdjust="spacing" textLength="75" x="42" y="1019.4326">Edit_leds()</text><ellipse cx="33" cy="1032.3828" fill="#84BE84" rx="3" ry="3" style="stroke:#038048;stroke-width:1.0;"/><text fill="#000000" font-family="sans-serif" font-size="14" lengthAdjust="spacing" textLength="149" x="42" y="1035.7295">Control_pb_sc_leds()</text><ellipse cx="33" cy="1048.6797" fill="#84BE84" rx="3" ry="3" style="stroke:#038048;stroke-width:1.0;"/><text fill="#000000" font-family="sans-serif" font-size="14" lengthAdjust="spacing" textLength="184" x="42" y="1052.0264">Control_pb_sc_PWMleds()</text><ellipse cx="33" cy="1064.9766" fill="#84BE84" rx="3" ry="3" style="stroke:#038048;stroke-width:1.0;"/><text fill="#000000" font-family="sans-serif" font-size="14" lengthAdjust="spacing" textLength="178" x="42" y="1068.3232">Control_pb_init_corona()</text><ellipse cx="33" cy="1081.2734" fill="#84BE84" rx="3" ry="3" style="stroke:#038048;stroke-width:1.0;"/><text fill="#000000" font-family="sans-serif" font-size="14" lengthAdjust="spacing" textLength="124" x="42" y="1084.6201">fm_PWM_led_hs()</text><ellipse cx="33" cy="1097.5703" fill="#84BE84" rx="3" ry="3" style="stroke:#038048;stroke-width:1.0;"/><text fill="#000000" font-family="sans-serif" font-size="14" lengthAdjust="spacing" textLength="163" x="42" y="1100.917">cb_leds_checked_init()</text><ellipse cx="33" cy="1113.8672" fill="#84BE84" rx="3" ry="3" style="stroke:#038048;stroke-width:1.0;"/><text fill="#000000" font-family="sans-serif" font-size="14" lengthAdjust="spacing" textLength="150" x="42" y="1117.2139">cb_leds_is_checked()</text><ellipse cx="33" cy="1130.1641" fill="#84BE84" rx="3" ry="3" style="stroke:#038048;stroke-width:1.0;"/><text fill="#000000" font-family="sans-serif" font-size="14" lengthAdjust="spacing" textLength="188" x="42" y="1133.5107">le_PWM_led_setText_init()</text><ellipse cx="33" cy="1146.4609" fill="#84BE84" rx="3" ry="3" style="stroke:#038048;stroke-width:1.0;"/><text fill="#000000" font-family="sans-serif" font-size="14" lengthAdjust="spacing" textLength="144" x="42" y="1149.8076">Rename_cblb_leds()</text></g><!--MD5=[3e3f16721f1fb369e45a968cb01568b2]
class QWidget--><g id="elem_QWidget"><rect fill="#F1F1F1" height="48" id="QWidget" rx="2.5" ry="2.5" style="stroke:#181818;stroke-width:0.5;" width="95" x="84.5" y="7"/><ellipse cx="99.5" cy="23" fill="#ADD1B2" rx="11" ry="11" style="stroke:#181818;stroke-width:1.0;"/><path d="M101.8438,18.6719 C100.9063,18.2344 100.3125,18.0938 99.4375,18.0938 C96.8125,18.0938 94.8125,20.1719 94.8125,22.8906 L94.8125,24.0156 C94.8125,26.5938 96.9219,28.4844 99.8125,28.4844 C101.0313,28.4844 102.1875,28.1875 102.9375,27.6406 C103.5156,27.2344 103.8438,26.7813 103.8438,26.3906 C103.8438,25.9375 103.4531,25.5469 102.9844,25.5469 C102.7656,25.5469 102.5625,25.625 102.375,25.8125 C101.9219,26.2969 101.9219,26.2969 101.7344,26.3906 C101.3125,26.6563 100.625,26.7813 99.8594,26.7813 C97.8125,26.7813 96.5156,25.6875 96.5156,23.9844 L96.5156,22.8906 C96.5156,21.1094 97.7656,19.7969 99.5,19.7969 C100.0781,19.7969 100.6875,19.9531 101.1563,20.2031 C101.6406,20.4844 101.8125,20.7031 101.9063,21.1094 C101.9688,21.5156 102,21.6406 102.1406,21.7656 C102.2813,21.9063 102.5156,22.0156 102.7344,22.0156 C103,22.0156 103.2656,21.875 103.4375,21.6563 C103.5469,21.5 103.5781,21.3125 103.5781,20.8906 L103.5781,19.4688 C103.5781,19.0313 103.5625,18.9063 103.4688,18.75 C103.3125,18.4844 103.0313,18.3438 102.7344,18.3438 C102.4375,18.3438 102.2344,18.4375 102.0156,18.75 L101.8438,18.6719 Z " fill="#000000"/><text fill="#000000" font-family="sans-serif" font-size="14" lengthAdjust="spacing" textLength="63" x="113.5" y="27.8467">QWidget</text><line style="stroke:#181818;stroke-width:0.5;" x1="85.5" x2="178.5" y1="39" y2="39"/><line style="stroke:#181818;stroke-width:0.5;" x1="85.5" x2="178.5" y1="47" y2="47"/></g><!--MD5=[47ebc55eea1bb13984c55a27d37254a7]
reverse link QWidget to Page_Iluminator--><g id="link_QWidget_Page_Iluminator"><path codeLine="66" d="M132,75.68 C132,86.96 132,100.12 132,114.76 " fill="none" id="QWidget-backto-Page_Iluminator" style="stroke:#181818;stroke-width:1.0;"/><polygon fill="none" points="125,75.27,132,55.27,139,75.27,125,75.27" style="stroke:#181818;stroke-width:1.0;"/></g><!--MD5=[3f24d499fdec3ca5c6dba02041389d64]
@startuml
package Page_Iluminator {
  class Page_Iluminator
  Page_Iluminator : +__init__()
  Page_Iluminator : +Structure_Page()
  Page_Iluminator : +Names_Page()
  Page_Iluminator : +Control_Buttons()
  Page_Iluminator : +Control_pb_configuration()
  Page_Iluminator : +Edit_leds()
  Page_Iluminator : +Control_pb_sc_leds()
  Page_Iluminator : +Control_pb_sc_PWMleds()
  Page_Iluminator : +Control_pb_init_corona()
  Page_Iluminator : +fm_PWM_led_hs()
  Page_Iluminator : +cb_leds_checked_init()
  Page_Iluminator : +cb_leds_is_checked()
  Page_Iluminator : +le_PWM_led_setText_init()
  Page_Iluminator : +Rename_cblb_leds()
  Page_Iluminator : +App
  Page_Iluminator : +Veriq
  Page_Iluminator : +verticalLayout_7
  Page_Iluminator : +lb_title_page_sco
  Page_Iluminator : +fm_settings_iluminator
  Page_Iluminator : +horizontalLayout_24
  Page_Iluminator : +fm_buttons_sc
  Page_Iluminator : +verticalLayout_5
  Page_Iluminator : +gridLayout
  Page_Iluminator : +lb_time_out
  Page_Iluminator : +lb_time_sleep
  Page_Iluminator : +lb_serial_port
  Page_Iluminator : +le_shotMessage
  Page_Iluminator : +sb_timeSleepc
  Page_Iluminator : +lb_shot_message
  Page_Iluminator : +lb_time_trigger
  Page_Iluminator : +lb_shot_mode
  Page_Iluminator : +sb_shotMode
  Page_Iluminator : +sb_timeTrigger
  Page_Iluminator : +sb_timeFlash
  Page_Iluminator : +sb_timeOut
  Page_Iluminator : +lb_time_flash
  Page_Iluminator : +lb_port
  Page_Iluminator : +pb_leds
  Page_Iluminator : +pb_PWMleds
  Page_Iluminator : +verticalSpacer
  Page_Iluminator : +pb_configuration
  Page_Iluminator : +pb_eliminar_iluminator
  Page_Iluminator : +fm_leds
  Page_Iluminator : +LayoutV_fm_leds
  Page_Iluminator : +cb_led
  Page_Iluminator : +space_leds
  Page_Iluminator : +fm_PWM
  Page_Iluminator : +LayoutV_fm_PWM
  Page_Iluminator : +fm_PWM_led
  Page_Iluminator : +fm_PWM_LayoutH_led
  Page_Iluminator : +lb_PWM_led
  Page_Iluminator : +sb_PWM_led
  Page_Iluminator : +PWM_spacer
  Page_Iluminator : +fm_init_corona
  Page_Iluminator : +gridLayoutWidget_2
  Page_Iluminator : +gridLayout_2
  Page_Iluminator : +lb_init_iluminador_2
  Page_Iluminator : +cb_listPort
  Page_Iluminator : +lb_init_iluminador_1
  Page_Iluminator : +pb_init_corona
  Page_Iluminator : +lb_init_c_error
}

QWidget <|- - Page_Iluminator
@enduml

PlantUML version 1.2022.13beta2(Unknown compile time)
(GPL source distribution)
Java Runtime: Java(TM) SE Runtime Environment
JVM: Java HotSpot(TM) 64-Bit Server VM
Default Encoding: UTF-8
Language: en
Country: US
--></g></svg>