<?xml version="1.0" encoding="UTF-8" standalone="no"?><svg xmlns="http://www.w3.org/2000/svg" xmlns:xlink="http://www.w3.org/1999/xlink" contentStyleType="text/css" height="773px" preserveAspectRatio="none" style="width:361px;height:773px;background:#FFFFFF;" version="1.1" viewBox="0 0 361 773" width="361px" zoomAndPan="magnify"><defs/><g><!--MD5=[b2aad5a7002416679bffcc5be1f43ebc]
cluster Page_ColorReproduction--><g id="cluster_Page_ColorReproduction"><path d="M8.5,80 L206.5,80 A3.75,3.75 0 0 1 209,82.5 L216,102.2969 L351.5,102.2969 A2.5,2.5 0 0 1 354,104.7969 L354,763.5 A2.5,2.5 0 0 1 351.5,766 L8.5,766 A2.5,2.5 0 0 1 6,763.5 L6,82.5 A2.5,2.5 0 0 1 8.5,80 " fill="none" style="stroke:#000000;stroke-width:1.5;"/><line style="stroke:#000000;stroke-width:1.5;" x1="6" x2="216" y1="102.2969" y2="102.2969"/><text fill="#000000" font-family="sans-serif" font-size="14" font-weight="bold" lengthAdjust="spacing" textLength="197" x="10" y="94.9951">Page_ColorReproduction</text></g><!--MD5=[a393607455343388b36bd8eaa83467b6]
class Page_ColorReproduction--><g id="elem_Page_ColorReproduction"><rect codeLine="2" fill="#F1F1F1" height="634.6875" id="Page_ColorReproduction" rx="2.5" ry="2.5" style="stroke:#181818;stroke-width:0.5;" width="316" x="22" y="115"/><ellipse cx="86.75" cy="131" fill="#ADD1B2" rx="11" ry="11" style="stroke:#181818;stroke-width:1.0;"/><path d="M89.0938,126.6719 C88.1563,126.2344 87.5625,126.0938 86.6875,126.0938 C84.0625,126.0938 82.0625,128.1719 82.0625,130.8906 L82.0625,132.0156 C82.0625,134.5938 84.1719,136.4844 87.0625,136.4844 C88.2813,136.4844 89.4375,136.1875 90.1875,135.6406 C90.7656,135.2344 91.0938,134.7813 91.0938,134.3906 C91.0938,133.9375 90.7031,133.5469 90.2344,133.5469 C90.0156,133.5469 89.8125,133.625 89.625,133.8125 C89.1719,134.2969 89.1719,134.2969 88.9844,134.3906 C88.5625,134.6563 87.875,134.7813 87.1094,134.7813 C85.0625,134.7813 83.7656,133.6875 83.7656,131.9844 L83.7656,130.8906 C83.7656,129.1094 85.0156,127.7969 86.75,127.7969 C87.3281,127.7969 87.9375,127.9531 88.4063,128.2031 C88.8906,128.4844 89.0625,128.7031 89.1563,129.1094 C89.2188,129.5156 89.25,129.6406 89.3906,129.7656 C89.5313,129.9063 89.7656,130.0156 89.9844,130.0156 C90.25,130.0156 90.5156,129.875 90.6875,129.6563 C90.7969,129.5 90.8281,129.3125 90.8281,128.8906 L90.8281,127.4688 C90.8281,127.0313 90.8125,126.9063 90.7188,126.75 C90.5625,126.4844 90.2813,126.3438 89.9844,126.3438 C89.6875,126.3438 89.4844,126.4375 89.2656,126.75 L89.0938,126.6719 Z " fill="#000000"/><text fill="#000000" font-family="sans-serif" font-size="14" lengthAdjust="spacing" textLength="178" x="107.25" y="135.8467">Page_ColorReproduction</text><line style="stroke:#181818;stroke-width:0.5;" x1="23" x2="337" y1="147" y2="147"/><ellipse cx="33" cy="160.6484" fill="none" rx="3" ry="3" style="stroke:#038048;stroke-width:1.0;"/><text fill="#000000" font-family="sans-serif" font-size="14" lengthAdjust="spacing" textLength="30" x="42" y="163.9951">App</text><ellipse cx="33" cy="176.9453" fill="none" rx="3" ry="3" style="stroke:#038048;stroke-width:1.0;"/><text fill="#000000" font-family="sans-serif" font-size="14" lengthAdjust="spacing" textLength="93" x="42" y="180.292">LayoutV_Prin</text><ellipse cx="33" cy="193.2422" fill="none" rx="3" ry="3" style="stroke:#038048;stroke-width:1.0;"/><text fill="#000000" font-family="sans-serif" font-size="14" lengthAdjust="spacing" textLength="222" x="42" y="196.5889">fm_control_ColorReproduction</text><ellipse cx="33" cy="209.5391" fill="none" rx="3" ry="3" style="stroke:#038048;stroke-width:1.0;"/><text fill="#000000" font-family="sans-serif" font-size="14" lengthAdjust="spacing" textLength="207" x="42" y="212.8857">LayoutH_fm_control_capture</text><ellipse cx="33" cy="225.8359" fill="none" rx="3" ry="3" style="stroke:#038048;stroke-width:1.0;"/><text fill="#000000" font-family="sans-serif" font-size="14" lengthAdjust="spacing" textLength="115" x="42" y="229.1826">pb_charge_data</text><ellipse cx="33" cy="242.1328" fill="none" rx="3" ry="3" style="stroke:#038048;stroke-width:1.0;"/><text fill="#000000" font-family="sans-serif" font-size="14" lengthAdjust="spacing" textLength="139" x="42" y="245.4795">pb_charge_capture</text><ellipse cx="33" cy="258.4297" fill="none" rx="3" ry="3" style="stroke:#038048;stroke-width:1.0;"/><text fill="#000000" font-family="sans-serif" font-size="14" lengthAdjust="spacing" textLength="126" x="42" y="261.7764">pb_after_capture</text><ellipse cx="33" cy="274.7266" fill="none" rx="3" ry="3" style="stroke:#038048;stroke-width:1.0;"/><text fill="#000000" font-family="sans-serif" font-size="14" lengthAdjust="spacing" textLength="123" x="42" y="278.0732">pb_next_capture</text><ellipse cx="33" cy="291.0234" fill="none" rx="3" ry="3" style="stroke:#038048;stroke-width:1.0;"/><text fill="#000000" font-family="sans-serif" font-size="14" lengthAdjust="spacing" textLength="113" x="42" y="294.3701">pb_save_viewer</text><ellipse cx="33" cy="307.3203" fill="none" rx="3" ry="3" style="stroke:#038048;stroke-width:1.0;"/><text fill="#000000" font-family="sans-serif" font-size="14" lengthAdjust="spacing" textLength="128" x="42" y="310.667">pb_clean_capture</text><ellipse cx="33" cy="323.6172" fill="none" rx="3" ry="3" style="stroke:#038048;stroke-width:1.0;"/><text fill="#000000" font-family="sans-serif" font-size="14" lengthAdjust="spacing" textLength="158" x="42" y="326.9639">lb_wavelenth_capture</text><ellipse cx="33" cy="339.9141" fill="none" rx="3" ry="3" style="stroke:#038048;stroke-width:1.0;"/><text fill="#000000" font-family="sans-serif" font-size="14" lengthAdjust="spacing" textLength="225" x="42" y="343.2607">fm_options_ColorReproduction</text><ellipse cx="33" cy="356.2109" fill="none" rx="3" ry="3" style="stroke:#038048;stroke-width:1.0;"/><text fill="#000000" font-family="sans-serif" font-size="14" lengthAdjust="spacing" textLength="290" x="42" y="359.5576">LayoutH_fm_options_ColorReproduction</text><ellipse cx="33" cy="372.5078" fill="none" rx="3" ry="3" style="stroke:#038048;stroke-width:1.0;"/><text fill="#000000" font-family="sans-serif" font-size="14" lengthAdjust="spacing" textLength="141" x="42" y="375.8545">pb_colorReproduce</text><ellipse cx="33" cy="388.8047" fill="none" rx="3" ry="3" style="stroke:#038048;stroke-width:1.0;"/><text fill="#000000" font-family="sans-serif" font-size="14" lengthAdjust="spacing" textLength="72" x="42" y="392.1514">pb_masks</text><ellipse cx="33" cy="405.1016" fill="none" rx="3" ry="3" style="stroke:#038048;stroke-width:1.0;"/><text fill="#000000" font-family="sans-serif" font-size="14" lengthAdjust="spacing" textLength="114" x="42" y="408.4482">pb_ecualizacion</text><ellipse cx="33" cy="421.3984" fill="none" rx="3" ry="3" style="stroke:#038048;stroke-width:1.0;"/><text fill="#000000" font-family="sans-serif" font-size="14" lengthAdjust="spacing" textLength="140" x="42" y="424.7451">pb_colorCorrection</text><ellipse cx="33" cy="437.6953" fill="none" rx="3" ry="3" style="stroke:#038048;stroke-width:1.0;"/><text fill="#000000" font-family="sans-serif" font-size="14" lengthAdjust="spacing" textLength="79" x="42" y="441.042">spacer_bar</text><ellipse cx="33" cy="453.9922" fill="none" rx="3" ry="3" style="stroke:#038048;stroke-width:1.0;"/><text fill="#000000" font-family="sans-serif" font-size="14" lengthAdjust="spacing" textLength="128" x="42" y="457.3389">gv_Principal_imag</text><ellipse cx="33" cy="470.2891" fill="none" rx="3" ry="3" style="stroke:#038048;stroke-width:1.0;"/><text fill="#000000" font-family="sans-serif" font-size="14" lengthAdjust="spacing" textLength="91" x="42" y="473.6357">fm_list_imag</text><ellipse cx="33" cy="486.5859" fill="none" rx="3" ry="3" style="stroke:#038048;stroke-width:1.0;"/><text fill="#000000" font-family="sans-serif" font-size="14" lengthAdjust="spacing" textLength="156" x="42" y="489.9326">LayoutH_fm_list_imag</text><ellipse cx="33" cy="502.8828" fill="none" rx="3" ry="3" style="stroke:#038048;stroke-width:1.0;"/><text fill="#000000" font-family="sans-serif" font-size="14" lengthAdjust="spacing" textLength="85" x="42" y="506.2295">lb_list_imag</text><ellipse cx="33" cy="519.1797" fill="none" rx="3" ry="3" style="stroke:#038048;stroke-width:1.0;"/><text fill="#000000" font-family="sans-serif" font-size="14" lengthAdjust="spacing" textLength="85" x="42" y="522.5264">Color_repro</text><ellipse cx="33" cy="535.4766" fill="none" rx="3" ry="3" style="stroke:#038048;stroke-width:1.0;"/><text fill="#000000" font-family="sans-serif" font-size="14" lengthAdjust="spacing" textLength="127" x="42" y="538.8232">imagenesCarpeta</text><ellipse cx="33" cy="551.7734" fill="none" rx="3" ry="3" style="stroke:#038048;stroke-width:1.0;"/><text fill="#000000" font-family="sans-serif" font-size="14" lengthAdjust="spacing" textLength="90" x="42" y="555.1201">index_PImag</text><line style="stroke:#181818;stroke-width:0.5;" x1="23" x2="337" y1="562.4219" y2="562.4219"/><ellipse cx="33" cy="576.0703" fill="#84BE84" rx="3" ry="3" style="stroke:#038048;stroke-width:1.0;"/><text fill="#000000" font-family="sans-serif" font-size="14" lengthAdjust="spacing" textLength="62" x="42" y="579.417">__init__()</text><ellipse cx="33" cy="592.3672" fill="#84BE84" rx="3" ry="3" style="stroke:#038048;stroke-width:1.0;"/><text fill="#000000" font-family="sans-serif" font-size="14" lengthAdjust="spacing" textLength="120" x="42" y="595.7139">Structure_Page()</text><ellipse cx="33" cy="608.6641" fill="#84BE84" rx="3" ry="3" style="stroke:#038048;stroke-width:1.0;"/><text fill="#000000" font-family="sans-serif" font-size="14" lengthAdjust="spacing" textLength="100" x="42" y="612.0107">Names_Page()</text><ellipse cx="33" cy="624.9609" fill="#84BE84" rx="3" ry="3" style="stroke:#038048;stroke-width:1.0;"/><text fill="#000000" font-family="sans-serif" font-size="14" lengthAdjust="spacing" textLength="128" x="42" y="628.3076">Control_Buttons()</text><ellipse cx="33" cy="641.2578" fill="#84BE84" rx="3" ry="3" style="stroke:#038048;stroke-width:1.0;"/><text fill="#000000" font-family="sans-serif" font-size="14" lengthAdjust="spacing" textLength="212" x="42" y="644.6045">Control_pb_colorReproduce()</text><ellipse cx="33" cy="657.5547" fill="#84BE84" rx="3" ry="3" style="stroke:#038048;stroke-width:1.0;"/><text fill="#000000" font-family="sans-serif" font-size="14" lengthAdjust="spacing" textLength="210" x="42" y="660.9014">Control_pb_charge_capture()</text><ellipse cx="33" cy="673.8516" fill="#84BE84" rx="3" ry="3" style="stroke:#038048;stroke-width:1.0;"/><text fill="#000000" font-family="sans-serif" font-size="14" lengthAdjust="spacing" textLength="119" x="42" y="677.1982">Charge_Images()</text><ellipse cx="33" cy="690.1484" fill="#84BE84" rx="3" ry="3" style="stroke:#038048;stroke-width:1.0;"/><text fill="#000000" font-family="sans-serif" font-size="14" lengthAdjust="spacing" textLength="153" x="42" y="693.4951">Charge_lb_list_imag()</text><ellipse cx="33" cy="706.4453" fill="#84BE84" rx="3" ry="3" style="stroke:#038048;stroke-width:1.0;"/><text fill="#000000" font-family="sans-serif" font-size="14" lengthAdjust="spacing" textLength="194" x="42" y="709.792">Control_pb_next_capture()</text><ellipse cx="33" cy="722.7422" fill="#84BE84" rx="3" ry="3" style="stroke:#038048;stroke-width:1.0;"/><text fill="#000000" font-family="sans-serif" font-size="14" lengthAdjust="spacing" textLength="197" x="42" y="726.0889">Control_pb_after_capture()</text><ellipse cx="33" cy="739.0391" fill="#84BE84" rx="3" ry="3" style="stroke:#038048;stroke-width:1.0;"/><text fill="#000000" font-family="sans-serif" font-size="14" lengthAdjust="spacing" textLength="112" x="42" y="742.3857">convert_cv_qt()</text></g><!--MD5=[3e3f16721f1fb369e45a968cb01568b2]
class QWidget--><g id="elem_QWidget"><rect fill="#F1F1F1" height="48" id="QWidget" rx="2.5" ry="2.5" style="stroke:#181818;stroke-width:0.5;" width="95" x="132.5" y="7"/><ellipse cx="147.5" cy="23" fill="#ADD1B2" rx="11" ry="11" style="stroke:#181818;stroke-width:1.0;"/><path d="M149.8438,18.6719 C148.9063,18.2344 148.3125,18.0938 147.4375,18.0938 C144.8125,18.0938 142.8125,20.1719 142.8125,22.8906 L142.8125,24.0156 C142.8125,26.5938 144.9219,28.4844 147.8125,28.4844 C149.0313,28.4844 150.1875,28.1875 150.9375,27.6406 C151.5156,27.2344 151.8438,26.7813 151.8438,26.3906 C151.8438,25.9375 151.4531,25.5469 150.9844,25.5469 C150.7656,25.5469 150.5625,25.625 150.375,25.8125 C149.9219,26.2969 149.9219,26.2969 149.7344,26.3906 C149.3125,26.6563 148.625,26.7813 147.8594,26.7813 C145.8125,26.7813 144.5156,25.6875 144.5156,23.9844 L144.5156,22.8906 C144.5156,21.1094 145.7656,19.7969 147.5,19.7969 C148.0781,19.7969 148.6875,19.9531 149.1563,20.2031 C149.6406,20.4844 149.8125,20.7031 149.9063,21.1094 C149.9688,21.5156 150,21.6406 150.1406,21.7656 C150.2813,21.9063 150.5156,22.0156 150.7344,22.0156 C151,22.0156 151.2656,21.875 151.4375,21.6563 C151.5469,21.5 151.5781,21.3125 151.5781,20.8906 L151.5781,19.4688 C151.5781,19.0313 151.5625,18.9063 151.4688,18.75 C151.3125,18.4844 151.0313,18.3438 150.7344,18.3438 C150.4375,18.3438 150.2344,18.4375 150.0156,18.75 L149.8438,18.6719 Z " fill="#000000"/><text fill="#000000" font-family="sans-serif" font-size="14" lengthAdjust="spacing" textLength="63" x="161.5" y="27.8467">QWidget</text><line style="stroke:#181818;stroke-width:0.5;" x1="133.5" x2="226.5" y1="39" y2="39"/><line style="stroke:#181818;stroke-width:0.5;" x1="133.5" x2="226.5" y1="47" y2="47"/></g><!--MD5=[fc46cea28d42f14d282906564eb5c37c]
reverse link QWidget to Page_ColorReproduction--><g id="link_QWidget_Page_ColorReproduction"><path codeLine="41" d="M180,75.458 C180,86.947 180,100.271 180,114.883 " fill="none" id="QWidget-backto-Page_ColorReproduction" style="stroke:#181818;stroke-width:1.0;"/><polygon fill="none" points="173,75.206,180,55.206,187,75.206,173,75.206" style="stroke:#181818;stroke-width:1.0;"/></g><!--MD5=[20bb6321f717b5beea8b8df8d07502c5]
@startuml
package Page_ColorReproduction {
  class Page_ColorReproduction
  Page_ColorReproduction : +__init__()
  Page_ColorReproduction : +Structure_Page()
  Page_ColorReproduction : +Names_Page()
  Page_ColorReproduction : +Control_Buttons()
  Page_ColorReproduction : +Control_pb_colorReproduce()
  Page_ColorReproduction : +Control_pb_charge_capture()
  Page_ColorReproduction : +Charge_Images()
  Page_ColorReproduction : +Charge_lb_list_imag()
  Page_ColorReproduction : +Control_pb_next_capture()
  Page_ColorReproduction : +Control_pb_after_capture()
  Page_ColorReproduction : +convert_cv_qt()
  Page_ColorReproduction : +App
  Page_ColorReproduction : +LayoutV_Prin
  Page_ColorReproduction : +fm_control_ColorReproduction
  Page_ColorReproduction : +LayoutH_fm_control_capture
  Page_ColorReproduction : +pb_charge_data
  Page_ColorReproduction : +pb_charge_capture
  Page_ColorReproduction : +pb_after_capture
  Page_ColorReproduction : +pb_next_capture
  Page_ColorReproduction : +pb_save_viewer
  Page_ColorReproduction : +pb_clean_capture
  Page_ColorReproduction : +lb_wavelenth_capture
  Page_ColorReproduction : +fm_options_ColorReproduction
  Page_ColorReproduction : +LayoutH_fm_options_ColorReproduction
  Page_ColorReproduction : +pb_colorReproduce
  Page_ColorReproduction : +pb_masks
  Page_ColorReproduction : +pb_ecualizacion
  Page_ColorReproduction : +pb_colorCorrection
  Page_ColorReproduction : +spacer_bar
  Page_ColorReproduction : +gv_Principal_imag
  Page_ColorReproduction : +fm_list_imag
  Page_ColorReproduction : +LayoutH_fm_list_imag
  Page_ColorReproduction : +lb_list_imag
  Page_ColorReproduction : +Color_repro
  Page_ColorReproduction : +imagenesCarpeta
  Page_ColorReproduction : +index_PImag
}

QWidget <|- - Page_ColorReproduction
@enduml

PlantUML version 1.2022.13beta2(Unknown compile time)
(GPL source distribution)
Java Runtime: Java(TM) SE Runtime Environment
JVM: Java HotSpot(TM) 64-Bit Server VM
Default Encoding: UTF-8
Language: en
Country: US
--></g></svg>