<?xml version="1.0" encoding="UTF-8" standalone="no"?><svg xmlns="http://www.w3.org/2000/svg" xmlns:xlink="http://www.w3.org/1999/xlink" contentStyleType="text/css" height="284px" preserveAspectRatio="none" style="width:249px;height:284px;background:#FFFFFF;" version="1.1" viewBox="0 0 249 284" width="249px" zoomAndPan="magnify"><defs/><g><!--MD5=[6cd519e09be7860c502e39032880c306]
cluster Stacked_Pages--><g id="cluster_Stacked_Pages"><path d="M8.5,80 L129.5,80 A3.75,3.75 0 0 1 132,82.5 L139,102.2969 L239.5,102.2969 A2.5,2.5 0 0 1 242,104.7969 L242,274.5 A2.5,2.5 0 0 1 239.5,277 L8.5,277 A2.5,2.5 0 0 1 6,274.5 L6,82.5 A2.5,2.5 0 0 1 8.5,80 " fill="none" style="stroke:#000000;stroke-width:1.5;"/><line style="stroke:#000000;stroke-width:1.5;" x1="6" x2="139" y1="102.2969" y2="102.2969"/><text fill="#000000" font-family="sans-serif" font-size="14" font-weight="bold" lengthAdjust="spacing" textLength="120" x="10" y="94.9951">Stacked_Pages</text></g><!--MD5=[664442fd68fee994de95db45d44430e7]
class Stacked_Pages--><g id="elem_Stacked_Pages"><rect codeLine="2" fill="#F1F1F1" height="145.7813" id="Stacked_Pages" rx="2.5" ry="2.5" style="stroke:#181818;stroke-width:0.5;" width="203" x="22.5" y="115"/><ellipse cx="65.85" cy="131" fill="#ADD1B2" rx="11" ry="11" style="stroke:#181818;stroke-width:1.0;"/><path d="M68.1938,126.6719 C67.2563,126.2344 66.6625,126.0938 65.7875,126.0938 C63.1625,126.0938 61.1625,128.1719 61.1625,130.8906 L61.1625,132.0156 C61.1625,134.5938 63.2719,136.4844 66.1625,136.4844 C67.3813,136.4844 68.5375,136.1875 69.2875,135.6406 C69.8656,135.2344 70.1938,134.7813 70.1938,134.3906 C70.1938,133.9375 69.8031,133.5469 69.3344,133.5469 C69.1156,133.5469 68.9125,133.625 68.725,133.8125 C68.2719,134.2969 68.2719,134.2969 68.0844,134.3906 C67.6625,134.6563 66.975,134.7813 66.2094,134.7813 C64.1625,134.7813 62.8656,133.6875 62.8656,131.9844 L62.8656,130.8906 C62.8656,129.1094 64.1156,127.7969 65.85,127.7969 C66.4281,127.7969 67.0375,127.9531 67.5063,128.2031 C67.9906,128.4844 68.1625,128.7031 68.2563,129.1094 C68.3188,129.5156 68.35,129.6406 68.4906,129.7656 C68.6313,129.9063 68.8656,130.0156 69.0844,130.0156 C69.35,130.0156 69.6156,129.875 69.7875,129.6563 C69.8969,129.5 69.9281,129.3125 69.9281,128.8906 L69.9281,127.4688 C69.9281,127.0313 69.9125,126.9063 69.8188,126.75 C69.6625,126.4844 69.3813,126.3438 69.0844,126.3438 C68.7875,126.3438 68.5844,126.4375 68.3656,126.75 L68.1938,126.6719 Z " fill="#000000"/><text fill="#000000" font-family="sans-serif" font-size="14" lengthAdjust="spacing" textLength="108" x="86.15" y="135.8467">Stacked_Pages</text><line style="stroke:#181818;stroke-width:0.5;" x1="23.5" x2="224.5" y1="147" y2="147"/><ellipse cx="33.5" cy="160.6484" fill="none" rx="3" ry="3" style="stroke:#038048;stroke-width:1.0;"/><text fill="#000000" font-family="sans-serif" font-size="14" lengthAdjust="spacing" textLength="30" x="42.5" y="163.9951">App</text><ellipse cx="33.5" cy="176.9453" fill="none" rx="3" ry="3" style="stroke:#038048;stroke-width:1.0;"/><text fill="#000000" font-family="sans-serif" font-size="14" lengthAdjust="spacing" textLength="99" x="42.5" y="180.292">page_capture</text><ellipse cx="33.5" cy="193.2422" fill="none" rx="3" ry="3" style="stroke:#038048;stroke-width:1.0;"/><text fill="#000000" font-family="sans-serif" font-size="14" lengthAdjust="spacing" textLength="96" x="42.5" y="196.5889">page_camera</text><ellipse cx="33.5" cy="209.5391" fill="none" rx="3" ry="3" style="stroke:#038048;stroke-width:1.0;"/><text fill="#000000" font-family="sans-serif" font-size="14" lengthAdjust="spacing" textLength="116" x="42.5" y="212.8857">page_iluminator</text><ellipse cx="33.5" cy="225.8359" fill="none" rx="3" ry="3" style="stroke:#038048;stroke-width:1.0;"/><text fill="#000000" font-family="sans-serif" font-size="14" lengthAdjust="spacing" textLength="177" x="42.5" y="229.1826">page_colorReproduction</text><line style="stroke:#181818;stroke-width:0.5;" x1="23.5" x2="224.5" y1="236.4844" y2="236.4844"/><ellipse cx="33.5" cy="250.1328" fill="#84BE84" rx="3" ry="3" style="stroke:#038048;stroke-width:1.0;"/><text fill="#000000" font-family="sans-serif" font-size="14" lengthAdjust="spacing" textLength="62" x="42.5" y="253.4795">__init__()</text></g><!--MD5=[40f4e901eaf5fd2f3280e4147feb3e28]
class QStackedWidget--><g id="elem_QStackedWidget"><rect fill="#F1F1F1" height="48" id="QStackedWidget" rx="2.5" ry="2.5" style="stroke:#181818;stroke-width:0.5;" width="154" x="47" y="7"/><ellipse cx="62" cy="23" fill="#ADD1B2" rx="11" ry="11" style="stroke:#181818;stroke-width:1.0;"/><path d="M64.3438,18.6719 C63.4063,18.2344 62.8125,18.0938 61.9375,18.0938 C59.3125,18.0938 57.3125,20.1719 57.3125,22.8906 L57.3125,24.0156 C57.3125,26.5938 59.4219,28.4844 62.3125,28.4844 C63.5313,28.4844 64.6875,28.1875 65.4375,27.6406 C66.0156,27.2344 66.3438,26.7813 66.3438,26.3906 C66.3438,25.9375 65.9531,25.5469 65.4844,25.5469 C65.2656,25.5469 65.0625,25.625 64.875,25.8125 C64.4219,26.2969 64.4219,26.2969 64.2344,26.3906 C63.8125,26.6563 63.125,26.7813 62.3594,26.7813 C60.3125,26.7813 59.0156,25.6875 59.0156,23.9844 L59.0156,22.8906 C59.0156,21.1094 60.2656,19.7969 62,19.7969 C62.5781,19.7969 63.1875,19.9531 63.6563,20.2031 C64.1406,20.4844 64.3125,20.7031 64.4063,21.1094 C64.4688,21.5156 64.5,21.6406 64.6406,21.7656 C64.7813,21.9063 65.0156,22.0156 65.2344,22.0156 C65.5,22.0156 65.7656,21.875 65.9375,21.6563 C66.0469,21.5 66.0781,21.3125 66.0781,20.8906 L66.0781,19.4688 C66.0781,19.0313 66.0625,18.9063 65.9688,18.75 C65.8125,18.4844 65.5313,18.3438 65.2344,18.3438 C64.9375,18.3438 64.7344,18.4375 64.5156,18.75 L64.3438,18.6719 Z " fill="#000000"/><text fill="#000000" font-family="sans-serif" font-size="14" lengthAdjust="spacing" textLength="122" x="76" y="27.8467">QStackedWidget</text><line style="stroke:#181818;stroke-width:0.5;" x1="48" x2="200" y1="39" y2="39"/><line style="stroke:#181818;stroke-width:0.5;" x1="48" x2="200" y1="47" y2="47"/></g><!--MD5=[c742d6d2f5c92340afd5419745b47e73]
reverse link QStackedWidget to Stacked_Pages--><g id="link_QStackedWidget_Stacked_Pages"><path codeLine="11" d="M124,75.412 C124,87.69 124,101.395 124,114.881 " fill="none" id="QStackedWidget-backto-Stacked_Pages" style="stroke:#181818;stroke-width:1.0;"/><polygon fill="none" points="117,75.205,124,55.205,131,75.205,117,75.205" style="stroke:#181818;stroke-width:1.0;"/></g><!--MD5=[0d815c084b5afa60d610ec0916bbf67d]
@startuml
package Stacked_Pages {
  class Stacked_Pages
  Stacked_Pages : +__init__()
  Stacked_Pages : +App
  Stacked_Pages : +page_capture
  Stacked_Pages : +page_camera
  Stacked_Pages : +page_iluminator
  Stacked_Pages : +page_colorReproduction
}

QStackedWidget <|- - Stacked_Pages
@enduml

PlantUML version 1.2022.13beta2(Unknown compile time)
(GPL source distribution)
Java Runtime: Java(TM) SE Runtime Environment
JVM: Java HotSpot(TM) 64-Bit Server VM
Default Encoding: UTF-8
Language: en
Country: US
--></g></svg>