<?xml version="1.0" encoding="UTF-8" standalone="no"?><svg xmlns="http://www.w3.org/2000/svg" xmlns:xlink="http://www.w3.org/1999/xlink" contentStyleType="text/css" height="382px" preserveAspectRatio="none" style="width:209px;height:382px;background:#FFFFFF;" version="1.1" viewBox="0 0 209 382" width="209px" zoomAndPan="magnify"><defs/><g><!--MD5=[80e5dd7497fb5794defc78ce025c7ce4]
cluster Viewer--><g id="cluster_Viewer"><path d="M8.5,80 L63.5,80 A3.75,3.75 0 0 1 66,82.5 L73,102.2969 L199.5,102.2969 A2.5,2.5 0 0 1 202,104.7969 L202,372.5 A2.5,2.5 0 0 1 199.5,375 L8.5,375 A2.5,2.5 0 0 1 6,372.5 L6,82.5 A2.5,2.5 0 0 1 8.5,80 " fill="none" style="stroke:#000000;stroke-width:1.5;"/><line style="stroke:#000000;stroke-width:1.5;" x1="6" x2="73" y1="102.2969" y2="102.2969"/><text fill="#000000" font-family="sans-serif" font-size="14" font-weight="bold" lengthAdjust="spacing" textLength="54" x="10" y="94.9951">Viewer</text></g><!--MD5=[e6942bb3dc3af6df69a4b204b94b9e0a]
class Viewer--><g id="elem_Viewer"><rect codeLine="2" fill="#F1F1F1" height="243.5625" id="Viewer" rx="2.5" ry="2.5" style="stroke:#181818;stroke-width:0.5;" width="163" x="22.5" y="115"/><ellipse cx="75.25" cy="131" fill="#ADD1B2" rx="11" ry="11" style="stroke:#181818;stroke-width:1.0;"/><path d="M77.5938,126.6719 C76.6563,126.2344 76.0625,126.0938 75.1875,126.0938 C72.5625,126.0938 70.5625,128.1719 70.5625,130.8906 L70.5625,132.0156 C70.5625,134.5938 72.6719,136.4844 75.5625,136.4844 C76.7813,136.4844 77.9375,136.1875 78.6875,135.6406 C79.2656,135.2344 79.5938,134.7813 79.5938,134.3906 C79.5938,133.9375 79.2031,133.5469 78.7344,133.5469 C78.5156,133.5469 78.3125,133.625 78.125,133.8125 C77.6719,134.2969 77.6719,134.2969 77.4844,134.3906 C77.0625,134.6563 76.375,134.7813 75.6094,134.7813 C73.5625,134.7813 72.2656,133.6875 72.2656,131.9844 L72.2656,130.8906 C72.2656,129.1094 73.5156,127.7969 75.25,127.7969 C75.8281,127.7969 76.4375,127.9531 76.9063,128.2031 C77.3906,128.4844 77.5625,128.7031 77.6563,129.1094 C77.7188,129.5156 77.75,129.6406 77.8906,129.7656 C78.0313,129.9063 78.2656,130.0156 78.4844,130.0156 C78.75,130.0156 79.0156,129.875 79.1875,129.6563 C79.2969,129.5 79.3281,129.3125 79.3281,128.8906 L79.3281,127.4688 C79.3281,127.0313 79.3125,126.9063 79.2188,126.75 C79.0625,126.4844 78.7813,126.3438 78.4844,126.3438 C78.1875,126.3438 77.9844,126.4375 77.7656,126.75 L77.5938,126.6719 Z " fill="#000000"/><text fill="#000000" font-family="sans-serif" font-size="14" lengthAdjust="spacing" textLength="49" x="95.75" y="135.8467">Viewer</text><line style="stroke:#181818;stroke-width:0.5;" x1="23.5" x2="184.5" y1="147" y2="147"/><ellipse cx="33.5" cy="160.6484" fill="none" rx="3" ry="3" style="stroke:#038048;stroke-width:1.0;"/><text fill="#000000" font-family="sans-serif" font-size="14" lengthAdjust="spacing" textLength="30" x="42.5" y="163.9951">App</text><rect fill="none" height="6" style="stroke:#C82930;stroke-width:1.0;" width="6" x="30.5" y="173.9453"/><text fill="#000000" font-family="sans-serif" font-size="14" lengthAdjust="spacing" textLength="47" x="42.5" y="180.292">_zoom</text><rect fill="none" height="6" style="stroke:#C82930;stroke-width:1.0;" width="6" x="30.5" y="190.2422"/><text fill="#000000" font-family="sans-serif" font-size="14" lengthAdjust="spacing" textLength="55" x="42.5" y="196.5889">_empty</text><rect fill="none" height="6" style="stroke:#C82930;stroke-width:1.0;" width="6" x="30.5" y="206.5391"/><text fill="#000000" font-family="sans-serif" font-size="14" lengthAdjust="spacing" textLength="49" x="42.5" y="212.8857">_scene</text><rect fill="none" height="6" style="stroke:#C82930;stroke-width:1.0;" width="6" x="30.5" y="222.8359"/><text fill="#000000" font-family="sans-serif" font-size="14" lengthAdjust="spacing" textLength="51" x="42.5" y="229.1826">_photo</text><line style="stroke:#181818;stroke-width:0.5;" x1="23.5" x2="184.5" y1="236.4844" y2="236.4844"/><ellipse cx="33.5" cy="250.1328" fill="#84BE84" rx="3" ry="3" style="stroke:#038048;stroke-width:1.0;"/><text fill="#000000" font-family="sans-serif" font-size="14" lengthAdjust="spacing" textLength="62" x="42.5" y="253.4795">__init__()</text><ellipse cx="33.5" cy="266.4297" fill="#84BE84" rx="3" ry="3" style="stroke:#038048;stroke-width:1.0;"/><text fill="#000000" font-family="sans-serif" font-size="14" lengthAdjust="spacing" textLength="77" x="42.5" y="269.7764">hasPhoto()</text><ellipse cx="33.5" cy="282.7266" fill="#84BE84" rx="3" ry="3" style="stroke:#038048;stroke-width:1.0;"/><text fill="#000000" font-family="sans-serif" font-size="14" lengthAdjust="spacing" textLength="74" x="42.5" y="286.0732">fitInView()</text><ellipse cx="33.5" cy="299.0234" fill="#84BE84" rx="3" ry="3" style="stroke:#038048;stroke-width:1.0;"/><text fill="#000000" font-family="sans-serif" font-size="14" lengthAdjust="spacing" textLength="76" x="42.5" y="302.3701">setPhoto()</text><ellipse cx="33.5" cy="315.3203" fill="#84BE84" rx="3" ry="3" style="stroke:#038048;stroke-width:1.0;"/><text fill="#000000" font-family="sans-serif" font-size="14" lengthAdjust="spacing" textLength="94" x="42.5" y="318.667">wheelEvent()</text><ellipse cx="33.5" cy="331.6172" fill="#84BE84" rx="3" ry="3" style="stroke:#038048;stroke-width:1.0;"/><text fill="#000000" font-family="sans-serif" font-size="14" lengthAdjust="spacing" textLength="130" x="42.5" y="334.9639">toggleDragMode()</text><ellipse cx="33.5" cy="347.9141" fill="#84BE84" rx="3" ry="3" style="stroke:#038048;stroke-width:1.0;"/><text fill="#000000" font-family="sans-serif" font-size="14" lengthAdjust="spacing" textLength="137" x="42.5" y="351.2607">mousePressEvent()</text></g><!--MD5=[df0f218a5726a83eae9f9ed95ea3e502]
class QGraphicsView--><g id="elem_QGraphicsView"><rect fill="#F1F1F1" height="48" id="QGraphicsView" rx="2.5" ry="2.5" style="stroke:#181818;stroke-width:0.5;" width="140" x="34" y="7"/><ellipse cx="49" cy="23" fill="#ADD1B2" rx="11" ry="11" style="stroke:#181818;stroke-width:1.0;"/><path d="M51.3438,18.6719 C50.4063,18.2344 49.8125,18.0938 48.9375,18.0938 C46.3125,18.0938 44.3125,20.1719 44.3125,22.8906 L44.3125,24.0156 C44.3125,26.5938 46.4219,28.4844 49.3125,28.4844 C50.5313,28.4844 51.6875,28.1875 52.4375,27.6406 C53.0156,27.2344 53.3438,26.7813 53.3438,26.3906 C53.3438,25.9375 52.9531,25.5469 52.4844,25.5469 C52.2656,25.5469 52.0625,25.625 51.875,25.8125 C51.4219,26.2969 51.4219,26.2969 51.2344,26.3906 C50.8125,26.6563 50.125,26.7813 49.3594,26.7813 C47.3125,26.7813 46.0156,25.6875 46.0156,23.9844 L46.0156,22.8906 C46.0156,21.1094 47.2656,19.7969 49,19.7969 C49.5781,19.7969 50.1875,19.9531 50.6563,20.2031 C51.1406,20.4844 51.3125,20.7031 51.4063,21.1094 C51.4688,21.5156 51.5,21.6406 51.6406,21.7656 C51.7813,21.9063 52.0156,22.0156 52.2344,22.0156 C52.5,22.0156 52.7656,21.875 52.9375,21.6563 C53.0469,21.5 53.0781,21.3125 53.0781,20.8906 L53.0781,19.4688 C53.0781,19.0313 53.0625,18.9063 52.9688,18.75 C52.8125,18.4844 52.5313,18.3438 52.2344,18.3438 C51.9375,18.3438 51.7344,18.4375 51.5156,18.75 L51.3438,18.6719 Z " fill="#000000"/><text fill="#000000" font-family="sans-serif" font-size="14" lengthAdjust="spacing" textLength="108" x="63" y="27.8467">QGraphicsView</text><line style="stroke:#181818;stroke-width:0.5;" x1="35" x2="173" y1="39" y2="39"/><line style="stroke:#181818;stroke-width:0.5;" x1="35" x2="173" y1="47" y2="47"/></g><!--MD5=[7029a315cb1929200ef19c35853a5221]
reverse link QGraphicsView to Viewer--><g id="link_QGraphicsView_Viewer"><path codeLine="17" d="M104,75.02 C104,86.936 104,100.487 104,114.551 " fill="none" id="QGraphicsView-backto-Viewer" style="stroke:#181818;stroke-width:1.0;"/><polygon fill="none" points="97,75.005,104,55.005,111,75.005,97,75.005" style="stroke:#181818;stroke-width:1.0;"/></g><!--MD5=[3130b390c8d37a7c377b01e4003d9227]
@startuml
package Viewer {
  class Viewer
  Viewer : +__init__()
  Viewer : +hasPhoto()
  Viewer : +fitInView()
  Viewer : +setPhoto()
  Viewer : +wheelEvent()
  Viewer : +toggleDragMode()
  Viewer : +mousePressEvent()
  Viewer : +App
  Viewer : -_zoom
  Viewer : -_empty
  Viewer : -_scene
  Viewer : -_photo
}

QGraphicsView <|- - Viewer
@enduml

PlantUML version 1.2022.13beta2(Unknown compile time)
(GPL source distribution)
Java Runtime: Java(TM) SE Runtime Environment
JVM: Java HotSpot(TM) 64-Bit Server VM
Default Encoding: UTF-8
Language: en
Country: US
--></g></svg>