<?xml version="1.0" encoding="UTF-8" standalone="no"?><svg xmlns="http://www.w3.org/2000/svg" xmlns:xlink="http://www.w3.org/1999/xlink" contentStyleType="text/css" height="300px" preserveAspectRatio="none" style="width:307px;height:300px;background:#FFFFFF;" version="1.1" viewBox="0 0 307 300" width="307px" zoomAndPan="magnify"><defs/><g><!--MD5=[2e009976ed8bb305610e81e9d60201ea]
cluster Virtual_Iluminator_MultiSpectral--><g id="cluster_Virtual_Iluminator_MultiSpectral"><path d="M8.5,80 L274.5,80 A3.75,3.75 0 0 1 277,82.5 L284,102.2969 L297.5,102.2969 A2.5,2.5 0 0 1 300,104.7969 L300,290.5 A2.5,2.5 0 0 1 297.5,293 L8.5,293 A2.5,2.5 0 0 1 6,290.5 L6,82.5 A2.5,2.5 0 0 1 8.5,80 " fill="none" style="stroke:#000000;stroke-width:1.5;"/><line style="stroke:#000000;stroke-width:1.5;" x1="6" x2="284" y1="102.2969" y2="102.2969"/><text fill="#000000" font-family="sans-serif" font-size="14" font-weight="bold" lengthAdjust="spacing" textLength="265" x="10" y="94.9951">Virtual_Iluminator_MultiSpectral</text></g><!--MD5=[c68d35bac4ae380e56d1453b67f3b97d]
class Virtual_Iluminator_MultiSpectral--><g id="elem_Virtual_Iluminator_MultiSpectral"><rect codeLine="2" fill="#F1F1F1" height="162.0781" id="Virtual_Iluminator_MultiSpectral" rx="2.5" ry="2.5" style="stroke:#181818;stroke-width:0.5;" width="262" x="22" y="115"/><ellipse cx="37" cy="131" fill="#ADD1B2" rx="11" ry="11" style="stroke:#181818;stroke-width:1.0;"/><path d="M39.3438,126.6719 C38.4063,126.2344 37.8125,126.0938 36.9375,126.0938 C34.3125,126.0938 32.3125,128.1719 32.3125,130.8906 L32.3125,132.0156 C32.3125,134.5938 34.4219,136.4844 37.3125,136.4844 C38.5313,136.4844 39.6875,136.1875 40.4375,135.6406 C41.0156,135.2344 41.3438,134.7813 41.3438,134.3906 C41.3438,133.9375 40.9531,133.5469 40.4844,133.5469 C40.2656,133.5469 40.0625,133.625 39.875,133.8125 C39.4219,134.2969 39.4219,134.2969 39.2344,134.3906 C38.8125,134.6563 38.125,134.7813 37.3594,134.7813 C35.3125,134.7813 34.0156,133.6875 34.0156,131.9844 L34.0156,130.8906 C34.0156,129.1094 35.2656,127.7969 37,127.7969 C37.5781,127.7969 38.1875,127.9531 38.6563,128.2031 C39.1406,128.4844 39.3125,128.7031 39.4063,129.1094 C39.4688,129.5156 39.5,129.6406 39.6406,129.7656 C39.7813,129.9063 40.0156,130.0156 40.2344,130.0156 C40.5,130.0156 40.7656,129.875 40.9375,129.6563 C41.0469,129.5 41.0781,129.3125 41.0781,128.8906 L41.0781,127.4688 C41.0781,127.0313 41.0625,126.9063 40.9688,126.75 C40.8125,126.4844 40.5313,126.3438 40.2344,126.3438 C39.9375,126.3438 39.7344,126.4375 39.5156,126.75 L39.3438,126.6719 Z " fill="#000000"/><text fill="#000000" font-family="sans-serif" font-size="14" lengthAdjust="spacing" textLength="230" x="51" y="135.8467">Virtual_Iluminator_MultiSpectral</text><line style="stroke:#181818;stroke-width:0.5;" x1="23" x2="283" y1="147" y2="147"/><ellipse cx="33" cy="160.6484" fill="none" rx="3" ry="3" style="stroke:#038048;stroke-width:1.0;"/><text fill="#000000" font-family="sans-serif" font-size="14" lengthAdjust="spacing" textLength="59" x="42" y="163.9951">leds_act</text><line style="stroke:#181818;stroke-width:0.5;" x1="23" x2="283" y1="171.2969" y2="171.2969"/><ellipse cx="33" cy="184.9453" fill="#84BE84" rx="3" ry="3" style="stroke:#038048;stroke-width:1.0;"/><text fill="#000000" font-family="sans-serif" font-size="14" lengthAdjust="spacing" textLength="62" x="42" y="188.292">__init__()</text><ellipse cx="33" cy="201.2422" fill="#84BE84" rx="3" ry="3" style="stroke:#038048;stroke-width:1.0;"/><text fill="#000000" font-family="sans-serif" font-size="14" lengthAdjust="spacing" textLength="135" x="42" y="204.5889">config_attributes()</text><ellipse cx="33" cy="217.5391" fill="#84BE84" rx="3" ry="3" style="stroke:#038048;stroke-width:1.0;"/><text fill="#000000" font-family="sans-serif" font-size="14" lengthAdjust="spacing" textLength="91" x="42" y="220.8857">config_leds()</text><ellipse cx="33" cy="233.8359" fill="#84BE84" rx="3" ry="3" style="stroke:#038048;stroke-width:1.0;"/><text fill="#000000" font-family="sans-serif" font-size="14" lengthAdjust="spacing" textLength="97" x="42" y="237.1826">config_PWM()</text><ellipse cx="33" cy="250.1328" fill="#84BE84" rx="3" ry="3" style="stroke:#038048;stroke-width:1.0;"/><text fill="#000000" font-family="sans-serif" font-size="14" lengthAdjust="spacing" textLength="120" x="42" y="253.4795">config_list_leds()</text><ellipse cx="33" cy="266.4297" fill="#84BE84" rx="3" ry="3" style="stroke:#038048;stroke-width:1.0;"/><text fill="#000000" font-family="sans-serif" font-size="14" lengthAdjust="spacing" textLength="71" x="42" y="269.7764">get_leds()</text></g><!--MD5=[341083328da1c5e7aa06f621f214d918]
class Iluminator_MultiSpectral--><g id="elem_Iluminator_MultiSpectral"><rect fill="#F1F1F1" height="48" id="Iluminator_MultiSpectral" rx="2.5" ry="2.5" style="stroke:#181818;stroke-width:0.5;" width="208" x="49" y="7"/><ellipse cx="64" cy="23" fill="#ADD1B2" rx="11" ry="11" style="stroke:#181818;stroke-width:1.0;"/><path d="M66.3438,18.6719 C65.4063,18.2344 64.8125,18.0938 63.9375,18.0938 C61.3125,18.0938 59.3125,20.1719 59.3125,22.8906 L59.3125,24.0156 C59.3125,26.5938 61.4219,28.4844 64.3125,28.4844 C65.5313,28.4844 66.6875,28.1875 67.4375,27.6406 C68.0156,27.2344 68.3438,26.7813 68.3438,26.3906 C68.3438,25.9375 67.9531,25.5469 67.4844,25.5469 C67.2656,25.5469 67.0625,25.625 66.875,25.8125 C66.4219,26.2969 66.4219,26.2969 66.2344,26.3906 C65.8125,26.6563 65.125,26.7813 64.3594,26.7813 C62.3125,26.7813 61.0156,25.6875 61.0156,23.9844 L61.0156,22.8906 C61.0156,21.1094 62.2656,19.7969 64,19.7969 C64.5781,19.7969 65.1875,19.9531 65.6563,20.2031 C66.1406,20.4844 66.3125,20.7031 66.4063,21.1094 C66.4688,21.5156 66.5,21.6406 66.6406,21.7656 C66.7813,21.9063 67.0156,22.0156 67.2344,22.0156 C67.5,22.0156 67.7656,21.875 67.9375,21.6563 C68.0469,21.5 68.0781,21.3125 68.0781,20.8906 L68.0781,19.4688 C68.0781,19.0313 68.0625,18.9063 67.9688,18.75 C67.8125,18.4844 67.5313,18.3438 67.2344,18.3438 C66.9375,18.3438 66.7344,18.4375 66.5156,18.75 L66.3438,18.6719 Z " fill="#000000"/><text fill="#000000" font-family="sans-serif" font-size="14" lengthAdjust="spacing" textLength="176" x="78" y="27.8467">Iluminator_MultiSpectral</text><line style="stroke:#181818;stroke-width:0.5;" x1="50" x2="256" y1="39" y2="39"/><line style="stroke:#181818;stroke-width:0.5;" x1="50" x2="256" y1="47" y2="47"/></g><!--MD5=[ec90297fbbce8ff34b3e082b3ea665ef]
reverse link Iluminator_MultiSpectral to Virtual_Iluminator_MultiSpectral--><g id="link_Iluminator_MultiSpectral_Virtual_Iluminator_MultiSpectral"><path codeLine="12" d="M153,75.06 C153,87.282 153,101.001 153,114.675 " fill="none" id="Iluminator_MultiSpectral-backto-Virtual_Iluminator_MultiSpectral" style="stroke:#181818;stroke-width:1.0;"/><polygon fill="none" points="146,75.008,153,55.008,160,75.008,146,75.008" style="stroke:#181818;stroke-width:1.0;"/></g><!--MD5=[1003fc0ed133c6337edef86206371578]
@startuml
package Virtual_Iluminator_MultiSpectral {
  class Virtual_Iluminator_MultiSpectral
  Virtual_Iluminator_MultiSpectral : +__init__()
  Virtual_Iluminator_MultiSpectral : +config_attributes()
  Virtual_Iluminator_MultiSpectral : +config_leds()
  Virtual_Iluminator_MultiSpectral : +config_PWM()
  Virtual_Iluminator_MultiSpectral : +config_list_leds()
  Virtual_Iluminator_MultiSpectral : +get_leds()
  Virtual_Iluminator_MultiSpectral : +leds_act
}

Iluminator_MultiSpectral <|- - Virtual_Iluminator_MultiSpectral
@enduml

PlantUML version 1.2022.13beta2(Unknown compile time)
(GPL source distribution)
Java Runtime: Java(TM) SE Runtime Environment
JVM: Java HotSpot(TM) 64-Bit Server VM
Default Encoding: UTF-8
Language: en
Country: US
--></g></svg>