<?xml version="1.0" encoding="UTF-8" standalone="no"?><svg xmlns="http://www.w3.org/2000/svg" xmlns:xlink="http://www.w3.org/1999/xlink" contentStyleType="text/css" height="1025px" preserveAspectRatio="none" style="width:307px;height:1025px;background:#FFFFFF;" version="1.1" viewBox="0 0 307 1025" width="307px" zoomAndPan="magnify"><defs/><g><!--MD5=[71dba6d95bec4b82af030ecb0c4b3b65]
cluster VirtualCam--><g id="cluster_VirtualCam"><path d="M8.5,6 L100.5,6 A3.75,3.75 0 0 1 103,8.5 L110,28.2969 L297.5,28.2969 A2.5,2.5 0 0 1 300,30.7969 L300,1015.5 A2.5,2.5 0 0 1 297.5,1018 L8.5,1018 A2.5,2.5 0 0 1 6,1015.5 L6,8.5 A2.5,2.5 0 0 1 8.5,6 " fill="none" style="stroke:#000000;stroke-width:1.5;"/><line style="stroke:#000000;stroke-width:1.5;" x1="6" x2="110" y1="28.2969" y2="28.2969"/><text fill="#000000" font-family="sans-serif" font-size="14" font-weight="bold" lengthAdjust="spacing" textLength="91" x="10" y="20.9951">VirtualCam</text></g><!--MD5=[f60e4bb3c7829b1f9c1775049c8296d5]
class VirtualCam--><g id="elem_VirtualCam"><rect codeLine="2" fill="#F1F1F1" height="960.625" id="VirtualCam" rx="2.5" ry="2.5" style="stroke:#181818;stroke-width:0.5;" width="262" x="22" y="41"/><ellipse cx="109.25" cy="57" fill="#ADD1B2" rx="11" ry="11" style="stroke:#181818;stroke-width:1.0;"/><path d="M111.5938,52.6719 C110.6563,52.2344 110.0625,52.0938 109.1875,52.0938 C106.5625,52.0938 104.5625,54.1719 104.5625,56.8906 L104.5625,58.0156 C104.5625,60.5938 106.6719,62.4844 109.5625,62.4844 C110.7813,62.4844 111.9375,62.1875 112.6875,61.6406 C113.2656,61.2344 113.5938,60.7813 113.5938,60.3906 C113.5938,59.9375 113.2031,59.5469 112.7344,59.5469 C112.5156,59.5469 112.3125,59.625 112.125,59.8125 C111.6719,60.2969 111.6719,60.2969 111.4844,60.3906 C111.0625,60.6563 110.375,60.7813 109.6094,60.7813 C107.5625,60.7813 106.2656,59.6875 106.2656,57.9844 L106.2656,56.8906 C106.2656,55.1094 107.5156,53.7969 109.25,53.7969 C109.8281,53.7969 110.4375,53.9531 110.9063,54.2031 C111.3906,54.4844 111.5625,54.7031 111.6563,55.1094 C111.7188,55.5156 111.75,55.6406 111.8906,55.7656 C112.0313,55.9063 112.2656,56.0156 112.4844,56.0156 C112.75,56.0156 113.0156,55.875 113.1875,55.6563 C113.2969,55.5 113.3281,55.3125 113.3281,54.8906 L113.3281,53.4688 C113.3281,53.0313 113.3125,52.9063 113.2188,52.75 C113.0625,52.4844 112.7813,52.3438 112.4844,52.3438 C112.1875,52.3438 111.9844,52.4375 111.7656,52.75 L111.5938,52.6719 Z " fill="#000000"/><text fill="#000000" font-family="sans-serif" font-size="14" lengthAdjust="spacing" textLength="79" x="129.75" y="61.8467">VirtualCam</text><line style="stroke:#181818;stroke-width:0.5;" x1="23" x2="283" y1="73" y2="73"/><rect fill="none" height="6" style="stroke:#C82930;stroke-width:1.0;" width="6" x="30" y="83.6484"/><text fill="#000000" font-family="sans-serif" font-size="14" lengthAdjust="spacing" textLength="115" x="42" y="89.9951">__init_complete</text><rect fill="none" height="6" style="stroke:#C82930;stroke-width:1.0;" width="6" x="30" y="99.9453"/><text fill="#000000" font-family="sans-serif" font-size="14" lengthAdjust="spacing" textLength="67" x="42" y="106.292">__gamma</text><rect fill="none" height="6" style="stroke:#C82930;stroke-width:1.0;" width="6" x="30" y="116.2422"/><text fill="#000000" font-family="sans-serif" font-size="14" lengthAdjust="spacing" textLength="87" x="42" y="122.5889">__blacklevel</text><rect fill="none" height="6" style="stroke:#C82930;stroke-width:1.0;" width="6" x="30" y="132.5391"/><text fill="#000000" font-family="sans-serif" font-size="14" lengthAdjust="spacing" textLength="102" x="42" y="138.8857">__error_config</text><rect fill="none" height="6" style="stroke:#C82930;stroke-width:1.0;" width="6" x="30" y="148.8359"/><text fill="#000000" font-family="sans-serif" font-size="14" lengthAdjust="spacing" textLength="112" x="42" y="155.1826">__trigger_mode</text><rect fill="none" height="6" style="stroke:#C82930;stroke-width:1.0;" width="6" x="30" y="165.1328"/><text fill="#000000" font-family="sans-serif" font-size="14" lengthAdjust="spacing" textLength="119" x="42" y="171.4795">__exposure_auto</text><rect fill="none" height="6" style="stroke:#C82930;stroke-width:1.0;" width="6" x="30" y="181.4297"/><text fill="#000000" font-family="sans-serif" font-size="14" lengthAdjust="spacing" textLength="80" x="42" y="187.7764">__exposure</text><rect fill="none" height="6" style="stroke:#C82930;stroke-width:1.0;" width="6" x="30" y="197.7266"/><text fill="#000000" font-family="sans-serif" font-size="14" lengthAdjust="spacing" textLength="83" x="42" y="204.0732">__gain_auto</text><rect fill="none" height="6" style="stroke:#C82930;stroke-width:1.0;" width="6" x="30" y="214.0234"/><text fill="#000000" font-family="sans-serif" font-size="14" lengthAdjust="spacing" textLength="44" x="42" y="220.3701">__gain</text><rect fill="none" height="6" style="stroke:#C82930;stroke-width:1.0;" width="6" x="30" y="230.3203"/><text fill="#000000" font-family="sans-serif" font-size="14" lengthAdjust="spacing" textLength="125" x="42" y="236.667">__sharpness_auto</text><rect fill="none" height="6" style="stroke:#C82930;stroke-width:1.0;" width="6" x="30" y="246.6172"/><text fill="#000000" font-family="sans-serif" font-size="14" lengthAdjust="spacing" textLength="86" x="42" y="252.9639">__sharpness</text><rect fill="none" height="6" style="stroke:#C82930;stroke-width:1.0;" width="6" x="30" y="262.9141"/><text fill="#000000" font-family="sans-serif" font-size="14" lengthAdjust="spacing" textLength="107" x="42" y="269.2607">__buffer_mode</text><rect fill="none" height="6" style="stroke:#C82930;stroke-width:1.0;" width="6" x="30" y="279.2109"/><text fill="#000000" font-family="sans-serif" font-size="14" lengthAdjust="spacing" textLength="107" x="42" y="285.5576">__buffer_count</text><rect fill="none" height="6" style="stroke:#C82930;stroke-width:1.0;" width="6" x="30" y="295.5078"/><text fill="#000000" font-family="sans-serif" font-size="14" lengthAdjust="spacing" textLength="175" x="42" y="301.8545">__buffer_handling_mode</text><rect fill="none" height="6" style="stroke:#C82930;stroke-width:1.0;" width="6" x="30" y="311.8047"/><text fill="#000000" font-family="sans-serif" font-size="14" lengthAdjust="spacing" textLength="118" x="42" y="318.1514">__trigger_source</text><ellipse cx="33" cy="331.1016" fill="none" rx="3" ry="3" style="stroke:#038048;stroke-width:1.0;"/><text fill="#000000" font-family="sans-serif" font-size="14" lengthAdjust="spacing" textLength="69" x="42" y="334.4482">imagenes</text><ellipse cx="33" cy="347.3984" fill="none" rx="3" ry="3" style="stroke:#038048;stroke-width:1.0;"/><text fill="#000000" font-family="sans-serif" font-size="14" lengthAdjust="spacing" textLength="58" x="42" y="350.7451">iterador</text><rect fill="none" height="6" style="stroke:#C82930;stroke-width:1.0;" width="6" x="30" y="360.6953"/><text fill="#000000" font-family="sans-serif" font-size="14" lengthAdjust="spacing" textLength="96" x="42" y="367.042">__device_info</text><line style="stroke:#181818;stroke-width:0.5;" x1="23" x2="283" y1="374.3438" y2="374.3438"/><rect fill="#F24D5C" height="6" style="stroke:#C82930;stroke-width:1.0;" width="6" x="30" y="384.9922"/><text fill="#000000" font-family="sans-serif" font-size="14" lengthAdjust="spacing" textLength="121" x="42" y="391.3389">__init_atributes()</text><ellipse cx="33" cy="404.2891" fill="#84BE84" rx="3" ry="3" style="stroke:#038048;stroke-width:1.0;"/><text fill="#000000" font-family="sans-serif" font-size="14" lengthAdjust="spacing" textLength="94" x="42" y="407.6357">Device_Info()</text><ellipse cx="33" cy="420.5859" fill="#84BE84" rx="3" ry="3" style="stroke:#038048;stroke-width:1.0;"/><text fill="#000000" font-family="sans-serif" font-size="14" lengthAdjust="spacing" textLength="119" x="42" y="423.9326">Set_BlackLevel()</text><ellipse cx="33" cy="436.8828" fill="#84BE84" rx="3" ry="3" style="stroke:#038048;stroke-width:1.0;"/><text fill="#000000" font-family="sans-serif" font-size="14" lengthAdjust="spacing" textLength="97" x="42" y="440.2295">Set_Gamma()</text><ellipse cx="33" cy="453.1797" fill="#84BE84" rx="3" ry="3" style="stroke:#038048;stroke-width:1.0;"/><text fill="#000000" font-family="sans-serif" font-size="14" lengthAdjust="spacing" textLength="74" x="42" y="456.5264">Set_Gain()</text><ellipse cx="33" cy="469.4766" fill="#84BE84" rx="3" ry="3" style="stroke:#038048;stroke-width:1.0;"/><text fill="#000000" font-family="sans-serif" font-size="14" lengthAdjust="spacing" textLength="116" x="42" y="472.8232">Set_Sharpness()</text><ellipse cx="33" cy="485.7734" fill="#84BE84" rx="3" ry="3" style="stroke:#038048;stroke-width:1.0;"/><text fill="#000000" font-family="sans-serif" font-size="14" lengthAdjust="spacing" textLength="108" x="42" y="489.1201">Set_Exposure()</text><ellipse cx="33" cy="502.0703" fill="#84BE84" rx="3" ry="3" style="stroke:#038048;stroke-width:1.0;"/><text fill="#000000" font-family="sans-serif" font-size="14" lengthAdjust="spacing" textLength="115" x="42" y="505.417">Set_Gain_Auto()</text><ellipse cx="33" cy="518.3672" fill="#84BE84" rx="3" ry="3" style="stroke:#038048;stroke-width:1.0;"/><text fill="#000000" font-family="sans-serif" font-size="14" lengthAdjust="spacing" textLength="149" x="42" y="521.7139">Set_Exposure_Auto()</text><ellipse cx="33" cy="534.6641" fill="#84BE84" rx="3" ry="3" style="stroke:#038048;stroke-width:1.0;"/><text fill="#000000" font-family="sans-serif" font-size="14" lengthAdjust="spacing" textLength="157" x="42" y="538.0107">Set_Sharpness_Auto()</text><ellipse cx="33" cy="550.9609" fill="#84BE84" rx="3" ry="3" style="stroke:#038048;stroke-width:1.0;"/><text fill="#000000" font-family="sans-serif" font-size="14" lengthAdjust="spacing" textLength="140" x="42" y="554.3076">Set_Trigger_Mode()</text><ellipse cx="33" cy="567.2578" fill="#84BE84" rx="3" ry="3" style="stroke:#038048;stroke-width:1.0;"/><text fill="#000000" font-family="sans-serif" font-size="14" lengthAdjust="spacing" textLength="150" x="42" y="570.6045">Set_Trigger_Source()</text><ellipse cx="33" cy="583.5547" fill="#84BE84" rx="3" ry="3" style="stroke:#038048;stroke-width:1.0;"/><text fill="#000000" font-family="sans-serif" font-size="14" lengthAdjust="spacing" textLength="133" x="42" y="586.9014">Set_Buffer_Mode()</text><ellipse cx="33" cy="599.8516" fill="#84BE84" rx="3" ry="3" style="stroke:#038048;stroke-width:1.0;"/><text fill="#000000" font-family="sans-serif" font-size="14" lengthAdjust="spacing" textLength="137" x="42" y="603.1982">Set_Buffer_Count()</text><ellipse cx="33" cy="616.1484" fill="#84BE84" rx="3" ry="3" style="stroke:#038048;stroke-width:1.0;"/><text fill="#000000" font-family="sans-serif" font-size="14" lengthAdjust="spacing" textLength="202" x="42" y="619.4951">Set_Buffer_Handling_Mode()</text><ellipse cx="33" cy="632.4453" fill="#84BE84" rx="3" ry="3" style="stroke:#038048;stroke-width:1.0;"/><text fill="#000000" font-family="sans-serif" font-size="14" lengthAdjust="spacing" textLength="236" x="42" y="635.792">Mode_Acquisition_Multispectral()</text><ellipse cx="33" cy="648.7422" fill="#84BE84" rx="3" ry="3" style="stroke:#038048;stroke-width:1.0;"/><text fill="#000000" font-family="sans-serif" font-size="14" lengthAdjust="spacing" textLength="183" x="42" y="652.0889">Mode_Acquisition_Video()</text><ellipse cx="33" cy="665.0391" fill="#84BE84" rx="3" ry="3" style="stroke:#038048;stroke-width:1.0;"/><text fill="#000000" font-family="sans-serif" font-size="14" lengthAdjust="spacing" textLength="115" x="42" y="668.3857">Acquire_Image()</text><ellipse cx="33" cy="681.3359" fill="#84BE84" rx="3" ry="3" style="stroke:#038048;stroke-width:1.0;"/><text fill="#000000" font-family="sans-serif" font-size="14" lengthAdjust="spacing" textLength="120" x="42" y="684.6826">Init_Acquisition()</text><ellipse cx="33" cy="697.6328" fill="#84BE84" rx="3" ry="3" style="stroke:#038048;stroke-width:1.0;"/><text fill="#000000" font-family="sans-serif" font-size="14" lengthAdjust="spacing" textLength="123" x="42" y="700.9795">End_Acquisition()</text><ellipse cx="33" cy="713.9297" fill="#84BE84" rx="3" ry="3" style="stroke:#038048;stroke-width:1.0;"/><text fill="#000000" font-family="sans-serif" font-size="14" lengthAdjust="spacing" textLength="124" x="42" y="717.2764">get_device_info()</text><ellipse cx="33" cy="730.2266" fill="#84BE84" rx="3" ry="3" style="stroke:#038048;stroke-width:1.0;"/><text fill="#000000" font-family="sans-serif" font-size="14" lengthAdjust="spacing" textLength="143" x="42" y="733.5732">get_init_complete()</text><ellipse cx="33" cy="746.5234" fill="#84BE84" rx="3" ry="3" style="stroke:#038048;stroke-width:1.0;"/><text fill="#000000" font-family="sans-serif" font-size="14" lengthAdjust="spacing" textLength="130" x="42" y="749.8701">get_error_config()</text><ellipse cx="33" cy="762.8203" fill="#84BE84" rx="3" ry="3" style="stroke:#038048;stroke-width:1.0;"/><text fill="#000000" font-family="sans-serif" font-size="14" lengthAdjust="spacing" textLength="140" x="42" y="766.167">get_trigger_mode()</text><ellipse cx="33" cy="779.1172" fill="#84BE84" rx="3" ry="3" style="stroke:#038048;stroke-width:1.0;"/><text fill="#000000" font-family="sans-serif" font-size="14" lengthAdjust="spacing" textLength="147" x="42" y="782.4639">get_exposure_auto()</text><ellipse cx="33" cy="795.4141" fill="#84BE84" rx="3" ry="3" style="stroke:#038048;stroke-width:1.0;"/><text fill="#000000" font-family="sans-serif" font-size="14" lengthAdjust="spacing" textLength="111" x="42" y="798.7607">get_gain_auto()</text><ellipse cx="33" cy="811.7109" fill="#84BE84" rx="3" ry="3" style="stroke:#038048;stroke-width:1.0;"/><text fill="#000000" font-family="sans-serif" font-size="14" lengthAdjust="spacing" textLength="153" x="42" y="815.0576">get_sharpness_auto()</text><ellipse cx="33" cy="828.0078" fill="#84BE84" rx="3" ry="3" style="stroke:#038048;stroke-width:1.0;"/><text fill="#000000" font-family="sans-serif" font-size="14" lengthAdjust="spacing" textLength="146" x="42" y="831.3545">get_trigger_source()</text><ellipse cx="33" cy="844.3047" fill="#84BE84" rx="3" ry="3" style="stroke:#038048;stroke-width:1.0;"/><text fill="#000000" font-family="sans-serif" font-size="14" lengthAdjust="spacing" textLength="135" x="42" y="847.6514">get_buffer_mode()</text><ellipse cx="33" cy="860.6016" fill="#84BE84" rx="3" ry="3" style="stroke:#038048;stroke-width:1.0;"/><text fill="#000000" font-family="sans-serif" font-size="14" lengthAdjust="spacing" textLength="135" x="42" y="863.9482">get_buffer_count()</text><ellipse cx="33" cy="876.8984" fill="#84BE84" rx="3" ry="3" style="stroke:#038048;stroke-width:1.0;"/><text fill="#000000" font-family="sans-serif" font-size="14" lengthAdjust="spacing" textLength="203" x="42" y="880.2451">get_buffer_handling_mode()</text><ellipse cx="33" cy="893.1953" fill="#84BE84" rx="3" ry="3" style="stroke:#038048;stroke-width:1.0;"/><text fill="#000000" font-family="sans-serif" font-size="14" lengthAdjust="spacing" textLength="72" x="42" y="896.542">get_gain()</text><ellipse cx="33" cy="909.4922" fill="#84BE84" rx="3" ry="3" style="stroke:#038048;stroke-width:1.0;"/><text fill="#000000" font-family="sans-serif" font-size="14" lengthAdjust="spacing" textLength="115" x="42" y="912.8389">get_blacklevel()</text><ellipse cx="33" cy="925.7891" fill="#84BE84" rx="3" ry="3" style="stroke:#038048;stroke-width:1.0;"/><text fill="#000000" font-family="sans-serif" font-size="14" lengthAdjust="spacing" textLength="114" x="42" y="929.1357">get_sharpness()</text><ellipse cx="33" cy="942.0859" fill="#84BE84" rx="3" ry="3" style="stroke:#038048;stroke-width:1.0;"/><text fill="#000000" font-family="sans-serif" font-size="14" lengthAdjust="spacing" textLength="95" x="42" y="945.4326">get_gamma()</text><ellipse cx="33" cy="958.3828" fill="#84BE84" rx="3" ry="3" style="stroke:#038048;stroke-width:1.0;"/><text fill="#000000" font-family="sans-serif" font-size="14" lengthAdjust="spacing" textLength="108" x="42" y="961.7295">get_exposure()</text><ellipse cx="33" cy="974.6797" fill="#84BE84" rx="3" ry="3" style="stroke:#038048;stroke-width:1.0;"/><text fill="#000000" font-family="sans-serif" font-size="14" lengthAdjust="spacing" textLength="52" x="42" y="978.0264">Reset()</text><ellipse cx="33" cy="990.9766" fill="#84BE84" rx="3" ry="3" style="stroke:#038048;stroke-width:1.0;"/><text fill="#000000" font-family="sans-serif" font-size="14" lengthAdjust="spacing" textLength="60" x="42" y="994.3232">__del__()</text></g><!--MD5=[3324605aafe2444a0fb1d7b7affeb194]
@startuml
package VirtualCam {
  class VirtualCam
  VirtualCam : -__init_atributes()
  VirtualCam : +Device_Info()
  VirtualCam : +Set_BlackLevel()
  VirtualCam : +Set_Gamma()
  VirtualCam : +Set_Gain()
  VirtualCam : +Set_Sharpness()
  VirtualCam : +Set_Exposure()
  VirtualCam : +Set_Gain_Auto()
  VirtualCam : +Set_Exposure_Auto()
  VirtualCam : +Set_Sharpness_Auto()
  VirtualCam : +Set_Trigger_Mode()
  VirtualCam : +Set_Trigger_Source()
  VirtualCam : +Set_Buffer_Mode()
  VirtualCam : +Set_Buffer_Count()
  VirtualCam : +Set_Buffer_Handling_Mode()
  VirtualCam : +Mode_Acquisition_Multispectral()
  VirtualCam : +Mode_Acquisition_Video()
  VirtualCam : +Acquire_Image()
  VirtualCam : +Init_Acquisition()
  VirtualCam : +End_Acquisition()
  VirtualCam : +get_device_info()
  VirtualCam : +get_init_complete()
  VirtualCam : +get_error_config()
  VirtualCam : +get_trigger_mode()
  VirtualCam : +get_exposure_auto()
  VirtualCam : +get_gain_auto()
  VirtualCam : +get_sharpness_auto()
  VirtualCam : +get_trigger_source()
  VirtualCam : +get_buffer_mode()
  VirtualCam : +get_buffer_count()
  VirtualCam : +get_buffer_handling_mode()
  VirtualCam : +get_gain()
  VirtualCam : +get_blacklevel()
  VirtualCam : +get_sharpness()
  VirtualCam : +get_gamma()
  VirtualCam : +get_exposure()
  VirtualCam : +Reset()
  VirtualCam : +__del__()
  VirtualCam : -__init_complete
  VirtualCam : -__gamma
  VirtualCam : -__blacklevel
  VirtualCam : -__error_config
  VirtualCam : -__trigger_mode
  VirtualCam : -__exposure_auto
  VirtualCam : -__exposure
  VirtualCam : -__gain_auto
  VirtualCam : -__gain
  VirtualCam : -__sharpness_auto
  VirtualCam : -__sharpness
  VirtualCam : -__buffer_mode
  VirtualCam : -__buffer_count
  VirtualCam : -__buffer_handling_mode
  VirtualCam : -__trigger_source
  VirtualCam : +imagenes
  VirtualCam : +iterador
  VirtualCam : -__device_info
}
@enduml

PlantUML version 1.2022.13beta2(Unknown compile time)
(GPL source distribution)
Java Runtime: Java(TM) SE Runtime Environment
JVM: Java HotSpot(TM) 64-Bit Server VM
Default Encoding: UTF-8
Language: en
Country: US
--></g></svg>