<?xml version="1.0" encoding="UTF-8" standalone="no"?><svg xmlns="http://www.w3.org/2000/svg" xmlns:xlink="http://www.w3.org/1999/xlink" contentStyleType="text/css" height="210px" preserveAspectRatio="none" style="width:223px;height:210px;background:#FFFFFF;" version="1.1" viewBox="0 0 223 210" width="223px" zoomAndPan="magnify"><defs/><g><!--MD5=[41ae9e8c3e336d8b36c334fef819e2f7]
cluster VirtualComunication--><g id="cluster_VirtualComunication"><path d="M8.5,6 L177.5,6 A3.75,3.75 0 0 1 180,8.5 L187,28.2969 L213.5,28.2969 A2.5,2.5 0 0 1 216,30.7969 L216,200.5 A2.5,2.5 0 0 1 213.5,203 L8.5,203 A2.5,2.5 0 0 1 6,200.5 L6,8.5 A2.5,2.5 0 0 1 8.5,6 " fill="none" style="stroke:#000000;stroke-width:1.5;"/><line style="stroke:#000000;stroke-width:1.5;" x1="6" x2="187" y1="28.2969" y2="28.2969"/><text fill="#000000" font-family="sans-serif" font-size="14" font-weight="bold" lengthAdjust="spacing" textLength="168" x="10" y="20.9951">VirtualComunication</text></g><!--MD5=[76a8368459dcfdff6782ebee91b3a706]
class VirtualComunication--><g id="elem_VirtualComunication"><rect codeLine="2" fill="#F1F1F1" height="145.7813" id="VirtualComunication" rx="2.5" ry="2.5" style="stroke:#181818;stroke-width:0.5;" width="178" x="22" y="41"/><ellipse cx="37" cy="57" fill="#ADD1B2" rx="11" ry="11" style="stroke:#181818;stroke-width:1.0;"/><path d="M39.3438,52.6719 C38.4063,52.2344 37.8125,52.0938 36.9375,52.0938 C34.3125,52.0938 32.3125,54.1719 32.3125,56.8906 L32.3125,58.0156 C32.3125,60.5938 34.4219,62.4844 37.3125,62.4844 C38.5313,62.4844 39.6875,62.1875 40.4375,61.6406 C41.0156,61.2344 41.3438,60.7813 41.3438,60.3906 C41.3438,59.9375 40.9531,59.5469 40.4844,59.5469 C40.2656,59.5469 40.0625,59.625 39.875,59.8125 C39.4219,60.2969 39.4219,60.2969 39.2344,60.3906 C38.8125,60.6563 38.125,60.7813 37.3594,60.7813 C35.3125,60.7813 34.0156,59.6875 34.0156,57.9844 L34.0156,56.8906 C34.0156,55.1094 35.2656,53.7969 37,53.7969 C37.5781,53.7969 38.1875,53.9531 38.6563,54.2031 C39.1406,54.4844 39.3125,54.7031 39.4063,55.1094 C39.4688,55.5156 39.5,55.6406 39.6406,55.7656 C39.7813,55.9063 40.0156,56.0156 40.2344,56.0156 C40.5,56.0156 40.7656,55.875 40.9375,55.6563 C41.0469,55.5 41.0781,55.3125 41.0781,54.8906 L41.0781,53.4688 C41.0781,53.0313 41.0625,52.9063 40.9688,52.75 C40.8125,52.4844 40.5313,52.3438 40.2344,52.3438 C39.9375,52.3438 39.7344,52.4375 39.5156,52.75 L39.3438,52.6719 Z " fill="#000000"/><text fill="#000000" font-family="sans-serif" font-size="14" lengthAdjust="spacing" textLength="146" x="51" y="61.8467">VirtualComunication</text><line style="stroke:#181818;stroke-width:0.5;" x1="23" x2="199" y1="73" y2="73"/><ellipse cx="33" cy="86.6484" fill="none" rx="3" ry="3" style="stroke:#038048;stroke-width:1.0;"/><text fill="#000000" font-family="sans-serif" font-size="14" lengthAdjust="spacing" textLength="72" x="42" y="89.9951">in_waiting</text><line style="stroke:#181818;stroke-width:0.5;" x1="23" x2="199" y1="97.2969" y2="97.2969"/><ellipse cx="33" cy="110.9453" fill="#84BE84" rx="3" ry="3" style="stroke:#038048;stroke-width:1.0;"/><text fill="#000000" font-family="sans-serif" font-size="14" lengthAdjust="spacing" textLength="62" x="42" y="114.292">__init__()</text><ellipse cx="33" cy="127.2422" fill="#84BE84" rx="3" ry="3" style="stroke:#038048;stroke-width:1.0;"/><text fill="#000000" font-family="sans-serif" font-size="14" lengthAdjust="spacing" textLength="47" x="42" y="130.5889">write()</text><ellipse cx="33" cy="143.5391" fill="#84BE84" rx="3" ry="3" style="stroke:#038048;stroke-width:1.0;"/><text fill="#000000" font-family="sans-serif" font-size="14" lengthAdjust="spacing" textLength="42" x="42" y="146.8857">read()</text><ellipse cx="33" cy="159.8359" fill="#84BE84" rx="3" ry="3" style="stroke:#038048;stroke-width:1.0;"/><text fill="#000000" font-family="sans-serif" font-size="14" lengthAdjust="spacing" textLength="47" x="42" y="163.1826">close()</text><ellipse cx="33" cy="176.1328" fill="#84BE84" rx="3" ry="3" style="stroke:#038048;stroke-width:1.0;"/><text fill="#000000" font-family="sans-serif" font-size="14" lengthAdjust="spacing" textLength="80" x="42" y="179.4795">verify_led()</text></g><!--MD5=[72955b0bc34107a079dfcbdc7b72f13e]
@startuml
package VirtualComunication {
  class VirtualComunication
  VirtualComunication : +__init__()
  VirtualComunication : +write()
  VirtualComunication : +read()
  VirtualComunication : +close()
  VirtualComunication : +verify_led()
  VirtualComunication : +in_waiting
}
@enduml

PlantUML version 1.2022.13beta2(Unknown compile time)
(GPL source distribution)
Java Runtime: Java(TM) SE Runtime Environment
JVM: Java HotSpot(TM) 64-Bit Server VM
Default Encoding: UTF-8
Language: en
Country: US
--></g></svg>